<svg width="56" height="56" viewBox="0 0 56 56" fill="none" xmlns="http://www.w3.org/2000/svg">
<rect width="56" height="56" rx="28" fill="#EBE9FE"/>
<path d="M39.6667 26.8333V23.5667C39.6667 22.2599 39.6667 21.6065 39.4124 21.1074C39.1887 20.6683 38.8317 20.3114 38.3927 20.0877C37.8936 19.8333 37.2402 19.8333 35.9334 19.8333H20.0667C18.7599 19.8333 18.1065 19.8333 17.6074 20.0877C17.1684 20.3114 16.8114 20.6683 16.5877 21.1074C16.3334 21.6065 16.3334 22.2599 16.3334 23.5667V27.7667C16.3334 29.0735 16.3334 29.7269 16.5877 30.226C16.8114 30.665 17.1684 31.022 17.6074 31.2457C18.1065 31.5 18.7599 31.5 20.0667 31.5H26.8334M28 25.6667H28.0059M33.8334 25.6667H33.8392M22.1667 25.6667H22.1725M36.4584 33.8333V31.7917C36.4584 30.6641 35.5443 29.75 34.4167 29.75C33.2891 29.75 32.375 30.6641 32.375 31.7917V33.8333M28.2917 25.6667C28.2917 25.8278 28.1611 25.9583 28 25.9583C27.839 25.9583 27.7084 25.8278 27.7084 25.6667C27.7084 25.5056 27.839 25.375 28 25.375C28.1611 25.375 28.2917 25.5056 28.2917 25.6667ZM34.125 25.6667C34.125 25.8278 33.9945 25.9583 33.8334 25.9583C33.6723 25.9583 33.5417 25.8278 33.5417 25.6667C33.5417 25.5056 33.6723 25.375 33.8334 25.375C33.9945 25.375 34.125 25.5056 34.125 25.6667ZM22.4584 25.6667C22.4584 25.8278 22.3278 25.9583 22.1667 25.9583C22.0056 25.9583 21.875 25.8278 21.875 25.6667C21.875 25.5056 22.0056 25.375 22.1667 25.375C22.3278 25.375 22.4584 25.5056 22.4584 25.6667ZM32.2 38.5H36.6334C37.2868 38.5 37.6135 38.5 37.863 38.3728C38.0826 38.261 38.261 38.0825 38.3729 37.863C38.5 37.6134 38.5 37.2867 38.5 36.6333V35.7C38.5 35.0466 38.5 34.7199 38.3729 34.4703C38.261 34.2508 38.0826 34.0723 37.863 33.9605C37.6135 33.8333 37.2868 33.8333 36.6334 33.8333H32.2C31.5466 33.8333 31.2199 33.8333 30.9704 33.9605C30.7509 34.0723 30.5724 34.2508 30.4605 34.4703C30.3334 34.7199 30.3334 35.0466 30.3334 35.7V36.6333C30.3334 37.2867 30.3334 37.6134 30.4605 37.863C30.5724 38.0825 30.7509 38.261 30.9704 38.3728C31.2199 38.5 31.5466 38.5 32.2 38.5Z" stroke="#7A5AF8" stroke-width="2.33333" stroke-linecap="round" stroke-linejoin="round"/>
</svg>
