<svg width="48" height="48" viewBox="0 0 48 48" fill="none" xmlns="http://www.w3.org/2000/svg">
<rect width="48" height="48" rx="24" fill="#EBE9FE"/>
<g clip-path="url(#clip0_1895_80699)">
<path d="M27.75 28.5H26.25V27C26.2498 26.8012 26.1707 26.6105 26.0301 26.4699C25.8895 26.3293 25.6988 26.2502 25.5 26.25H22.5C22.3011 26.2502 22.1105 26.3293 21.9699 26.4699C21.8293 26.6105 21.7502 26.8012 21.75 27V28.5H20.25V27C20.2506 26.4035 20.4879 25.8316 20.9097 25.4097C21.3315 24.9879 21.9034 24.7507 22.5 24.75H25.5C26.0965 24.7507 26.6684 24.9879 27.0903 25.4097C27.5121 25.8316 27.7493 26.4035 27.75 27V28.5Z" fill="#7A5AF8"/>
<path d="M24 24C23.4808 24 22.9733 23.8461 22.5416 23.5576C22.1099 23.2692 21.7735 22.8592 21.5748 22.3796C21.3761 21.8999 21.3241 21.3721 21.4254 20.8629C21.5267 20.3537 21.7767 19.886 22.1438 19.5189C22.5109 19.1517 22.9787 18.9017 23.4879 18.8005C23.9971 18.6992 24.5249 18.7512 25.0045 18.9498C25.4842 19.1485 25.8942 19.485 26.1826 19.9166C26.471 20.3483 26.625 20.8558 26.625 21.375C26.6242 22.071 26.3473 22.7382 25.8552 23.2303C25.3631 23.7224 24.6959 23.9992 24 24ZM24 20.25C23.7775 20.25 23.56 20.316 23.375 20.4396C23.19 20.5632 23.0458 20.7389 22.9606 20.9445C22.8755 21.1501 22.8532 21.3763 22.8966 21.5945C22.94 21.8127 23.0472 22.0132 23.2045 22.1705C23.3618 22.3278 23.5623 22.435 23.7805 22.4784C23.9987 22.5218 24.2249 22.4995 24.4305 22.4144C24.6361 22.3292 24.8118 22.185 24.9354 22C25.059 21.815 25.125 21.5975 25.125 21.375C25.1246 21.0768 25.006 20.7908 24.7951 20.5799C24.5842 20.369 24.2983 20.2504 24 20.25Z" fill="#7A5AF8"/>
<path d="M34.8106 25.0606C34.9499 24.9213 35.0604 24.756 35.1358 24.574C35.2112 24.392 35.25 24.197 35.25 24C35.25 23.803 35.2112 23.608 35.1358 23.426C35.0604 23.244 34.9499 23.0787 34.8106 22.9394L30.4704 18.5995L32.6458 16.4524C32.9667 16.5319 33.3048 16.5033 33.6077 16.371C33.9106 16.2388 34.1614 16.0102 34.3212 15.7209C34.481 15.4315 34.5408 15.0975 34.4914 14.7707C34.442 14.4439 34.2861 14.1425 34.048 13.9133C33.8098 13.6841 33.5026 13.5399 33.1741 13.5031C32.8456 13.4663 32.5142 13.5389 32.2312 13.7097C31.9482 13.8805 31.7295 14.1399 31.609 14.4477C31.4884 14.7555 31.4729 15.0944 31.5646 15.412L29.4097 17.5386L25.0606 13.1894C24.9213 13.0501 24.756 12.9396 24.574 12.8642C24.392 12.7888 24.197 12.75 24 12.75C23.803 12.75 23.608 12.7888 23.426 12.8642C23.244 12.9396 23.0787 13.0501 22.9394 13.1894L18.5995 17.5295L16.4526 15.3538C16.532 15.0329 16.5034 14.6948 16.371 14.3918C16.2387 14.0889 16.0101 13.8381 15.7207 13.6783C15.4312 13.5186 15.0972 13.4588 14.7703 13.5083C14.4435 13.5578 14.1421 13.7138 13.9129 13.9521C13.6837 14.1903 13.5396 14.4976 13.5029 14.8261C13.4662 15.1546 13.5389 15.4861 13.7098 15.7691C13.8807 16.0521 14.1402 16.2708 14.4481 16.3912C14.7559 16.5116 15.0949 16.5271 15.4125 16.4352L17.5387 18.5903L13.1894 22.9394C13.0501 23.0787 12.9396 23.244 12.8642 23.426C12.7888 23.608 12.75 23.803 12.75 24C12.75 24.197 12.7888 24.392 12.8642 24.574C12.9396 24.756 13.0501 24.9213 13.1894 25.0606L17.5386 29.4097L15.4125 31.5648C15.0956 31.4736 14.7576 31.4894 14.4506 31.6099C14.1437 31.7303 13.8851 31.9486 13.7148 32.231C13.5446 32.5133 13.4723 32.844 13.509 33.1716C13.5458 33.4993 13.6896 33.8057 13.9182 34.0433C14.1467 34.2809 14.4473 34.4365 14.7733 34.4859C15.0993 34.5354 15.4324 34.4759 15.7212 34.3168C16.0099 34.1576 16.2381 33.9076 16.3704 33.6056C16.5027 33.3036 16.5316 32.9664 16.4527 32.6462L18.5996 30.4706L22.9396 34.8106C23.0788 34.9499 23.2442 35.0604 23.4261 35.1358C23.6081 35.2112 23.8032 35.25 24.0001 35.25C24.1971 35.25 24.3922 35.2112 24.5741 35.1358C24.7561 35.0604 24.9214 34.9499 25.0607 34.8106L29.4098 30.4614L31.5648 32.588C31.4736 32.9049 31.4894 33.2431 31.6099 33.5501C31.7304 33.857 31.9488 34.1157 32.2312 34.2859C32.5137 34.4562 32.8444 34.5285 33.1721 34.4917C33.4998 34.4549 33.8062 34.311 34.0438 34.0823C34.2815 33.8537 34.437 33.553 34.4864 33.2269C34.5358 32.9009 34.4763 32.5677 34.317 32.2789C34.1577 31.9901 33.9077 31.7619 33.6056 31.6297C33.3035 31.4975 32.9662 31.4687 32.646 31.5476L30.4705 29.4005L34.8106 25.0606ZM24 33.75L14.25 24L24 14.25L33.75 24L24 33.75Z" fill="#7A5AF8"/>
</g>
<defs>
<clipPath id="clip0_1895_80699">
<rect width="24" height="24" fill="white" transform="translate(12 12)"/>
</clipPath>
</defs>
</svg>
