<svg width="151" height="150" viewBox="0 0 151 150" fill="none" xmlns="http://www.w3.org/2000/svg">
<path d="M79.8444 58.5135C79.8639 58.4805 79.8864 58.4805 79.9134 58.5135L79.8729 58.5465L79.8444 58.5135Z" fill="#0124DD"/>
<path d="M45.3834 70.0395C45.8169 68.7285 46.2279 67.4895 46.6299 66.261C46.6794 66.111 46.7799 66.0765 46.9104 66.0525C49.0809 65.6475 51.2604 65.3025 53.4774 65.412C55.0419 65.4855 56.5464 65.805 57.8934 66.645C59.7204 67.782 60.5559 69.495 60.6744 71.595C60.7434 72.8025 60.5469 73.995 60.3744 75.177C60.0159 77.586 59.6469 79.992 59.3004 82.401C59.2909 82.502 59.2545 82.5986 59.1948 82.6807C59.1352 82.7628 59.0545 82.8273 58.9614 82.8675C57.5484 83.643 56.0154 84.0675 54.4404 84.3255C52.4912 84.6632 50.5032 84.7138 48.5394 84.4755C46.9029 84.27 45.3774 83.7615 44.1894 82.5585C43.6738 82.0306 43.2736 81.4013 43.0141 80.7106C42.7546 80.0198 42.6415 79.2827 42.682 78.5459C42.7225 77.8091 42.9157 77.0888 43.2493 76.4306C43.5829 75.7724 44.0496 75.1908 44.6199 74.7225C45.8379 73.7205 47.2779 73.2225 48.7944 72.9C51.0909 72.414 53.4084 72.48 55.7274 72.657C56.0169 72.678 56.0799 72.5895 56.0934 72.3315C56.1969 70.5225 55.1109 69.2235 53.2044 68.874C51.8814 68.631 50.5824 68.841 49.2834 69.054C47.9579 69.2721 46.6533 69.6018 45.3834 70.0395ZM53.4954 75.4965C52.6699 75.4911 51.8452 75.5518 51.0294 75.678C50.1474 75.828 49.2909 76.0605 48.5799 76.6455C47.7759 77.307 47.5614 78.195 47.7204 79.173C47.8704 80.0655 48.4944 80.5545 49.3029 80.8425C49.6735 80.9729 50.059 81.056 50.4504 81.09C51.8964 81.2295 53.3004 80.9775 54.6954 80.6325C54.79 80.62 54.8768 80.5733 54.9392 80.5012C55.0017 80.429 55.0356 80.3365 55.0344 80.241C55.2249 78.8235 55.4139 77.4045 55.6239 75.99C55.6599 75.7455 55.5789 75.699 55.3749 75.66C54.7535 75.5574 54.1251 75.5028 53.4954 75.4965Z" fill="#114185"/>
<path d="M112.349 79.9185C112.109 80.6475 111.899 81.3 111.677 81.9525C111.5 82.488 111.311 83.019 111.143 83.559C111.127 83.6417 111.087 83.7177 111.028 83.7775C110.969 83.8373 110.893 83.8782 110.81 83.895C108.515 84.507 106.19 84.8385 103.82 84.54C101.12 84.1995 98.8884 83.04 97.5204 80.5635C96.6789 79.0305 96.4119 77.361 96.5259 75.6405C96.7434 72.3675 98.1069 69.654 100.642 67.5525C102.182 66.2745 103.979 65.6175 105.956 65.4225C107.32 65.289 108.676 65.3145 110.006 65.685C112.715 66.435 114.521 68.5425 114.868 71.3325C115.067 72.936 114.868 74.511 114.608 76.0875C114.577 76.284 114.478 76.29 114.328 76.29C113.6 76.29 112.871 76.29 112.144 76.29C108.644 76.29 105.144 76.29 101.644 76.29C101.362 76.29 101.279 76.359 101.275 76.6485C101.236 79.0065 102.538 80.5635 104.855 80.961C106.568 81.261 108.235 81.0015 109.898 80.6385C110.73 80.4525 111.549 80.212 112.349 79.9185ZM106.229 73.2285H109.589C110.615 73.2285 110.615 73.2285 110.65 72.2025C110.72 70.125 109.45 68.7705 107.384 68.655C104.914 68.5155 102.584 70.305 101.984 72.96C101.935 73.1805 101.984 73.2345 102.209 73.233C103.546 73.2225 104.879 73.2285 106.229 73.2285Z" fill="#114185"/>
<path d="M120.974 84.6C118.772 84.5853 116.586 84.2208 114.497 83.52C114.289 83.448 114.233 83.388 114.308 83.1615C114.651 82.1225 114.98 81.0785 115.294 80.0295C115.372 79.7715 115.463 79.7925 115.67 79.8915C117.676 80.8725 119.941 81.1919 122.14 80.8035C122.656 80.7249 123.145 80.5244 123.568 80.2185C123.763 80.0829 123.926 79.9053 124.044 79.6986C124.162 79.4919 124.232 79.2614 124.249 79.0241C124.266 78.7868 124.229 78.5487 124.142 78.3274C124.055 78.106 123.919 77.907 123.745 77.745C123.364 77.3921 122.936 77.0933 122.473 76.857C121.325 76.215 120.158 75.6135 119.068 74.8695C116.138 72.864 116.495 68.6895 119.38 66.858C120.658 66.0465 122.057 65.64 123.544 65.4855C126.022 65.229 128.417 65.6535 130.778 66.3645C130.994 66.429 131.05 66.4875 130.967 66.717C130.612 67.7025 130.268 68.694 129.946 69.6915C129.86 69.954 129.758 69.9345 129.556 69.8415C128.079 69.1447 126.462 68.7957 124.829 68.8215C124.037 68.841 123.265 68.9715 122.594 69.4395C122.309 69.6212 122.092 69.8915 121.975 70.2089C121.859 70.5262 121.85 70.873 121.949 71.196C122.079 71.5582 122.322 71.8684 122.644 72.0795C123.338 72.6015 124.133 72.954 124.894 73.371C125.824 73.8568 126.712 74.4198 127.549 75.054C130.021 77.016 129.77 80.754 127.399 82.653C125.869 83.8755 124.078 84.3645 122.173 84.5385C121.694 84.5805 121.219 84.588 120.974 84.6Z" fill="#114185"/>
<path d="M137.154 84.6001C134.981 84.5791 132.824 84.2183 130.763 83.5306C130.524 83.4511 130.463 83.3806 130.551 83.1286C130.89 82.1116 131.211 81.0886 131.523 80.0626C131.598 79.8136 131.673 79.7776 131.916 79.8946C133.913 80.8665 136.165 81.1866 138.354 80.8096C138.823 80.736 139.273 80.5686 139.676 80.3176C140.67 79.6831 140.792 78.5176 139.952 77.7016C139.599 77.385 139.207 77.1153 138.786 76.8991C137.586 76.2181 136.34 75.6091 135.21 74.7991C132.605 72.9166 132.929 69.5101 134.522 67.8001C135.596 66.6496 136.952 66.0316 138.456 65.7001C140.453 65.2501 142.448 65.3581 144.441 65.7271C145.281 65.8771 146.103 66.1051 146.925 66.3271C147.198 66.4036 147.297 66.4846 147.182 66.7966C146.835 67.7371 146.52 68.6881 146.214 69.6466C146.129 69.9091 146.043 69.9466 145.785 69.8341C144.328 69.1499 142.736 68.8019 141.126 68.8156C140.376 68.8291 139.652 68.9401 138.998 69.3331C138.378 69.7036 138.065 70.2421 138.158 70.9831C138.216 71.4541 138.5 71.7826 138.857 72.0526C139.607 72.6211 140.469 72.9961 141.285 73.4461C142.215 73.9606 143.133 74.4961 143.945 75.1876C146.219 77.1376 145.962 80.7526 143.681 82.6126C142.455 83.6131 141.033 84.1321 139.499 84.4006C138.723 84.5266 137.939 84.5933 137.154 84.6001Z" fill="#114185"/>
<path d="M77.7287 80.184C77.6522 80.634 77.4587 81.0375 77.3162 81.462C77.0447 82.2705 76.7552 83.0715 76.4867 83.8815C76.467 83.9625 76.4221 84.0352 76.3585 84.0891C76.2949 84.143 76.2158 84.1753 76.1327 84.1815C74.3327 84.4815 72.5132 84.672 70.6847 84.534C67.9562 84.3285 65.6162 83.334 64.0082 81.009C62.8742 79.371 62.4737 77.5095 62.5742 75.549C62.7422 72.279 64.1282 69.603 66.6827 67.554C68.1467 66.381 69.8687 65.805 71.7032 65.565C73.974 65.2432 76.2864 65.3814 78.5027 65.9715C78.9257 66.087 79.3337 66.249 79.7492 66.384C79.8992 66.432 79.9382 66.4965 79.8827 66.66C79.5287 67.695 79.1777 68.733 78.8462 69.7755C78.7727 70.005 78.6692 69.9585 78.5207 69.9C77.4616 69.4657 76.34 69.2029 75.1982 69.1215C72.7277 68.982 70.5797 69.6615 69.0377 71.718C67.5932 73.6455 67.3697 76.8465 68.9162 78.7815C69.8777 79.9815 71.1467 80.6175 72.6527 80.793C74.2772 80.982 75.8477 80.6685 77.3987 80.223C77.4977 80.1945 77.5982 80.175 77.6987 80.151L77.7287 80.184Z" fill="#114185"/>
<path d="M94.8288 80.1629C94.4838 81.1559 94.0878 82.1384 93.8043 83.1524C93.5988 83.8919 93.2523 84.2429 92.4453 84.3239C90.1953 84.5489 87.9453 84.8009 85.6953 84.2054C82.1568 83.2649 79.8453 80.4419 79.6533 76.7729C79.4433 72.7859 80.9703 69.5999 84.1818 67.2434C85.5318 66.2549 87.1068 65.7869 88.7508 65.5724C91.0211 65.2516 93.3326 65.3894 95.5488 65.9774C95.9598 66.0899 96.3543 66.2579 96.7638 66.3764C96.9783 66.4394 96.9843 66.5369 96.9138 66.7244C96.5703 67.7279 96.2298 68.7314 95.9103 69.7424C95.8338 69.9839 95.7423 69.9749 95.5458 69.8999C93.9738 69.2999 92.3658 68.9744 90.6693 69.1499C87.7878 69.4589 85.5948 71.3639 85.0413 74.1674C84.6423 76.1909 85.0083 78.0419 86.6208 79.4744C87.9063 80.6144 89.4708 80.9324 91.1373 80.8349C92.313 80.7575 93.4747 80.5358 94.5963 80.1749C94.6638 80.1629 94.7238 80.1074 94.8288 80.1629Z" fill="#114185"/>
<path d="M37.6861 76.035L19.0006 57.3495V60.2175L34.8181 76.035L34.8241 76.041L21.1231 89.742L21.1066 89.7255L7.41463 76.035L7.40263 76.023L14.1241 69.3015H11.2066L4.47913 76.029L4.48513 76.035L21.1006 92.6505L21.1066 92.6445L37.7011 76.05L37.6861 76.035Z" fill="#FE6309"/>
<path d="M18.9945 62.1915V65.0595L29.976 76.041L21.129 84.888L12.2745 76.035L12.2625 76.023L18.984 69.3015H16.0665L9.33897 76.029L9.34497 76.035L19.6635 86.3535L21.1065 87.7965L22.5735 86.331L32.853 76.05L18.9945 62.1915Z" fill="#FE6309"/>
<path d="M28.0094 76.035L22.5299 70.5495L21.0719 69.0915L19.6379 70.5255L14.1299 76.029L19.6409 81.54L21.0839 82.983L22.5479 81.5175L28.0244 76.05L28.0094 76.035ZM21.1094 80.085L17.0594 76.035L17.0474 76.023L21.0869 71.9835L25.1369 76.0335L21.1094 80.085Z" fill="#FE6309"/>
</svg>
