<svg width="56" height="56" viewBox="0 0 56 56" fill="none" xmlns="http://www.w3.org/2000/svg">
<g filter="url(#filter0_d_1895_80710)">
<rect x="4" width="48" height="48" rx="24" fill="#EBE9FE" shape-rendering="crispEdges"/>
<path d="M33 33V31C33 29.9391 32.5786 28.9217 31.8284 28.1716C31.0783 27.4214 30.0609 27 29 27H21C19.9391 27 18.9217 27.4214 18.1716 28.1716C17.4214 28.9217 17 29.9391 17 31V33M39 33V31C38.9993 30.1137 38.7044 29.2528 38.1614 28.5523C37.6184 27.8519 36.8581 27.3516 36 27.13M32 15.13C32.8604 15.3503 33.623 15.8507 34.1676 16.5523C34.7122 17.2539 35.0078 18.1168 35.0078 19.005C35.0078 19.8932 34.7122 20.7561 34.1676 21.4577C33.623 22.1593 32.8604 22.6597 32 22.88M29 19C29 21.2091 27.2091 23 25 23C22.7909 23 21 21.2091 21 19C21 16.7909 22.7909 15 25 15C27.2091 15 29 16.7909 29 19Z" stroke="#7A5AF8" stroke-width="2" stroke-linecap="round" stroke-linejoin="round"/>
</g>
<defs>
<filter id="filter0_d_1895_80710" x="0" y="0" width="56" height="56" filterUnits="userSpaceOnUse" color-interpolation-filters="sRGB">
<feFlood flood-opacity="0" result="BackgroundImageFix"/>
<feColorMatrix in="SourceAlpha" type="matrix" values="0 0 0 0 0 0 0 0 0 0 0 0 0 0 0 0 0 0 127 0" result="hardAlpha"/>
<feOffset dy="4"/>
<feGaussianBlur stdDeviation="2"/>
<feComposite in2="hardAlpha" operator="out"/>
<feColorMatrix type="matrix" values="0 0 0 0 0 0 0 0 0 0 0 0 0 0 0 0 0 0 0.25 0"/>
<feBlend mode="normal" in2="BackgroundImageFix" result="effect1_dropShadow_1895_80710"/>
<feBlend mode="normal" in="SourceGraphic" in2="effect1_dropShadow_1895_80710" result="shape"/>
</filter>
</defs>
</svg>
