<svg width="48" height="48" viewBox="0 0 48 48" fill="none" xmlns="http://www.w3.org/2000/svg">
<rect width="48" height="48" rx="24" fill="#FEF0C7"/>
<path d="M34 23V20.2C34 19.0799 34 18.5198 33.782 18.092C33.5903 17.7157 33.2843 17.4097 32.908 17.218C32.4802 17 31.9201 17 30.8 17H17.2C16.0799 17 15.5198 17 15.092 17.218C14.7157 17.4097 14.4097 17.7157 14.218 18.092C14 18.5198 14 19.0799 14 20.2V23.8C14 24.9201 14 25.4802 14.218 25.908C14.4097 26.2843 14.7157 26.5903 15.092 26.782C15.5198 27 16.0799 27 17.2 27H23M24 22H24.005M29 22H29.005M19 22H19.005M31.25 29V27.25C31.25 26.2835 30.4665 25.5 29.5 25.5C28.5335 25.5 27.75 26.2835 27.75 27.25V29M24.25 22C24.25 22.1381 24.1381 22.25 24 22.25C23.8619 22.25 23.75 22.1381 23.75 22C23.75 21.8619 23.8619 21.75 24 21.75C24.1381 21.75 24.25 21.8619 24.25 22ZM29.25 22C29.25 22.1381 29.1381 22.25 29 22.25C28.8619 22.25 28.75 22.1381 28.75 22C28.75 21.8619 28.8619 21.75 29 21.75C29.1381 21.75 29.25 21.8619 29.25 22ZM19.25 22C19.25 22.1381 19.1381 22.25 19 22.25C18.8619 22.25 18.75 22.1381 18.75 22C18.75 21.8619 18.8619 21.75 19 21.75C19.1381 21.75 19.25 21.8619 19.25 22ZM27.6 33H31.4C31.9601 33 32.2401 33 32.454 32.891C32.6422 32.7951 32.7951 32.6422 32.891 32.454C33 32.2401 33 31.9601 33 31.4V30.6C33 30.0399 33 29.7599 32.891 29.546C32.7951 29.3578 32.6422 29.2049 32.454 29.109C32.2401 29 31.9601 29 31.4 29H27.6C27.0399 29 26.7599 29 26.546 29.109C26.3578 29.2049 26.2049 29.3578 26.109 29.546C26 29.7599 26 30.0399 26 30.6V31.4C26 31.9601 26 32.2401 26.109 32.454C26.2049 32.6422 26.3578 32.7951 26.546 32.891C26.7599 33 27.0399 33 27.6 33Z" stroke="#F79009" stroke-width="2" stroke-linecap="round" stroke-linejoin="round"/>
</svg>
