<svg width="350" height="250" viewBox="0 0 350 250" fill="none" xmlns="http://www.w3.org/2000/svg">
<rect width="350" height="250" fill="#D1E9FF"/>
<g clip-path="url(#clip0_1776_86795)">
<path d="M182.052 200H167.948C160.952 200 155.257 194.285 155.257 187.265C155.257 186.485 155.884 185.848 156.669 185.848H193.338C194.116 185.848 194.751 186.478 194.751 187.265C194.751 194.285 189.056 200 182.06 200H182.052ZM158.179 188.683C158.867 193.475 162.985 197.172 167.948 197.172H182.052C187.015 197.172 191.133 193.475 191.821 188.683H158.179Z" fill="#2E90FA"/>
<path d="M196.156 188.682H153.844C149.957 188.682 146.796 185.51 146.796 181.61C146.796 177.71 149.957 174.538 153.844 174.538H196.149C200.035 174.538 203.197 177.71 203.197 181.61C203.197 185.51 200.035 188.682 196.149 188.682H196.156ZM153.851 177.365C151.519 177.365 149.621 179.27 149.621 181.61C149.621 183.95 151.519 185.855 153.851 185.855H196.156C198.488 185.855 200.387 183.95 200.387 181.61C200.387 179.27 198.488 177.365 196.156 177.365H153.844H153.851Z" fill="#2E90FA"/>
<path d="M196.156 177.357H153.844C149.957 177.357 146.796 174.185 146.796 170.285C146.796 166.385 149.957 163.212 153.844 163.212H196.149C200.035 163.212 203.197 166.385 203.197 170.285C203.197 174.185 200.035 177.357 196.149 177.357H196.156ZM153.851 166.04C151.519 166.04 149.621 167.945 149.621 170.285C149.621 172.625 151.519 174.53 153.851 174.53H196.156C198.488 174.53 200.387 172.625 200.387 170.285C200.387 167.945 198.488 166.04 196.156 166.04H153.844H153.851Z" fill="#2E90FA"/>
<path d="M200.387 166.04H149.613C147.281 166.04 145.383 164.135 145.383 161.795V155.33C145.383 153.103 144.314 150.987 142.528 149.667C128.424 139.295 120 122.668 120 105.185C120 104.405 120.628 103.768 121.413 103.768C122.197 103.768 122.825 104.398 122.825 105.185C122.825 121.76 130.815 137.532 144.202 147.38C146.706 149.225 148.208 152.195 148.208 155.322V161.788C148.208 162.568 148.844 163.205 149.621 163.205H200.387C201.164 163.205 201.799 162.568 201.799 161.788V155.322C201.799 152.195 203.294 149.225 205.806 147.38C219.192 137.54 227.182 121.76 227.182 105.185C227.182 104.405 227.81 103.768 228.595 103.768C229.38 103.768 230.007 104.398 230.007 105.185C230.007 122.66 221.584 139.288 207.48 149.66C205.693 150.973 204.625 153.087 204.625 155.322V161.788C204.625 164.128 202.726 166.033 200.394 166.033L200.387 166.04Z" fill="#2E90FA"/>
<path d="M228.587 106.603C227.81 106.603 227.175 105.972 227.175 105.185C227.182 76.3175 203.772 52.8275 174.996 52.8275C146.22 52.8275 122.818 76.3175 122.818 105.185C122.818 105.965 122.19 106.603 121.405 106.603C120.62 106.603 119.992 105.972 119.992 105.185C120 74.7575 144.673 50 174.996 50C205.32 50 229.992 74.7575 229.992 105.185C229.992 105.965 229.365 106.603 228.58 106.603H228.587Z" fill="#2E90FA"/>
<path d="M179.129 141.98H170.863C169.189 141.98 167.731 140.84 167.327 139.212L165.197 130.655C165.115 130.302 164.861 130.152 164.719 130.092C164.577 130.032 164.3 129.957 163.979 130.145L156.445 134.682C155.01 135.552 153.179 135.32 151.998 134.127L146.153 128.262C144.972 127.077 144.747 125.24 145.607 123.8L150.129 116.24C150.316 115.932 150.241 115.647 150.181 115.497C150.122 115.355 149.972 115.1 149.613 115.01L141.093 112.872C139.471 112.467 138.334 111.005 138.334 109.325V101.03C138.334 99.35 139.471 97.895 141.093 97.4825L149.621 95.345C149.972 95.255 150.122 95 150.181 94.8575C150.241 94.715 150.308 94.43 150.129 94.115L145.607 86.555C144.747 85.115 144.972 83.2775 146.153 82.085L151.998 76.22C153.179 75.035 155.01 74.81 156.452 75.6725L163.986 80.21C164.3 80.3975 164.584 80.3225 164.726 80.2625C164.868 80.2025 165.123 80.0525 165.205 79.7L167.335 71.1425C167.739 69.515 169.196 68.375 170.87 68.375H179.137C180.811 68.375 182.269 69.515 182.672 71.1425L184.803 79.7C184.885 80.0525 185.139 80.2025 185.281 80.2625C185.423 80.3225 185.699 80.3975 186.021 80.21L193.555 75.6725C194.99 74.8025 196.821 75.035 198.002 76.22L203.847 82.085C205.028 83.27 205.26 85.1075 204.393 86.5475L199.871 94.1075C199.684 94.415 199.759 94.7 199.818 94.85C199.878 94.9925 200.028 95.2475 200.379 95.33L208.907 97.4675C210.529 97.8725 211.665 99.335 211.665 101.015V109.31C211.665 110.99 210.529 112.445 208.907 112.857L200.379 114.995C200.028 115.085 199.878 115.34 199.818 115.482C199.759 115.625 199.691 115.91 199.871 116.225L204.393 123.785C205.252 125.225 205.028 127.062 203.847 128.247L198.002 134.112C196.821 135.297 194.998 135.53 193.547 134.66L186.013 130.122C185.699 129.935 185.415 130.01 185.273 130.07C185.131 130.13 184.877 130.28 184.795 130.632L182.665 139.19C182.261 140.817 180.804 141.957 179.129 141.957V141.98ZM164.398 127.197C164.868 127.197 165.339 127.295 165.795 127.482C166.872 127.932 167.649 128.84 167.933 129.972L170.063 138.53C170.153 138.897 170.482 139.152 170.863 139.152H179.129C179.511 139.152 179.84 138.897 179.929 138.53L182.059 129.972C182.343 128.84 183.121 127.932 184.197 127.482C185.281 127.04 186.469 127.122 187.463 127.722L194.998 132.26C195.319 132.455 195.73 132.402 195.999 132.14L201.844 126.275C202.113 126.005 202.158 125.592 201.971 125.27L197.449 117.71C196.851 116.705 196.761 115.513 197.21 114.432C197.658 113.353 198.563 112.565 199.691 112.28L208.22 110.142C208.586 110.052 208.84 109.722 208.84 109.34V101.045C208.84 100.67 208.586 100.332 208.22 100.242L199.691 98.105C198.563 97.82 197.651 97.04 197.21 95.96C196.761 94.88 196.851 93.6875 197.449 92.6825L201.971 85.1225C202.165 84.8 202.113 84.38 201.844 84.1175L195.999 78.2525C195.73 77.99 195.319 77.93 194.998 78.1325L187.456 82.67C186.454 83.27 185.266 83.36 184.19 82.91C183.113 82.46 182.336 81.5525 182.052 80.42L179.922 71.8625C179.832 71.495 179.503 71.24 179.122 71.24H170.855C170.474 71.24 170.145 71.495 170.056 71.8625L167.925 80.42C167.641 81.5525 166.864 82.46 165.788 82.91C164.711 83.36 163.523 83.27 162.521 82.67L154.987 78.1325C154.658 77.9375 154.247 77.99 153.986 78.2525L148.141 84.1175C147.872 84.3875 147.827 84.8 148.014 85.13L152.536 92.69C153.134 93.695 153.223 94.8875 152.775 95.9675C152.326 97.0475 151.422 97.8275 150.293 98.1125L141.765 100.25C141.399 100.34 141.145 100.67 141.145 101.052V109.347C141.145 109.722 141.399 110.06 141.765 110.15L150.293 112.287C151.422 112.572 152.334 113.352 152.775 114.44C153.223 115.52 153.134 116.712 152.536 117.717L148.014 125.277C147.819 125.6 147.872 126.02 148.141 126.29L153.986 132.155C154.255 132.425 154.673 132.47 154.987 132.282L162.529 127.745C163.104 127.4 163.747 127.22 164.398 127.22V127.197Z" fill="#2E90FA"/>
<path d="M174.996 119.337C167.223 119.337 160.892 112.993 160.892 105.185C160.892 97.3775 167.215 91.0325 174.996 91.0325C182.777 91.0325 189.1 97.3775 189.1 105.185C189.1 112.993 182.777 119.337 174.996 119.337ZM174.996 93.8675C168.778 93.8675 163.717 98.945 163.717 105.185C163.717 111.425 168.778 116.502 174.996 116.502C181.215 116.502 186.275 111.425 186.275 105.185C186.275 98.945 181.215 93.8675 174.996 93.8675Z" fill="#2E90FA"/>
</g>
<defs>
<clipPath id="clip0_1776_86795">
<rect width="110" height="150" fill="white" transform="translate(120 50)"/>
</clipPath>
</defs>
</svg>
