<svg width="300" height="300" viewBox="0 0 300 300" fill="none" xmlns="http://www.w3.org/2000/svg">
<path d="M19.6478 180.589L13.8672 186.369L16.0592 188.561L21.8398 182.781L19.6478 180.589Z" fill="#EBF5F0"/>
<path d="M30.3099 169.927L24.5293 175.708L26.7213 177.9L32.5019 172.119L30.3099 169.927Z" fill="#EBF5F0"/>
<path d="M26.7213 180.589L24.5293 182.781L30.3099 188.562L32.5019 186.37L26.7213 180.589Z" fill="#EBF5F0"/>
<path d="M16.0602 169.927L13.8682 172.12L19.6488 177.9L21.8408 175.708L16.0602 169.927Z" fill="#EBF5F0"/>
<path d="M272.756 135.505L266.976 141.285L269.168 143.477L274.948 137.697L272.756 135.505Z" fill="#EBF5F0"/>
<path d="M283.418 124.842L277.638 130.623L279.83 132.815L285.61 127.034L283.418 124.842Z" fill="#EBF5F0"/>
<path d="M279.828 135.501L277.636 137.693L283.416 143.474L285.608 141.282L279.828 135.501Z" fill="#EBF5F0"/>
<path d="M269.166 124.839L266.974 127.031L272.754 132.812L274.946 130.62L269.166 124.839Z" fill="#EBF5F0"/>
<path d="M135.634 20.3918L129.854 26.1724L132.046 28.3644L137.826 22.5838L135.634 20.3918Z" fill="#EBF5F0"/>
<path d="M146.296 9.72941L140.516 15.51L142.708 17.702L148.488 11.9214L146.296 9.72941Z" fill="#EBF5F0"/>
<path d="M142.708 20.3909L140.516 22.5829L146.296 28.3635L148.488 26.1715L142.708 20.3909Z" fill="#EBF5F0"/>
<path d="M132.047 9.72984L129.854 11.9219L135.635 17.7025L137.827 15.5104L132.047 9.72984Z" fill="#EBF5F0"/>
<path d="M78.5687 268.598H75.4688V288.818H78.5687V268.598Z" fill="#EBF5F0"/>
<path d="M87.1292 277.158H66.9092V280.258H87.1292V277.158Z" fill="#EBF5F0"/>
<path d="M268.553 29.004H251.314C250.458 29.004 249.764 28.31 249.764 27.454V10.215C249.764 9.35904 250.458 8.66504 251.314 8.66504H268.553C269.409 8.66504 270.103 9.35904 270.103 10.215V27.454C270.103 28.31 269.409 29.004 268.553 29.004V29.004ZM252.864 25.904H267.003V11.765H252.864V25.904V25.904Z" fill="#EBF5F0"/>
<path d="M55.1527 37.9161H28.0097C27.4557 37.9161 26.9447 37.6211 26.6677 37.1411C26.3907 36.6611 26.3907 36.0711 26.6677 35.5911L40.2397 12.0851C40.5167 11.6051 41.0287 11.3101 41.5817 11.3101C42.1347 11.3101 42.6467 11.6051 42.9237 12.0851L56.4947 35.5921C56.7717 36.0721 56.7717 36.6621 56.4947 37.1421C56.2177 37.6221 55.7057 37.9171 55.1527 37.9171V37.9161ZM30.6947 34.8161H52.4687L41.5817 15.9591L30.6947 34.8161Z" fill="#EBF5F0"/>
<path d="M274.002 276.647C267.907 276.647 262.948 271.688 262.948 265.593C262.948 259.498 267.907 254.539 274.002 254.539C280.097 254.539 285.056 259.498 285.056 265.593C285.056 271.688 280.097 276.647 274.002 276.647ZM274.002 257.639C269.616 257.639 266.048 261.207 266.048 265.593C266.048 269.979 269.616 273.547 274.002 273.547C278.388 273.547 281.956 269.979 281.956 265.593C281.956 261.207 278.388 257.639 274.002 257.639Z" fill="#EBF5F0"/>
<path d="M248.999 106.333L152.235 62.271L150.95 61.686L149.665 62.271L52.9009 106.333L51.0859 107.16V123.302H63.1599V136.294H71.5739L71.5469 136.487L71.3619 137.825C68.5589 158.14 68.5589 182.396 71.3619 202.709L71.5469 204.047L71.5739 204.24H63.1599V217.232H51.0859V236.415H250.814V217.232H238.74V204.24H230.326L230.353 204.047L230.538 202.709C233.341 182.395 233.341 158.139 230.538 137.825L230.353 136.487L230.326 136.294H238.74V123.302H250.814V107.16L248.999 106.333V106.333ZM66.2599 133.193V123.918H103.08V133.193H66.2599ZM196.963 136.91H203.421L203.189 138.664C201.903 148.372 201.223 159.3 201.223 170.267C201.223 181.234 201.903 192.162 203.189 201.87L203.421 203.624H196.963C195.938 203.624 195.105 204.458 195.105 205.482V216.616H170.719V188.177C170.719 182.893 168.664 177.928 164.932 174.196C161.2 170.464 156.235 168.409 150.951 168.409C145.667 168.409 140.702 170.464 136.97 174.196C133.238 177.928 131.183 182.893 131.183 188.177V216.616H106.797V205.482C106.797 204.457 105.963 203.624 104.939 203.624H98.4809L98.7129 201.87C99.9989 192.163 100.679 181.235 100.679 170.267C100.679 159.299 99.9989 148.371 98.7129 138.664L98.4809 136.91H104.939C105.964 136.91 106.797 136.076 106.797 135.052V123.918H195.105V135.052C195.105 136.077 195.939 136.91 196.963 136.91ZM167.002 188.176V216.615H134.9V188.176C134.9 179.325 142.101 172.125 150.951 172.125C159.801 172.125 167.002 179.325 167.002 188.176ZM94.9069 202.285L94.7219 203.623H74.6179L74.4329 202.285C71.6669 182.237 71.6669 158.298 74.4329 138.248L74.6179 136.91H94.7219L94.9069 138.248C97.6719 158.297 97.6719 182.236 94.9069 202.285V202.285ZM66.2599 207.34H103.08V216.615H66.2599V207.34ZM247.715 220.332V233.315H54.1859V220.332H247.714H247.715ZM235.641 207.34V216.615H198.821V207.34H235.641ZM206.994 138.248L207.179 136.91H227.283L227.468 138.248C230.234 158.297 230.234 182.237 227.468 202.285L227.283 203.623H207.179L206.994 202.285C204.229 182.236 204.229 158.297 206.994 138.248ZM235.641 133.193H198.821V123.918H235.641V133.193ZM247.715 120.201H54.1859V109.154L150.95 65.092L247.714 109.154V120.201H247.715Z" fill="#EBF5F0"/>
</svg>
