<svg width="300" height="300" viewBox="0 0 300 300" fill="none" xmlns="http://www.w3.org/2000/svg">
<path d="M19.6478 180.589L13.8672 186.369L16.0592 188.561L21.8398 182.781L19.6478 180.589Z" fill="#EBF5F0"/>
<path d="M30.3099 169.927L24.5293 175.708L26.7213 177.9L32.5019 172.119L30.3099 169.927Z" fill="#EBF5F0"/>
<path d="M26.7213 180.589L24.5293 182.781L30.3099 188.562L32.5019 186.37L26.7213 180.589Z" fill="#EBF5F0"/>
<path d="M16.0602 169.927L13.8682 172.12L19.6488 177.9L21.8408 175.708L16.0602 169.927Z" fill="#EBF5F0"/>
<path d="M272.756 135.505L266.976 141.285L269.168 143.477L274.948 137.697L272.756 135.505Z" fill="#EBF5F0"/>
<path d="M283.418 124.842L277.638 130.623L279.83 132.815L285.61 127.034L283.418 124.842Z" fill="#EBF5F0"/>
<path d="M279.828 135.501L277.636 137.693L283.416 143.474L285.608 141.282L279.828 135.501Z" fill="#EBF5F0"/>
<path d="M269.166 124.839L266.974 127.031L272.754 132.812L274.946 130.62L269.166 124.839Z" fill="#EBF5F0"/>
<path d="M135.634 20.3918L129.854 26.1724L132.046 28.3644L137.826 22.5838L135.634 20.3918Z" fill="#EBF5F0"/>
<path d="M146.296 9.72941L140.516 15.51L142.708 17.702L148.488 11.9214L146.296 9.72941Z" fill="#EBF5F0"/>
<path d="M142.708 20.3909L140.516 22.5829L146.296 28.3635L148.488 26.1715L142.708 20.3909Z" fill="#EBF5F0"/>
<path d="M132.047 9.72984L129.854 11.9219L135.635 17.7025L137.827 15.5104L132.047 9.72984Z" fill="#EBF5F0"/>
<path d="M78.5687 268.598H75.4688V288.818H78.5687V268.598Z" fill="#EBF5F0"/>
<path d="M87.1292 277.158H66.9092V280.258H87.1292V277.158Z" fill="#EBF5F0"/>
<path d="M268.553 29.004H251.314C250.458 29.004 249.764 28.31 249.764 27.454V10.215C249.764 9.35904 250.458 8.66504 251.314 8.66504H268.553C269.409 8.66504 270.103 9.35904 270.103 10.215V27.454C270.103 28.31 269.409 29.004 268.553 29.004V29.004ZM252.864 25.904H267.003V11.765H252.864V25.904V25.904Z" fill="#EBF5F0"/>
<path d="M55.1527 37.9161H28.0097C27.4557 37.9161 26.9447 37.6211 26.6677 37.1411C26.3907 36.6611 26.3907 36.0711 26.6677 35.5911L40.2397 12.0851C40.5167 11.6051 41.0287 11.3101 41.5817 11.3101C42.1347 11.3101 42.6467 11.6051 42.9237 12.0851L56.4947 35.5921C56.7717 36.0721 56.7717 36.6621 56.4947 37.1421C56.2177 37.6221 55.7057 37.9171 55.1527 37.9171V37.9161ZM30.6947 34.8161H52.4687L41.5817 15.9591L30.6947 34.8161Z" fill="#EBF5F0"/>
<path d="M274.002 276.647C267.907 276.647 262.948 271.688 262.948 265.593C262.948 259.498 267.907 254.539 274.002 254.539C280.097 254.539 285.056 259.498 285.056 265.593C285.056 271.688 280.097 276.647 274.002 276.647ZM274.002 257.639C269.616 257.639 266.048 261.207 266.048 265.593C266.048 269.979 269.616 273.547 274.002 273.547C278.388 273.547 281.956 269.979 281.956 265.593C281.956 261.207 278.388 257.639 274.002 257.639Z" fill="#EBF5F0"/>
<path d="M242.834 235.175H228.271V198.677H198.011V120.192H167.751V67.797L163.433 69.641L144.15 77.877V54.595C144.15 50.002 140.413 46.265 135.82 46.265C131.227 46.265 127.49 50.002 127.49 54.595V84.992L105.771 94.268L103.889 95.072V165.112H73.6293V235.177H59.0663C54.4733 235.177 50.7363 238.914 50.7363 243.507C50.7363 248.1 54.4733 251.837 59.0663 251.837H242.835C247.428 251.837 251.165 248.1 251.165 243.507C251.165 238.914 247.428 235.177 242.835 235.177L242.834 235.175ZM198.01 201.777H225.17V235.175H198.01V201.777V201.777ZM194.91 123.292V235.175H137.249V123.293H194.91V123.292ZM130.589 54.594C130.589 51.71 132.935 49.364 135.819 49.364C138.703 49.364 141.049 51.71 141.049 54.594V79.199L130.589 83.666V54.593V54.594ZM106.988 97.117L164.65 72.491V120.192H134.149V165.11H106.988V97.118V97.117ZM76.7283 168.21H134.149V235.175H76.7293V168.21H76.7283ZM242.833 248.735H59.0663C56.1823 248.735 53.8363 246.389 53.8363 243.505C53.8363 240.621 56.1823 238.275 59.0663 238.275H242.835C245.719 238.275 248.065 240.621 248.065 243.505C248.065 246.389 245.719 248.735 242.835 248.735H242.833Z" fill="#EBF5F0"/>
<path d="M128.951 143.741H117.439V147.633H128.951V143.741Z" fill="#EBF5F0"/>
<path d="M128.951 129.726H117.439V133.618H128.951V129.726Z" fill="#EBF5F0"/>
<path d="M128.951 115.711H117.439V119.603H128.951V115.711Z" fill="#EBF5F0"/>
<path d="M154.201 101.696H117.439V105.588H154.201V101.696Z" fill="#EBF5F0"/>
<path d="M124.117 220.425H87.001V224.354H124.117V220.425Z" fill="#EBF5F0"/>
<path d="M124.117 207.294H87.001V211.223H124.117V207.294Z" fill="#EBF5F0"/>
<path d="M124.117 194.164H87.001V198.093H124.117V194.164Z" fill="#EBF5F0"/>
<path d="M124.117 181.033H87.001V184.962H124.117V181.033Z" fill="#EBF5F0"/>
<path d="M153.72 227.631H145.05V231.167H153.72V227.631Z" fill="#EBF5F0"/>
<path d="M153.72 214.205H145.05V217.741H153.72V214.205Z" fill="#EBF5F0"/>
<path d="M153.72 200.779H145.05V204.315H153.72V200.779Z" fill="#EBF5F0"/>
<path d="M153.72 187.353H145.05V190.889H153.72V187.353Z" fill="#EBF5F0"/>
<path d="M153.72 173.927H145.05V177.463H153.72V173.927Z" fill="#EBF5F0"/>
<path d="M153.72 160.501H145.05V164.037H153.72V160.501Z" fill="#EBF5F0"/>
<path d="M153.72 147.075H145.05V150.611H153.72V147.075Z" fill="#EBF5F0"/>
<path d="M153.72 133.649H145.05V137.185H153.72V133.649Z" fill="#EBF5F0"/>
<path d="M170.415 227.631H161.745V231.167H170.415V227.631Z" fill="#EBF5F0"/>
<path d="M170.415 214.205H161.745V217.741H170.415V214.205Z" fill="#EBF5F0"/>
<path d="M170.415 200.779H161.745V204.315H170.415V200.779Z" fill="#EBF5F0"/>
<path d="M170.415 187.353H161.745V190.889H170.415V187.353Z" fill="#EBF5F0"/>
<path d="M170.415 173.927H161.745V177.463H170.415V173.927Z" fill="#EBF5F0"/>
<path d="M170.415 160.501H161.745V164.037H170.415V160.501Z" fill="#EBF5F0"/>
<path d="M170.415 147.075H161.745V150.611H170.415V147.075Z" fill="#EBF5F0"/>
<path d="M170.415 133.649H161.745V137.185H170.415V133.649Z" fill="#EBF5F0"/>
<path d="M187.111 227.631H178.441V231.167H187.111V227.631Z" fill="#EBF5F0"/>
<path d="M187.111 214.205H178.441V217.741H187.111V214.205Z" fill="#EBF5F0"/>
<path d="M187.111 200.779H178.441V204.315H187.111V200.779Z" fill="#EBF5F0"/>
<path d="M187.111 187.353H178.441V190.889H187.111V187.353Z" fill="#EBF5F0"/>
<path d="M187.111 173.927H178.441V177.463H187.111V173.927Z" fill="#EBF5F0"/>
<path d="M187.111 160.501H178.441V164.037H187.111V160.501Z" fill="#EBF5F0"/>
<path d="M187.111 147.075H178.441V150.611H187.111V147.075Z" fill="#EBF5F0"/>
<path d="M187.111 133.649H178.441V137.185H187.111V133.649Z" fill="#EBF5F0"/>
</svg>
