<svg width="300" height="300" viewBox="0 0 300 300" fill="none" xmlns="http://www.w3.org/2000/svg">
<path d="M19.6478 180.589L13.8672 186.369L16.0592 188.561L21.8398 182.781L19.6478 180.589Z" fill="#EBF5F0"/>
<path d="M30.3099 169.927L24.5293 175.708L26.7213 177.9L32.5019 172.119L30.3099 169.927Z" fill="#EBF5F0"/>
<path d="M26.7213 180.589L24.5293 182.781L30.3099 188.562L32.5019 186.37L26.7213 180.589Z" fill="#EBF5F0"/>
<path d="M16.0602 169.927L13.8682 172.12L19.6488 177.9L21.8408 175.708L16.0602 169.927Z" fill="#EBF5F0"/>
<path d="M272.756 135.505L266.976 141.285L269.168 143.477L274.948 137.697L272.756 135.505Z" fill="#EBF5F0"/>
<path d="M283.418 124.842L277.638 130.623L279.83 132.815L285.61 127.034L283.418 124.842Z" fill="#EBF5F0"/>
<path d="M279.828 135.501L277.636 137.693L283.416 143.474L285.608 141.282L279.828 135.501Z" fill="#EBF5F0"/>
<path d="M269.166 124.839L266.974 127.031L272.754 132.812L274.946 130.62L269.166 124.839Z" fill="#EBF5F0"/>
<path d="M135.634 20.3918L129.854 26.1724L132.046 28.3644L137.826 22.5838L135.634 20.3918Z" fill="#EBF5F0"/>
<path d="M146.296 9.72941L140.516 15.51L142.708 17.702L148.488 11.9214L146.296 9.72941Z" fill="#EBF5F0"/>
<path d="M142.708 20.3909L140.516 22.5829L146.296 28.3635L148.488 26.1715L142.708 20.3909Z" fill="#EBF5F0"/>
<path d="M132.047 9.72984L129.854 11.9219L135.635 17.7025L137.827 15.5104L132.047 9.72984Z" fill="#EBF5F0"/>
<path d="M78.5687 268.598H75.4688V288.818H78.5687V268.598Z" fill="#EBF5F0"/>
<path d="M87.1292 277.158H66.9092V280.258H87.1292V277.158Z" fill="#EBF5F0"/>
<path d="M268.553 29.004H251.314C250.458 29.004 249.764 28.31 249.764 27.454V10.215C249.764 9.35904 250.458 8.66504 251.314 8.66504H268.553C269.409 8.66504 270.103 9.35904 270.103 10.215V27.454C270.103 28.31 269.409 29.004 268.553 29.004ZM252.864 25.904H267.003V11.765H252.864V25.904Z" fill="#EBF5F0"/>
<path d="M55.1527 37.9161H28.0097C27.4557 37.9161 26.9447 37.6211 26.6677 37.1411C26.3907 36.6611 26.3907 36.0711 26.6677 35.5911L40.2397 12.0851C40.5167 11.6051 41.0287 11.3101 41.5817 11.3101C42.1347 11.3101 42.6467 11.6051 42.9237 12.0851L56.4947 35.5921C56.7717 36.0721 56.7717 36.6621 56.4947 37.1421C56.2177 37.6221 55.7057 37.9171 55.1527 37.9171V37.9161ZM30.6947 34.8161H52.4687L41.5817 15.9591L30.6947 34.8161Z" fill="#EBF5F0"/>
<path d="M274.002 276.647C267.907 276.647 262.948 271.688 262.948 265.593C262.948 259.498 267.907 254.539 274.002 254.539C280.097 254.539 285.056 259.498 285.056 265.593C285.056 271.688 280.097 276.647 274.002 276.647ZM274.002 257.639C269.616 257.639 266.048 261.207 266.048 265.593C266.048 269.979 269.616 273.547 274.002 273.547C278.388 273.547 281.956 269.979 281.956 265.593C281.956 261.207 278.388 257.639 274.002 257.639Z" fill="#EBF5F0"/>
<path d="M247.364 227.637H237.745V125.898H218.103V104.672H156.66V92.586H190.397C193.545 92.586 196.107 90.025 196.107 86.876V86.55C196.107 85.055 195.533 83.641 194.49 82.569L188.275 76.18L194.486 69.808C195.531 68.736 196.107 67.32 196.107 65.823V65.477C196.107 62.329 193.546 59.767 190.397 59.767H156.66V55.038C156.66 51.89 154.099 49.328 150.95 49.328C147.801 49.328 145.24 51.889 145.24 55.038V104.674H83.7965V125.9H64.1545V227.639H51.4355V248.776H250.464V227.639H247.364V227.637ZM148.34 86.876V55.036C148.34 53.595 149.508 52.426 150.95 52.426C152.392 52.426 153.56 53.594 153.56 55.036V62.865H190.397C191.838 62.865 193.007 64.033 193.007 65.475V65.821C193.007 66.502 192.741 67.155 192.266 67.643L183.948 76.177L192.267 84.729C192.741 85.216 193.006 85.869 193.006 86.549V86.875C193.006 88.316 191.838 89.485 190.396 89.485H153.559V104.671H148.339V86.875L148.34 86.876ZM86.8965 107.772H215.002V125.898H86.8965V107.772ZM67.2545 128.998H234.645V227.637H217.822V150.685C217.822 149.908 217.19 149.275 216.412 149.275H196.143C195.366 149.275 194.733 149.908 194.733 150.685V227.637H162.494V150.685C162.494 149.908 161.862 149.275 161.084 149.275H140.815C140.038 149.275 139.405 149.908 139.405 150.685V227.637H107.166V150.685C107.166 149.908 106.534 149.275 105.756 149.275H85.4865C84.7095 149.275 84.0765 149.908 84.0765 150.685V227.637H67.2535V128.998H67.2545ZM214.722 227.637H197.833V152.375H214.722V227.637ZM159.394 227.637H142.505V152.375H159.394V227.637ZM104.066 227.637H87.1765V152.375H104.066V227.637ZM247.363 245.674H54.5355V230.737H247.364V245.674H247.363Z" fill="#EBF5F0"/>
</svg>
