<svg width="48" height="48" viewBox="0 0 48 48" fill="none" xmlns="http://www.w3.org/2000/svg">
<rect width="48" height="48" rx="24" fill="#EBF5F0"/>
<path d="M20.1 33.221C18.7101 31.2375 17.8925 28.8243 17.8925 26.2187C17.8925 22.8443 20.6264 20.1094 23.9987 20.1094C27.3711 20.1094 30.105 22.8443 30.105 26.2187" stroke="#08783D" stroke-width="2" stroke-linecap="round" stroke-linejoin="round"/>
<path d="M20.1001 33.221C18.7102 31.2375 17.8926 28.8243 17.8926 26.2187C17.8926 22.8443 20.6265 20.1094 23.9989 20.1094C27.3712 20.1094 30.1051 22.8443 30.1051 26.2187" stroke="#08783D" stroke-width="2" stroke-linecap="round" stroke-linejoin="round"/>
<path d="M30.436 32.3118C30.326 32.3179 30.2181 32.3281 30.1071 32.3281C26.7348 32.3281 24.0009 29.5931 24.0009 26.2188" stroke="#08783D" stroke-width="2" stroke-linecap="round" stroke-linejoin="round"/>
<path d="M30.4361 32.3118C30.3262 32.3179 30.2182 32.3281 30.1073 32.3281C26.7349 32.3281 24.001 29.5931 24.001 26.2188" stroke="#08783D" stroke-width="2" stroke-linecap="round" stroke-linejoin="round"/>
<path d="M25.2694 33.9999C22.675 32.382 20.9471 29.5024 20.9471 26.2187C20.9471 24.5315 22.3145 23.164 24.0007 23.164C25.6869 23.164 27.0543 24.5315 27.0543 26.2187C27.0543 27.9059 28.4218 29.2733 30.108 29.2733C31.7942 29.2733 33.1616 27.9059 33.1616 26.2187C33.1616 21.1571 29.0602 17.0547 24.0017 17.0547C18.9432 17.0547 14.8418 21.1571 14.8418 26.2187C14.8418 27.3469 14.9681 28.4455 15.2002 29.5045" stroke="#08783D" stroke-width="2" stroke-linecap="round" stroke-linejoin="round"/>
<path d="M25.2694 33.9999C22.675 32.382 20.9471 29.5024 20.9471 26.2187C20.9471 24.5315 22.3145 23.164 24.0007 23.164C25.6869 23.164 27.0543 24.5315 27.0543 26.2187C27.0543 27.9059 28.4218 29.2733 30.108 29.2733C31.7942 29.2733 33.1616 27.9059 33.1616 26.2187C33.1616 21.1571 29.0602 17.0547 24.0017 17.0547C18.9432 17.0547 14.8418 21.1571 14.8418 26.2187C14.8418 27.3469 14.9681 28.4455 15.2002 29.5045" stroke="#08783D" stroke-width="2" stroke-linecap="round" stroke-linejoin="round"/>
<path d="M32.5257 17.8631C30.4435 15.4978 27.399 14 24.0002 14C20.6014 14 17.5569 15.4978 15.4746 17.8631" stroke="#08783D" stroke-width="2" stroke-linecap="round" stroke-linejoin="round"/>
<path d="M32.5257 17.8631C30.4435 15.4978 27.399 14 24.0002 14C20.6014 14 17.5569 15.4978 15.4746 17.8631" stroke="#08783D" stroke-width="2" stroke-linecap="round" stroke-linejoin="round"/>
</svg>
