<svg width="71" height="86" viewBox="0 0 71 86" fill="none" xmlns="http://www.w3.org/2000/svg">
<path d="M27.2763 35.2177C28.4358 36.0874 32.7811 36.5715 34.3909 36.5208C34.7821 36.5096 35.0325 36.3492 35.1873 36.1184C35.3449 36.3492 35.5954 36.5096 35.9838 36.5208C37.5908 36.5687 41.9389 36.0874 43.0984 35.2177C44.2579 34.348 43.2925 32.6564 43.4839 31.7895C43.6781 30.9198 46.0449 28.0208 48.1698 27.9251C50.2946 27.8294 54.1108 29.3746 55.1718 32.9013C56.2356 36.428 55.9457 40.0503 53.2411 41.5477C50.5366 43.045 47.9756 42.2232 47.4943 41.5477C47.0103 40.8722 44.9839 40.92 44.21 41.9333C43.4361 42.9465 40.7315 44.7338 40.7315 45.7977C40.7315 45.8511 40.7315 45.9074 40.7315 45.9609C40.1715 45.6963 39.4989 45.5866 39.1668 46.3324C38.5448 47.7369 37.3797 51.7645 37.6893 53.1212C37.9988 54.4778 39.9914 54.064 40.4276 54.7677C43.3488 59.4821 40.3769 63.3015 37.3628 64.3935C37.3262 63.6645 37.0335 57.7427 37.0757 56.6788C37.1236 55.5389 37.3684 46.5351 37.3712 46.445C37.3769 46.2761 37.436 46.1213 37.5457 45.9947C39.7212 43.4503 41.148 41.7925 41.2437 41.6912C41.3507 41.6208 41.8179 41.4998 42.1302 41.421C42.4257 41.345 42.7325 41.2662 42.9576 41.1846C43.2672 41.072 44.2635 40.3374 46.5234 38.6233C47.559 37.8381 48.6285 37.0275 48.9184 36.853C49.667 36.4054 52.8584 34.6773 53.137 34.5703L53.0188 34.2044L52.9259 33.8301C52.6192 33.9061 48.9718 35.9213 48.5215 36.1915C48.1951 36.3857 47.2044 37.1372 46.059 38.0069C44.8348 38.9357 42.9858 40.3374 42.6959 40.4584C42.5074 40.526 42.2203 40.5991 41.9417 40.6723C41.2831 40.8412 40.9032 40.9453 40.7203 41.1283C40.5683 41.2803 38.5927 43.5854 36.9632 45.4909C36.7408 45.7498 36.6142 46.0819 36.6029 46.4225C36.6029 46.5126 36.3553 55.5107 36.3074 56.6478C36.2596 57.8102 36.5832 64.2359 36.5973 64.5089L37.0954 64.4836C36.465 64.6778 35.8374 64.7538 35.2718 64.6862C34.737 64.6215 34.2136 64.523 33.7098 64.3963H33.7464C33.7549 61.6099 33.8083 54.2048 33.949 53.3998C34.101 52.5245 34.011 48.3871 33.9631 46.6477C33.9547 46.3465 33.859 46.0594 33.6845 45.8145C31.6132 42.9127 30.3073 41.3563 29.7979 41.1818C29.6291 41.1255 29.4602 41.072 29.2801 41.0185C28.7032 40.844 28.0502 40.647 27.1187 40.1432C26.6206 39.8758 25.0108 38.7809 23.3053 37.6213C19.9535 35.3415 17.8793 33.9511 17.3643 33.8301L17.1842 34.5816C17.6373 34.7054 20.7865 36.8445 22.8691 38.2631C24.6646 39.4846 26.2181 40.5372 26.75 40.8271C27.7519 41.3647 28.4724 41.5842 29.055 41.7588C29.2266 41.8094 29.3899 41.8601 29.5418 41.9107C29.8317 42.043 31.0531 43.4588 33.0513 46.2621C33.1357 46.3831 33.1835 46.521 33.1864 46.6674C33.2595 49.4256 33.2989 52.6089 33.1835 53.2647C33.0147 54.2301 32.9753 62.702 32.9697 64.1824C30.6732 63.4253 28.9227 61.942 28.7088 59.6876C28.4302 56.7238 30.0456 54.7733 30.7858 54.6016C31.5259 54.4299 32.2211 52.6174 31.6497 51.5478C31.0784 50.4783 30.555 47.4048 29.6628 47.0023C29.615 46.9798 29.5672 46.9601 29.5193 46.9376C29.6206 46.5829 29.6347 46.1833 29.6347 45.7948C29.6347 44.7309 26.9301 42.9437 26.1562 41.9304C25.3823 40.9172 23.356 40.8665 22.8719 41.5448C22.3879 42.2232 19.8296 43.0422 17.1251 41.5448C14.4205 40.0475 14.1307 36.4251 15.1945 32.8985C16.2583 29.3718 20.0717 27.8266 22.1965 27.9223C24.3213 28.018 26.6881 30.917 26.8823 31.7867C27.0765 32.6564 26.1084 34.348 27.2679 35.2149L27.2763 35.2177Z" fill="white"/>
<path d="M54.8119 49.012C57.432 48.2295 56.8241 45.3108 56.5455 44.3595L54.1055 46.8363C54.4263 46.8814 54.6514 46.9545 54.7077 47.053C54.8062 47.2191 54.8372 47.9987 54.809 49.0148L54.8119 49.012Z" fill="#00A651"/>
<path d="M57.2212 52.2684C58.3357 50.3179 58.6453 47.644 58.6678 42.8002L57.9923 43.1407C58.1499 45.0518 57.9698 46.5492 57.4154 48.3421C57.0552 49.5017 55.7043 50.2138 54.7306 50.5881C54.6095 52.2487 54.3703 54.0219 54.0354 54.7846C53.36 56.3298 56.0645 54.3005 57.224 52.274L57.2212 52.2684Z" fill="#00A651"/>
<path d="M62.0503 39.13C61.9546 37.7762 61.2426 35.9214 60.7782 37.43C60.5024 38.3222 60.0859 39.9884 59.8129 42.226C59.6244 43.7656 59.5005 45.5725 59.5399 47.5962C59.6356 52.5611 58.7153 53.5068 55.7462 55.9808C52.7771 58.4548 52.006 59.1303 52.006 59.1303C52.006 59.1303 53.8438 51.849 53.6496 50.0787C53.5483 49.147 53.2865 48.404 52.8869 48.0775C52.5267 47.782 52.0567 47.8242 51.4798 48.3843C50.2668 49.5664 49.3268 57.101 48.2517 59.2288C47.1767 61.3538 46.1044 63.6224 46.1044 63.6224C46.1044 63.6224 43.9712 68.3368 46.1044 69.578C48.2377 70.822 48.6711 70.9177 53.1402 65.7023C57.6093 60.4869 61.7632 57.1995 62.0531 52.6596C62.343 48.1197 62.1488 40.4866 62.0531 39.1356L62.0503 39.13Z" fill="#00A651"/>
<path d="M15.2652 49.0119C15.2371 47.9959 15.2652 47.2162 15.3665 47.0502C15.4256 46.9545 15.648 46.8813 15.9688 46.8334L13.5288 44.3566C13.253 45.308 12.6423 48.2267 15.2624 49.0091L15.2652 49.0119Z" fill="white"/>
<path d="M16.0415 54.779C15.7066 54.0163 15.4674 52.2431 15.3463 50.5825C14.3726 50.2082 13.0217 49.4961 12.6615 48.3365C12.1043 46.5464 11.927 45.0462 12.0846 43.1351L11.4091 41.7982C11.4316 46.6421 11.7412 50.3123 12.8557 52.2628C14.0152 54.2921 16.7197 56.3214 16.0443 54.7734L16.0415 54.779Z" fill="white"/>
<path d="M23.9727 69.5724C26.1059 68.3283 23.9727 63.6167 23.9727 63.6167C23.9727 63.6167 22.9004 61.351 21.8254 59.2232C20.7503 57.0982 19.8103 49.5636 18.5973 48.3787C18.0232 47.8186 17.5504 47.7764 17.1902 48.0719C16.7906 48.3984 16.5316 49.1442 16.4275 50.073C16.2333 51.8406 18.0711 59.1247 18.0711 59.1247C18.0711 59.1247 17.2971 58.4492 14.3309 55.9752C11.3618 53.5012 10.4415 52.5555 10.5372 47.5906C10.5766 45.5669 10.4555 43.76 10.2642 42.2204C9.98837 39.9828 9.57467 38.3194 9.29887 37.4244C8.8345 35.9158 8.12248 37.7734 8.0268 39.1244C7.93111 40.4782 7.73692 48.1085 8.0268 52.6484C8.31667 57.1883 12.4706 60.4729 16.9397 65.6911C21.4088 70.9093 21.8394 70.8108 23.9755 69.5667L23.9727 69.5724Z" fill="#00A651"/>
<path d="M20.7728 21.7078C20.7728 21.7078 21.0937 21.6431 21.482 21.2237C21.8676 20.8043 24.7354 15.8451 25.2504 14.784C25.7654 13.7201 26.3761 13.9143 26.3761 13.9143L26.5056 14.3646C26.635 15.8788 24.9605 18.1643 24.1219 18.9692C23.286 19.7742 24.1219 20.385 24.1219 20.385C24.1219 20.385 24.5412 20.1598 25.636 18.7413C26.7307 17.3255 27.1163 14.7812 27.1163 14.7812L27.5356 14.2661H28.1801C28.2082 14.3393 28.2505 14.4321 28.3067 14.556C28.7261 15.4567 27.6623 17.6154 27.0825 18.5808C26.5028 19.5462 27.0825 19.58 27.0825 19.58C29.2129 18.0658 29.1116 14.0409 28.9174 13.6553C28.7233 13.2697 27.8874 13.4949 27.5018 13.3345C27.1163 13.174 27.5018 12.4 27.5018 12.4C27.5018 12.4 29.1116 11.9807 29.0469 12.2058C28.9822 12.431 29.3058 12.9151 29.9109 13.205C30.5188 13.4949 31.5573 13.236 31.5573 13.236L31.653 13.8158L31.9738 14.0409C32.0385 18.0658 33.2937 18.3894 34.5489 19.58C35.8041 20.7706 37.3491 21.0295 37.3491 21.0295C36.8988 22.1891 37.4138 24.1537 37.4138 24.1537C37.4138 24.1537 38.2187 24.5083 38.8632 23.9285C39.5077 23.3487 39.2178 21.0295 39.2178 20.9028C39.2178 20.7762 38.7028 21.7388 38.7028 21.7388L38.3482 20.9028C37.9936 20.0669 37.6418 18.6821 37.6418 18.6821C37.6418 18.6821 37.2562 17.683 38.0274 18.457C38.8013 19.231 38.8632 19.2619 39.0912 18.7778C39.3163 18.2937 38.897 16.7823 38.897 16.7823C38.897 16.7823 38.866 16.5881 39.1221 16.6866C39.381 16.7823 39.958 17.272 39.958 17.272C39.958 17.272 40.0874 16.5234 40.3126 16.6528C40.5377 16.7823 40.5715 17.0384 40.8276 17.7477C41.0865 18.457 41.5368 18.1023 41.5368 18.1023C41.5368 18.1023 41.4411 17.6182 41.5678 16.8133C41.6972 16.0083 42.2432 16.6191 42.2432 16.6191C42.4036 18.2937 43.822 19.7742 43.822 19.7742C44.4665 18.7103 42.8567 15.4904 42.8567 15.4904C42.8567 15.4904 42.4712 15.33 41.6015 15.33C40.7319 15.33 38.897 15.6509 38.897 15.6509C38.897 15.6509 38.382 15.5861 37.5433 14.556C36.7075 13.5259 37.093 13.0418 37.093 13.0418C37.093 13.0418 37.4476 13.0108 37.8022 13.1065C38.1568 13.2022 38.6718 14.2323 39.381 14.6855C40.0903 15.1358 41.0246 14.4603 41.6663 13.751C42.3079 13.0418 42.3107 11.4009 42.3107 11.4009C42.2713 10.7732 42.2319 10.1427 42.1954 9.51509C42.17 9.10417 42.488 8.74953 42.8989 8.74109C43.3098 8.73264 43.7742 8.75798 44.2751 8.84241C45.8315 9.10135 46.9544 9.79655 47.5594 10.2441C47.3062 9.8444 45.2236 7.79821 43.02 6.92851C42.2094 6.60764 41.5678 7.12553 41.1709 7.60963C40.8867 7.95864 40.7769 8.42023 40.8642 8.86211C41.2216 10.6466 41.0837 12.0398 40.7347 12.5633C40.3492 13.1431 38.866 12.9489 38.866 12.9489C37.9007 12.2396 37.5123 9.08447 37.5123 7.86013C37.5123 6.63579 36.7806 5.67321 35.1286 5.73513C33.4766 5.79705 32.9391 7.0242 32.9391 7.0242C32.9391 7.0242 33.5836 7.28314 34.3547 8.31327C35.1286 9.34341 34.6755 12.5633 34.6755 12.5633L34.29 12.4338C34.29 12.4338 34.031 12.9489 32.9363 12.9489C31.8415 12.9489 30.4259 11.7893 30.4259 10.0499C30.4259 8.31046 30.001 7.03546 29.9109 7.0242C28.0422 6.7343 26.5309 8.69887 25.3714 9.05351C24.2119 9.40814 24.0825 10.0527 24.0825 10.0527C25.5628 10.4073 26.6266 9.40814 27.7861 8.63695C28.9456 7.86576 29.075 8.34705 29.075 8.34705C29.2692 9.70086 28.7542 10.5058 28.7542 10.5058C27.8199 10.3454 28.0788 9.70086 28.0788 9.70086C28.0788 9.70086 27.2739 9.83033 26.2438 10.731C25.2138 11.6317 23.6997 11.6964 23.6997 11.6964C23.7307 12.6956 24.8254 12.4057 24.8254 12.4057L24.5046 13.0502C23.8601 12.9207 23.635 13.4048 23.635 13.4048C23.8939 14.0494 24.8254 13.8242 24.8254 13.8242L24.7298 14.2098C23.6659 14.8543 21.4145 19.3633 20.77 20.4581C20.1255 21.553 20.77 21.7134 20.77 21.7134L20.7728 21.7078Z" fill="#00A651"/>
<path d="M30.6254 17.5366C30.8984 18.26 31.2699 18.0996 31.2699 18.0996C31.2699 18.0996 31.5907 16.5853 31.2699 15.6199C30.9491 14.6545 30.8506 14.5251 30.8506 14.5251C30.8506 14.5251 30.1751 14.2352 29.8853 14.8459C29.5954 15.4567 28.8552 17.8097 28.9199 18.3247L28.9847 18.8398C28.9847 18.8398 30.026 18.5471 30.1639 16.6472C30.3046 14.7502 30.6254 15.9717 30.6254 15.9717C30.6254 15.9717 30.4059 16.954 30.6254 17.5338V17.5366Z" fill="#00A651"/>
<path d="M44.2442 13.8495C44.7592 13.5286 45.0969 14.0747 45.0969 14.0747C45.2742 13.72 44.8239 13.205 44.8239 13.205C44.8239 13.205 45.1785 12.8194 45.7583 13.3344C46.338 13.8495 46.7911 13.8185 46.7911 13.8185C46.4731 13.5286 46.1748 12.1439 46.1748 12.1439C46.5181 12.0482 46.8615 11.9497 47.2048 11.854C46.4478 10.5058 45.6626 10.0498 45.0631 9.88941C44.3033 9.68394 42.9862 9.72898 42.9862 9.72898C42.9608 9.99917 42.9355 10.396 42.9693 10.8717C43.0115 11.4627 43.1128 11.8286 43.1775 12.1748C43.2676 12.6674 43.3295 13.3767 43.1775 14.2998C43.1775 14.2998 43.7235 14.1704 44.2413 13.8495H44.2442Z" fill="#00A651"/>
<path d="M46.5322 20.6777C46.5322 20.6777 47.1119 20.4525 46.307 19.0678C45.5021 17.683 45.1447 16.878 44.9674 15.8479C44.7929 14.8178 43.8895 15.2034 43.8895 15.2034C43.8895 15.2034 44.1794 19.1635 46.5294 20.6777H46.5322Z" fill="#00A651"/>
<path d="M46.307 15.2681C46.307 15.2681 46.1129 18.3922 48.0773 19.9684C50.0416 21.5474 50.2021 21.7078 50.2021 21.7078C50.2021 21.7078 50.1373 20.9028 48.9778 19.003C47.8183 17.1032 47.1739 15.6874 46.3042 15.2681H46.307Z" fill="#00A651"/>
<path d="M35.4213 23.9932C35.8068 23.9285 35.8068 21.5783 35.8068 21.5783C35.8068 21.5783 35.0667 21.674 34.5826 21.0942C34.0985 20.5144 33.4878 20.4835 33.3584 20.9C33.2289 21.3166 31.9428 23.6696 33.7777 24.7335C33.7777 24.7335 34.4222 24.2831 35.0019 24.7335C35.0019 24.7335 35.0329 24.058 35.4213 23.9932Z" fill="#00A651"/>
<path d="M40.799 22.8364C40.5401 23.4472 41.0579 24.0917 41.0579 24.0917H41.6686C41.6686 24.0917 41.6686 23.6076 42.2484 23.7061C42.8281 23.8046 43.3431 23.5766 43.3431 23.5766C43.3431 23.5766 43.1827 23.5119 42.7268 22.9968C42.2709 22.4818 41.5926 22.2819 41.6686 22.3861C42.0232 22.8702 41.7643 23.2389 41.7643 23.2389L40.799 22.8364Z" fill="#00A651"/>
<path d="M38.6437 28.5022C38.6747 28.4909 38.655 28.4684 38.6043 28.4402C38.6099 28.4909 38.6184 28.5106 38.6437 28.5022Z" fill="#00A651"/>
<path d="M37.6446 25.6032C37.6446 25.6032 37.4195 25.4427 37.3857 26.5376C37.3547 27.6325 37.0001 28.1166 37.0001 28.1166C37.0001 28.1166 37.3547 28.3108 37.8697 28.3108C38.2215 28.3108 38.4917 28.3839 38.6015 28.443C38.5902 28.308 38.6127 27.9364 38.4495 27.1202C38.2243 25.9944 37.6446 25.606 37.6446 25.606V25.6032Z" fill="#00A651"/>
<path d="M35.4213 27.472C35.4213 27.472 36.0968 27.5368 36.3557 27.0499C36.6146 26.5629 36.3557 25.5947 36.3557 25.5947C36.3557 25.5947 36.0658 25.7974 35.4213 25.9888C34.7768 26.183 35.1315 27.472 35.1315 27.472H35.4213Z" fill="#00A651"/>
<path d="M33.4594 27.0499C33.1386 27.8267 32.8036 28.0828 32.8036 28.0828C32.8036 28.0828 33.4594 28.5022 34.0391 28.0828C34.6189 27.6634 34.3065 27.275 34.3065 27.275V26.2815C34.2305 26.2815 33.7802 26.2759 33.4594 27.0527V27.0499Z" fill="#00A651"/>
<path d="M15.299 73.9068C15.299 73.9068 17.9838 72.1252 20.2184 71.3625C19.4895 70.4168 18.0654 69.7722 16.4247 69.7722C14.0466 69.7722 12.1104 71.126 12.1104 72.7894C12.1104 73.5634 13.343 74.9229 15.299 73.9068Z" fill="#00A651"/>
<path d="M54.8875 74.9228C51.4906 72.9076 46.0702 70.5096 38.1029 70.1015C38.1001 70.124 38.0945 70.1437 38.0917 70.1662C37.2277 70.1043 36.3524 70.0592 35.4575 70.0424C35.3646 70.0424 35.2717 70.0424 35.176 70.0424C35.0803 70.0424 34.9903 70.0424 34.8946 70.0424C33.9968 70.0592 33.1216 70.1015 32.2604 70.1662C32.2604 70.1437 32.252 70.124 32.2491 70.1015C24.2818 70.5068 18.8615 72.9076 15.4646 74.9228C14.0406 75.7672 13.337 75.1621 13.3398 75.1649L16.4834 78.9955C17.2601 79.7695 18.4759 79.8708 19.3709 79.2404C23.0295 76.6735 28.5624 75.0354 34.7483 75.0354C34.8918 75.0354 35.0325 75.0438 35.1732 75.0438C35.3167 75.0438 35.4546 75.0354 35.5982 75.0354C41.784 75.0354 47.317 76.6735 50.9756 79.2404C51.8733 79.868 53.0863 79.7667 53.863 78.9955L57.0066 75.1649C57.0066 75.1649 56.3059 75.77 54.8818 74.9228H54.8875Z" fill="#00A651"/>
<path d="M53.9313 69.7722C52.2906 69.7722 50.8665 70.4168 50.1376 71.3625C52.375 72.128 55.0599 73.9096 55.0571 73.9068C57.013 74.9201 58.2457 73.5634 58.2457 72.7894C58.2457 71.126 56.3094 69.7722 53.9313 69.7722Z" fill="#00A651"/>
<path d="M35.2488 7.05518C35.527 7.05518 35.7526 6.93295 35.7526 6.78217C35.7526 6.63139 35.527 6.50916 35.2488 6.50916C34.9706 6.50916 34.7451 6.63139 34.7451 6.78217C34.7451 6.93295 34.9706 7.05518 35.2488 7.05518Z" fill="black"/>
<path d="M36.9263 64.979L33.4478 64.5089L33.5941 46.4732C32.2967 44.3482 29.958 41.0664 27.4674 40.5795C25.2469 40.146 18.6783 34.9025 17.8593 34.2973L19.7168 31.7839C22.6999 33.9877 24.4167 36.0874 29.4205 38.0435C30.974 38.6515 33.4759 41.0185 35.0801 42.5187C37.4638 40.5795 38.1617 39.3664 39.6139 39.0821C40.6693 38.7331 47.0128 35.0122 51.2427 32.0795L52.9932 34.3311C48.5269 36.1212 42.932 40.5569 41.2603 41.5111C40.6158 41.7954 38.7105 44.2553 36.991 46.2367L36.9235 64.9818L36.9263 64.979ZM40.6186 38.0914C40.6186 38.0914 40.5961 38.0942 40.5849 38.097C40.5961 38.097 40.6074 38.0942 40.6186 38.0914Z" fill="#00AEEF"/>
<path d="M54.2265 47.5934C54.2265 47.5934 55.2818 47.6497 55.8644 45.854C56.447 44.0583 53.6777 46.7237 53.6777 46.7237L54.2265 47.5934Z" fill="#231F20"/>
<path d="M62.2441 35.6484C61.8107 35.184 61.2872 35.1586 60.775 35.5076C60.775 35.0066 60.7413 34.5056 60.6765 34.0075C60.2516 30.7313 58.0114 26.2618 54.0179 24.3535C54.0122 24.3197 53.9982 24.2831 53.9644 24.2522C53.9025 24.1902 53.8546 24.1283 53.8124 24.0551C53.7927 24.0214 53.7674 24.0017 53.7393 23.9848C53.7336 23.9707 53.7308 23.9595 53.7224 23.9454C53.6661 23.8638 53.5929 23.799 53.5141 23.7484C53.4691 23.6977 53.4212 23.6498 53.3678 23.6076C53.5366 23.6442 53.7055 23.678 53.8856 23.7202C52.7571 22.6732 51.5047 21.356 50.272 19.7376C49.2955 18.457 48.5103 17.2242 47.8799 16.104C48.4596 16.4248 50.1989 16.4248 50.1989 16.4248C49.1688 15.6508 48.7185 13.6553 48.7185 13.6553C49.4277 13.9762 50.1989 13.7848 50.1989 13.7848C49.4897 13.0108 49.1041 11.595 49.1041 11.595C49.878 11.6598 49.878 11.2742 49.878 11.2742C49.363 10.9533 45.6284 7.60399 43.4389 6.50912C42.0514 5.81674 41.0917 6.74273 40.5739 7.51674C40.2784 7.95862 40.1968 8.51028 40.3628 9.0169C40.7062 10.0667 41.1649 12.0426 39.8985 12.3719C38.1592 12.8222 37.9031 9.7318 37.9679 8.05713C38.0326 6.38247 37.0026 5.2876 35.1339 5.2876C33.2652 5.2876 31.9143 7.54207 31.9143 7.54207C31.9143 7.54207 33.2032 7.73627 33.5888 7.9924C33.9744 8.25134 34.8778 10.3116 33.9096 11.5979C32.9443 12.8869 31.7848 11.6626 31.2698 11.0828C30.7548 10.503 31.2051 7.08892 30.5606 6.38247C29.9161 5.67319 26.1168 7.34786 24.3776 8.83114C22.6383 10.3116 20.5782 10.5705 20.5782 10.5705C20.5782 11.4065 21.673 11.3446 21.673 11.3446C21.4141 12.2452 20.643 13.2753 20.643 13.2753L21.673 13.5962C21.7377 14.7558 20.7077 15.6565 20.7077 15.6565H21.8672C21.6336 16.5909 21.2874 17.6604 20.764 18.8003C19.748 21.0126 18.4562 22.6366 17.4234 23.723C17.6711 23.7287 17.9018 23.723 18.1213 23.7118C13.0106 24.9811 10.1765 30.2782 9.6953 34.0131C9.61931 34.5957 9.59399 35.1811 9.60243 35.7666C9.00017 35.1699 8.35287 35.0967 7.83223 35.654C6.47854 37.1063 6.09298 53.5068 7.83223 55.9808C9.35195 58.1452 15.4365 66.1217 17.9806 68.7899C17.4881 68.6773 16.9675 68.6182 16.4271 68.6182C13.4102 68.6182 10.9533 70.4927 10.9533 72.795C10.9533 72.8992 10.9617 73.0005 10.973 73.1018C11.0265 73.6422 11.2122 74.1545 11.5105 74.6161L11.5133 74.6245C11.6512 74.8384 11.8145 75.0439 11.9974 75.2353L15.5153 79.6654C16.7508 80.8954 18.687 81.0699 20.1223 80.0763C23.1843 77.9739 27.7013 76.5469 32.8205 76.2542C32.8205 76.2739 32.8205 76.2936 32.8149 76.3133C33.5888 76.2485 34.3796 76.2148 35.1789 76.2063C35.9781 76.2176 36.769 76.2513 37.5429 76.3133C37.5429 76.2936 37.5429 76.2739 37.5373 76.2542C42.6565 76.5441 47.1707 77.9739 50.2354 80.0763C51.6679 81.0671 53.607 80.8954 54.8425 79.6654L58.3604 75.2353C58.5433 75.0439 58.7065 74.8384 58.8444 74.6245H58.8472V74.6161C59.1456 74.1517 59.3313 73.6422 59.3848 73.1018C59.3932 73.0005 59.4045 72.8992 59.4045 72.795C59.4045 70.4927 56.9476 68.6182 53.9306 68.6182C53.2524 68.6182 52.6023 68.7139 52.0028 68.8856C54.4851 66.3244 60.7019 58.1734 62.2441 55.9808C63.9834 53.5068 63.5978 37.1035 62.2441 35.654V35.6484ZM58.5067 29.6618C59.6043 31.0944 60.1925 33.5965 60.0799 36.2366C59.3369 37.3118 58.7403 39.2369 58.6756 41.7785C58.4617 42.1725 58.2309 42.5441 57.9748 42.8931C57.7806 40.8694 56.4494 44.0555 56.4494 44.0555C56.4494 44.0555 56.4917 44.1681 56.5479 44.3595C56.5564 44.3876 56.5648 44.4214 56.5733 44.4523C55.4081 45.5191 54.1023 46.2762 52.971 46.78C51.7889 46.8025 50.3818 47.0417 49.9906 47.5652C47.5928 47.7088 44.134 47.2162 43.0027 47.098C42.6115 47.0586 42.3469 46.9911 42.164 46.8982L41.9726 46.7715C41.7109 46.5323 41.7559 46.1833 41.6968 45.7442C41.6011 45.0209 44.8854 42.3639 44.8854 42.3639L45.8507 41.832C45.8507 41.832 49.8049 44.5931 53.2411 42.4118C56.6746 40.2305 56.7675 37.0979 55.85 33.0899C54.9325 29.082 50.8546 27.5959 50.6351 27.472C49.197 26.6811 47.5928 27.0498 45.5637 28.2657C43.5346 29.4816 42.9548 31.3955 43.0027 32.2652C43.0505 33.1349 42.7606 34.4381 42.133 34.7758C41.5055 35.1136 37.8356 35.8397 36.3524 35.9354C35.7558 35.9748 35.4997 35.7469 35.4125 35.4007C35.4322 35.1671 35.4237 34.9278 35.3984 34.7139C35.4491 34.3227 35.5616 33.9033 35.6151 33.5684C35.7586 32.6508 38.9472 29.7518 40.9764 27.4692C43.0055 25.1866 45.3723 23.329 49.8921 23.7624C54.4119 24.1959 56.7703 27.3848 58.5095 29.6561L58.5067 29.6618ZM54.7102 47.0502C54.6652 46.977 54.5216 46.9179 54.3134 46.8729C55.0113 46.507 55.7234 46.0229 56.4297 45.3614C56.5282 45.2686 56.6183 45.1729 56.714 45.0772C56.9391 46.3325 56.9391 48.3758 54.8115 49.0119C54.8397 47.9959 54.8115 47.2162 54.7102 47.0502ZM54.7299 50.5825C55.7037 50.2081 57.0545 49.496 57.4147 48.3364C57.927 46.6899 58.1155 45.2854 58.0198 43.5854C58.2506 43.2787 58.4645 42.9606 58.6671 42.6398C58.6671 42.6932 58.6671 42.7467 58.6671 42.7974C58.6446 47.6412 58.335 50.3151 57.2206 52.2656C56.0611 54.2949 53.3565 56.3242 54.032 54.7762C54.3669 54.0134 54.6061 52.2402 54.7271 50.5797L54.7299 50.5825ZM46.498 57.6667C46.2166 56.3411 45.5299 54.3624 44.8151 52.4851C44.9755 52.4739 45.1331 52.3922 45.24 52.2121C45.983 50.9596 46.7964 49.7578 47.6829 48.6038C47.8348 48.4068 47.8208 48.2126 47.7251 48.0634C48.0093 48.0522 48.2739 48.0381 48.5075 48.0156C48.8649 47.9818 49.3264 47.979 49.864 47.9565C49.6444 49.527 47.5619 57.6273 47.5619 57.6273C47.2157 58.224 46.9033 58.801 46.6162 59.3611C46.6472 58.8095 46.6191 58.2409 46.498 57.6696V57.6667ZM22.6496 48.6348C23.1646 49.0457 23.3053 49.7015 23.6684 50.2278C24.0933 50.8414 24.6815 51.2214 24.9686 51.9447C25.0305 52.0995 25.1374 52.2037 25.2613 52.2656C25.1599 52.5414 25.0642 52.806 24.9939 53.0368C24.5746 54.4159 23.0211 57.1573 24.3607 61.0555C25.6975 64.9537 28.7116 68.0412 32.3505 69.1333C32.4012 69.1474 32.4518 69.1614 32.5025 69.1755C30.2651 69.2712 28.115 69.502 26.0802 69.8651C26.3954 69.184 26.6178 64.6975 22.5145 57.6301C22.5145 57.6301 20.4178 49.4707 20.2096 47.9424C20.8737 47.979 21.4422 47.9762 21.8644 48.0184C22.0558 48.0381 22.2696 48.0494 22.4976 48.0606C22.4104 48.2464 22.4329 48.4659 22.6496 48.6376V48.6348ZM23.7331 48.0803C24.811 48.0803 26.0155 48.0409 27.0399 48.024C26.674 48.905 26.1872 49.9914 25.7622 51.0075C25.4583 50.529 25.0811 50.1547 24.6956 49.6734C24.2931 49.1724 24.1412 48.5588 23.7359 48.0803H23.7331ZM44.0243 69.8229C42.2625 69.5189 40.4163 69.3134 38.5054 69.2065C40.7737 68.6379 42.9689 67.3601 44.3929 65.0606C43.7991 67.3967 43.8723 69.122 44.0243 69.8229ZM44.8404 63.4788C42.8423 67.3123 39.3131 68.1848 36.7802 68.8603C34.2473 69.5358 29.9302 68.0609 27.1891 65.1732C24.4479 62.2826 24.2509 58.0186 24.4845 55.9217C24.5886 54.976 25.1374 53.6138 25.7678 52.2965C26.0267 52.2093 26.2125 51.9729 26.0858 51.6436C26.7613 50.2926 27.4536 49.0739 27.7519 48.5138C27.8673 48.2942 27.9742 48.1282 28.0756 48.0043C28.4555 47.9734 28.7426 47.8805 28.9593 47.7397C29.0803 47.7792 29.2125 47.8326 29.3589 47.8749C30.0005 48.0662 31.0447 51.9813 31.0447 51.9813L31.1403 53.0368C31.1403 53.0368 27.3917 55.4854 27.9827 59.3527C28.5737 63.2227 31.1235 64.7792 34.8637 65.207C41.2325 65.9359 42.5496 59.9212 42.2625 57.6639C41.9754 55.4066 40.9454 54.4412 40.1968 54.1542C39.451 53.8671 38.4604 53.1128 38.4041 52.4288C38.3478 51.7449 39.0654 48.221 39.5214 46.8729C39.7859 46.0904 40.2615 46.1411 40.754 46.4113C40.8272 47.2219 41.1396 47.9424 42.3863 48.0071C43.1068 49.4229 44.058 52.1643 44.9558 54.1823C45.8789 56.2595 46.5037 58.4239 45.786 61.0949C45.4286 61.9027 45.1359 62.6598 44.8967 63.3662C44.877 63.4028 44.8629 63.4394 44.8432 63.4788H44.8404ZM27.2735 35.2149C28.433 36.0846 32.7783 36.5687 34.3881 36.5181C34.7792 36.5068 35.0297 36.3464 35.1845 36.1156C35.3421 36.3464 35.5926 36.5068 35.981 36.5181C37.5879 36.5659 41.936 36.0846 43.0955 35.2149C44.255 34.3452 43.2897 32.6537 43.4811 31.7868C43.6753 30.9171 46.0421 28.0181 48.1669 27.9224C50.2917 27.8267 54.1079 29.3719 55.1689 32.8985C56.2327 36.4252 55.9429 40.0475 53.2383 41.5449C50.5338 43.0422 47.9727 42.2204 47.4915 41.5449C47.0074 40.8694 44.9811 40.9172 44.2072 41.9305C43.4333 42.9437 40.7287 44.731 40.7287 45.7949C40.7287 45.8484 40.7287 45.9046 40.7287 45.9581C40.1687 45.6936 39.496 45.5838 39.1639 46.3297C38.542 47.7341 37.3769 51.7618 37.6864 53.1184C37.996 54.475 39.9885 54.0613 40.4248 54.7649C43.346 59.4793 40.3741 63.2987 37.36 64.3907C37.3234 63.6618 37.0307 57.7399 37.0729 56.676C37.1208 55.5361 37.3656 46.5323 37.3684 46.4422C37.374 46.2734 37.4331 46.1186 37.5429 45.9919C39.7184 43.4475 41.1452 41.7897 41.2409 41.6884C41.3478 41.6181 41.815 41.497 42.1274 41.4182C42.4229 41.3422 42.7297 41.2634 42.9548 41.1818C43.2644 41.0692 44.2607 40.3346 46.5206 38.6205C47.5562 37.8353 48.6257 37.0247 48.9155 36.8502C49.6641 36.4027 52.8556 34.6745 53.1342 34.5676L53.016 34.2017L52.9231 33.8273C52.6164 33.9033 48.969 35.9186 48.5187 36.1888C48.1923 36.383 47.2016 37.1345 46.0562 38.0042C44.832 38.933 42.983 40.3346 42.6931 40.4556C42.5045 40.5232 42.2175 40.5964 41.9389 40.6696C41.2803 40.8384 40.9004 40.9426 40.7174 41.1255C40.5655 41.2775 38.5898 43.5826 36.9603 45.4881C36.738 45.747 36.6114 46.0792 36.6001 46.4197C36.6001 46.5098 36.3524 55.508 36.3046 56.645C36.2568 57.8075 36.5804 64.2331 36.5945 64.5061L37.0926 64.4808C36.4622 64.675 35.8346 64.751 35.2689 64.6835C34.7342 64.6187 34.2108 64.5202 33.707 64.3936H33.7436C33.752 61.6071 33.8055 54.202 33.9462 53.397C34.0982 52.5217 34.0081 48.3843 33.9603 46.6449C33.9518 46.3437 33.8562 46.0566 33.6817 45.8118C31.6103 42.91 30.3045 41.3535 29.7951 41.179C29.6262 41.1227 29.4574 41.0692 29.2773 41.0157C28.7003 40.8412 28.0474 40.6442 27.1159 40.1404C26.6177 39.873 25.008 38.7782 23.3025 37.6186C19.9506 35.3388 17.8765 33.9484 17.3615 33.8273L17.1814 34.5788C17.6345 34.7027 20.7837 36.8417 22.8663 38.2603C24.6618 39.4818 26.2153 40.5345 26.7472 40.8244C27.7491 41.3619 28.4696 41.5815 29.0521 41.756C29.2238 41.8066 29.387 41.8573 29.539 41.908C29.8289 42.0402 31.0503 43.456 33.0484 46.2593C33.1329 46.3803 33.1807 46.5182 33.1835 46.6646C33.2567 49.4229 33.2961 52.6061 33.1807 53.2619C33.0119 54.2273 32.9725 62.6992 32.9668 64.1796C30.6704 63.4225 28.9199 61.9393 28.706 59.6848C28.4274 56.721 30.0428 54.7705 30.7829 54.5989C31.5231 54.4272 32.2182 52.6146 31.6469 51.545C31.0756 50.4755 30.5522 47.402 29.66 46.9995C29.6122 46.977 29.5643 46.9573 29.5165 46.9348C29.6178 46.5801 29.6319 46.1805 29.6319 45.7921C29.6319 44.7282 26.9273 42.9409 26.1534 41.9277C25.3795 40.9144 23.3532 40.8638 22.8691 41.5421C22.385 42.2204 19.8268 43.0394 17.1223 41.5421C14.4177 40.0447 14.1278 36.4224 15.1916 32.8957C16.2555 29.3691 20.0688 27.8239 22.1937 27.9195C24.3185 28.0152 26.6853 30.9143 26.8795 31.784C27.0737 32.6537 26.1055 34.3452 27.265 35.2121L27.2735 35.2149ZM35.4209 23.9932C35.0354 24.058 35.0016 24.7335 35.0016 24.7335C34.4218 24.2831 33.7774 24.7335 33.7774 24.7335C31.9424 23.6695 33.2314 21.3194 33.358 20.9C33.4847 20.4806 34.0982 20.5144 34.5822 21.0942C35.0663 21.674 35.8065 21.5783 35.8065 21.5783C35.8065 21.5783 35.8065 23.9285 35.4209 23.9932ZM36.3553 25.5947C36.3553 25.5947 36.6142 26.5629 36.3553 27.0498C36.0963 27.5368 35.4209 27.472 35.4209 27.472H35.131C35.131 27.472 34.7764 26.183 35.4209 25.9916C36.0654 25.7974 36.3553 25.5975 36.3553 25.5975V25.5947ZM33.4565 27.0498C33.7774 26.273 34.2305 26.2787 34.3036 26.2787V27.2722C34.3036 27.2722 34.616 27.6634 34.0363 28.08C33.4565 28.4994 32.8008 28.08 32.8008 28.08C32.8008 28.08 33.1357 27.821 33.4565 27.047V27.0498ZM38.4885 29.2537C36.7408 31.0522 35.3365 32.6086 35.3365 32.6086L35.1845 33.5684L35.0325 32.6086C35.0325 32.6086 33.4425 30.8439 31.5343 28.899L31.8439 29.1748L38.4857 29.2537H38.4885ZM36.9997 28.1166C36.9997 28.1166 37.3543 27.6325 37.3853 26.5376C37.4163 25.4427 37.6442 25.6032 37.6442 25.6032C37.6442 25.6032 38.224 25.9888 38.4491 27.1174C38.6123 27.9336 38.5898 28.308 38.6011 28.4402C38.6517 28.4684 38.6714 28.4909 38.6405 28.5022C38.6152 28.5106 38.6039 28.4909 38.6011 28.4402C38.4913 28.3811 38.2183 28.308 37.8694 28.308C37.3543 28.308 36.9997 28.1138 36.9997 28.1138V28.1166ZM43.0167 48.0212C44.1031 48.0325 45.4483 48.0803 46.6388 48.0831C45.8282 49.1414 45.0796 50.2419 44.3901 51.3846C43.8498 50.0083 43.3348 48.7755 43.0167 48.0212ZM41.6687 22.3861C41.5927 22.282 42.2738 22.4818 42.7269 22.9969C43.1828 23.5119 43.3432 23.5767 43.3432 23.5767C43.3432 23.5767 42.8282 23.8018 42.2484 23.7061C41.6687 23.6104 41.6687 24.0917 41.6687 24.0917H41.058C41.058 24.0917 40.543 23.4472 40.7991 22.8364L41.7644 23.2389C41.7644 23.2389 42.0233 22.8674 41.6687 22.3861ZM41.1199 24.8826C42.1499 24.9643 42.6649 24.0946 42.6649 24.0946C43.8892 24.0946 44.5956 23.5654 44.5956 23.5654C44.5956 23.5654 40.5373 20.8747 40.1518 19.898C39.7662 18.9242 41.4407 19.2535 41.4407 19.2535L41.6349 19.7686L42.7944 20.202L43.0533 20.5426L44.9839 20.6551L47.1087 23.1854C47.1087 23.1854 47.12 23.1854 47.1397 23.1854C47.1453 23.2023 47.1566 23.2192 47.1678 23.2361C46.0112 23.3571 44.7278 23.6977 43.6274 24.4942C42.558 25.2682 41.0974 26.6333 39.7015 28.0237C39.6959 28.0181 39.2512 27.624 38.9951 26.3349C38.7362 25.0374 39.1245 25.378 39.8957 25.3386C40.6696 25.302 41.1199 24.877 41.1199 24.877V24.8826ZM43.18 12.1777C43.1152 11.8287 43.0111 11.4656 42.9717 10.8745C42.9379 10.396 42.9605 10.002 42.9886 9.7318C42.9886 9.7318 44.3057 9.68677 45.0656 9.89223C45.6622 10.0527 46.4502 10.5114 47.2072 11.8568C46.8639 11.9525 46.5206 12.051 46.1772 12.1467C46.1772 12.1467 46.4727 13.5315 46.7935 13.8214C46.7935 13.8214 46.3404 13.8523 45.7607 13.3373C45.1809 12.8222 44.8263 13.2078 44.8263 13.2078C44.8263 13.2078 45.2766 13.7229 45.0993 14.0775C45.0993 14.0775 44.7616 13.5315 44.2466 13.8523C43.7316 14.1732 43.1828 14.3027 43.1828 14.3027C43.3348 13.3795 43.2728 12.6702 43.1828 12.1777H43.18ZM44.9642 15.8479C45.1387 16.878 45.499 17.683 46.3039 19.0677C47.1087 20.4525 46.529 20.6777 46.529 20.6777C44.1791 19.1634 43.8892 15.2033 43.8892 15.2033C43.8892 15.2033 44.7898 14.8177 44.9671 15.8479H44.9642ZM48.9746 19.003C50.1341 20.9028 50.1989 21.7078 50.1989 21.7078C50.1989 21.7078 50.0384 21.5474 48.0741 19.9684C46.1097 18.3894 46.3039 15.2681 46.3039 15.2681C47.1735 15.6874 47.818 17.1032 48.9774 19.003H48.9746ZM20.7668 20.4525C21.4113 19.3576 23.6655 14.8487 24.7265 14.2042L24.8222 13.8186C24.8222 13.8186 23.8879 14.0437 23.6318 13.3992C23.6318 13.3992 23.8569 12.9151 24.5014 13.0446L24.8222 12.4C24.8222 12.4 23.7275 12.6899 23.6965 11.6907C23.6965 11.6907 25.2106 11.626 26.2406 10.7253C27.2707 9.82468 28.0756 9.69521 28.0756 9.69521C28.0756 9.69521 27.8166 10.3397 28.751 10.5002C28.751 10.5002 29.266 9.69521 29.0718 8.34141C29.0718 8.34141 28.9424 7.8573 27.7829 8.63131C26.6234 9.40531 25.5624 10.4017 24.0792 10.047C24.0792 10.047 24.2087 9.4025 25.3682 9.04786C26.5277 8.69323 28.0418 6.72866 29.9077 7.01856C29.9977 7.03263 30.4227 8.30763 30.4227 10.0442C30.4227 11.7808 31.8383 12.9432 32.9331 12.9432C34.0278 12.9432 34.2867 12.4282 34.2867 12.4282L34.6723 12.5576C34.6723 12.5576 35.1226 9.33776 34.3515 8.30763C33.5775 7.2775 32.9359 7.01856 32.9359 7.01856C32.9359 7.01856 33.4734 5.79141 35.1254 5.72948C36.7774 5.66756 37.5091 6.63015 37.5091 7.85448C37.5091 9.07882 37.8947 12.234 38.8628 12.9432C38.8628 12.9432 40.3431 13.1374 40.7315 12.5576C41.0805 12.0341 41.2184 10.6409 40.861 8.85647C40.7737 8.41458 40.8807 7.95299 41.1677 7.60399C41.5646 7.11988 42.209 6.60482 43.0167 6.92286C45.2232 7.79538 47.3029 9.83876 47.5562 10.2384C46.9511 9.79091 45.8282 9.09571 44.2719 8.83677C43.771 8.75233 43.3066 8.72982 42.8957 8.73545C42.4848 8.74389 42.1668 9.09852 42.1921 9.50945C42.2315 10.1371 42.2709 10.7676 42.3075 11.3952C42.3075 11.3952 42.3075 13.0389 41.6631 13.7454C41.0186 14.4518 40.0842 15.1301 39.3778 14.6798C38.6686 14.2295 38.1536 13.1994 37.799 13.1008C37.4444 13.0023 37.0898 13.0361 37.0898 13.0361C37.0898 13.0361 36.7042 13.5202 37.5401 14.5503C38.3759 15.5805 38.8938 15.6452 38.8938 15.6452C38.8938 15.6452 40.7287 15.3244 41.5983 15.3244C42.4679 15.3244 42.8535 15.4848 42.8535 15.4848C42.8535 15.4848 44.4633 18.7046 43.8188 19.7686C43.8188 19.7686 42.4032 18.2881 42.24 16.6134C42.24 16.6134 41.6912 16.0027 41.5646 16.8076C41.4351 17.6126 41.5336 18.0967 41.5336 18.0967C41.5336 18.0967 41.0833 18.4513 40.8244 17.7421C40.5655 17.0328 40.5345 16.7767 40.3094 16.6472C40.0842 16.5177 39.9548 17.2664 39.9548 17.2664C39.9548 17.2664 39.375 16.7767 39.1189 16.681C38.86 16.5853 38.8938 16.7767 38.8938 16.7767C38.8938 16.7767 39.3131 18.2909 39.088 18.7722C38.8628 19.2563 38.7981 19.2225 38.0241 18.4513C37.2502 17.6773 37.6386 18.6765 37.6386 18.6765C37.6386 18.6765 37.9904 20.0613 38.345 20.8972L38.6996 21.7331C38.6996 21.7331 39.2146 20.7677 39.2146 20.8972C39.2146 21.0267 39.5045 23.3459 38.86 23.9229C38.2155 24.4998 37.4106 24.148 37.4106 24.148C37.4106 24.148 36.8956 22.1835 37.3459 21.0239C37.3459 21.0239 35.8008 20.7649 34.5457 19.5744C33.2905 18.3838 32.0353 18.0601 31.9706 14.0353L31.6497 13.8101L31.5541 13.2303C31.5541 13.2303 30.5128 13.4893 29.9077 13.1994C29.2998 12.9095 28.979 12.4253 29.0437 12.2002C29.1084 11.975 27.4986 12.3944 27.4986 12.3944C27.4986 12.3944 27.1131 13.1684 27.4986 13.3288C27.8842 13.4893 28.7229 13.2641 28.9142 13.6497C29.1056 14.0353 29.2069 18.0601 27.0793 19.5744C27.0793 19.5744 26.4995 19.5434 27.0793 18.5752C27.659 17.607 28.7229 15.451 28.3035 14.5503C28.2472 14.4265 28.205 14.3336 28.1769 14.2604H27.5324L27.1131 14.7755C27.1131 14.7755 26.7275 17.3199 25.6327 18.7356C24.538 20.1513 24.1186 20.3793 24.1186 20.3793C24.1186 20.3793 23.2828 19.7686 24.1186 18.9636C24.9545 18.1586 26.629 15.8732 26.5024 14.359L26.3729 13.9086C26.3729 13.9086 25.7622 13.7144 25.2472 14.7783C24.7322 15.8422 21.8672 20.8015 21.4788 21.2181C21.0933 21.6374 20.7696 21.7022 20.7696 21.7022C20.7696 21.7022 20.1251 21.5417 20.7696 20.4469L20.7668 20.4525ZM30.1582 16.65C30.0174 18.547 28.979 18.8426 28.979 18.8426L28.9142 18.3275C28.8495 17.8124 29.5897 15.4623 29.8795 14.8487C30.1694 14.2379 30.8448 14.5278 30.8448 14.5278C30.8448 14.5278 30.9405 14.6573 31.2642 15.6227C31.585 16.5881 31.2642 18.1023 31.2642 18.1023C31.2642 18.1023 30.8927 18.2628 30.6197 17.5394C30.4002 16.9596 30.6197 15.9773 30.6197 15.9773C30.6197 15.9773 30.2989 14.753 30.1582 16.6528V16.65ZM19.9338 23.3881C20.7781 23.1292 21.1861 22.8393 21.2987 22.7548C21.7011 22.4565 22.0445 22.0737 22.3034 21.6346L22.4413 21.3982C27.4001 21.0239 28.1741 19.898 28.1741 19.898C28.1741 19.898 28.7538 19.9712 29.6544 19.3717C30.555 18.775 32.2295 18.4091 32.2295 18.4091C32.4237 20.582 33.9687 19.5828 32.874 20.4694C31.7792 21.356 32.0381 25.0543 32.0381 25.0543L32.4884 24.9248L32.5531 26.0845L33.1329 26.1323C33.1329 27.0949 31.1178 27.9027 30.7013 28.0603C29.2942 26.6558 27.8195 25.2767 26.7416 24.497C23.9413 22.4677 19.9338 23.3909 19.9338 23.3909C19.9338 23.3909 25.8241 22.9997 19.7086 23.4556C19.7902 23.4331 19.8662 23.4106 19.9366 23.3909L19.9338 23.3881ZM11.8651 29.6618C13.6044 27.3904 15.9628 24.2043 20.4826 23.7681C25.0023 23.3346 27.3692 25.1894 29.3983 27.4748C31.4274 29.7575 34.6132 32.6565 34.7596 33.574C34.813 33.909 34.9256 34.3255 34.9763 34.7196C34.9509 34.9363 34.9425 35.1755 34.9622 35.4063C34.8749 35.7497 34.6188 35.9805 34.0222 35.9411C32.5391 35.8454 28.8692 35.1192 28.2416 34.7815C27.614 34.4437 27.3241 33.1378 27.372 32.2709C27.4198 31.404 26.8401 29.4873 24.811 28.2714C22.7818 27.0555 21.1777 26.6868 19.7396 27.4777C19.5172 27.5987 15.4421 29.0848 14.5247 33.0955C13.6072 37.1035 13.6973 40.2361 17.1335 42.4174C20.567 44.5987 24.5239 41.8376 24.5239 41.8376L25.4892 42.3695C25.4892 42.3695 28.7735 45.0265 28.6778 45.7499C28.6272 46.1214 28.6525 46.4282 28.5033 46.659C28.1684 46.6505 27.8448 46.7575 27.5605 47.0783C27.5014 47.0868 27.4395 47.0952 27.372 47.1008C26.19 47.2219 22.4666 47.7566 20.0688 47.5427C19.6889 47.084 18.5154 46.8503 17.429 46.7941C16.2161 46.2565 14.8005 45.4205 13.5706 44.23C13.6044 44.1202 13.6269 44.0583 13.6269 44.0583C13.6269 44.0583 12.4758 41.3085 12.1578 42.5469C11.8595 42.1022 11.595 41.6237 11.367 41.1086C11.2488 39.2763 10.8492 37.8071 10.3285 36.8023C10.1034 33.9568 10.6916 31.1985 11.8651 29.6646V29.6618ZM12.6588 48.3393C13.019 49.4989 14.3699 50.2109 15.3436 50.5853C15.4646 52.2459 15.7039 54.0191 16.0388 54.7818C16.7142 56.327 14.0096 54.2977 12.8501 52.2712C11.7357 50.3207 11.4261 47.6469 11.4036 42.803C11.4036 42.6116 11.4036 42.423 11.4036 42.226C11.4036 42.2007 11.4036 42.1782 11.4036 42.1528C11.6118 42.5131 11.837 42.8649 12.079 43.2055C11.9327 45.0856 12.1128 46.5717 12.6616 48.3421L12.6588 48.3393ZM15.262 49.0147C12.9852 48.3336 13.1456 46.0454 13.4102 44.8323C13.5819 45.0124 13.7592 45.1898 13.9421 45.3614C14.6232 46.0003 15.3098 46.4732 15.9853 46.8335C15.9797 46.8335 15.974 46.8335 15.9684 46.8335C15.6476 46.8785 15.4224 46.9517 15.3661 47.0502C15.2676 47.2162 15.2367 47.9959 15.2648 49.0119L15.262 49.0147ZM8.02079 52.6568C7.73091 48.1169 7.9251 40.4838 8.02079 39.1328C8.11647 37.779 8.82849 35.9242 9.29285 37.4328C9.56866 38.325 9.98517 39.9912 10.2582 42.2288C10.4467 43.7684 10.5706 45.5753 10.5312 47.599C10.4355 52.5639 11.3557 53.5096 14.3248 55.9836C17.2939 58.4576 18.0651 59.1331 18.0651 59.1331C18.0651 59.1331 16.2273 51.8518 16.4215 50.0815C16.5228 49.1499 16.7845 48.4068 17.1842 48.0803C17.5444 47.7848 18.0144 47.827 18.5913 48.3871C19.8043 49.5692 20.7443 57.1038 21.8194 59.2316C22.8944 61.3566 23.9667 63.6252 23.9667 63.6252C23.9667 63.6252 26.0999 68.3396 23.9667 69.5808C21.8334 70.8249 21.4 70.9205 16.9309 65.7051C12.4618 60.4897 8.30785 57.2023 8.01797 52.6624L8.02079 52.6568ZM12.1043 72.7922C12.1043 71.1288 14.0406 69.775 16.4187 69.775C18.0594 69.775 19.4835 70.4195 20.2124 71.3652C17.975 72.1308 15.2901 73.9124 15.293 73.9096C13.337 74.9229 12.1043 73.5662 12.1043 72.7922ZM53.8631 78.9955C53.0863 79.7696 51.8706 79.8709 50.9756 79.2404C47.317 76.6735 41.7841 75.0354 35.5982 75.0354C35.4547 75.0354 35.314 75.0439 35.1733 75.0439C35.0297 75.0439 34.8918 75.0354 34.7483 75.0354C28.5624 75.0354 23.0295 76.6735 19.3709 79.2404C18.4731 79.8681 17.2602 79.7667 16.4834 78.9955L13.3398 75.1649C13.3398 75.1649 14.0406 75.7701 15.4646 74.9229C18.8615 72.9076 24.2819 70.5096 32.2492 70.1015C32.252 70.124 32.2576 70.1437 32.2604 70.1662C33.1244 70.1043 33.9997 70.0593 34.8946 70.0424C34.9875 70.0424 35.0804 70.0424 35.1761 70.0424C35.2718 70.0424 35.3618 70.0424 35.4575 70.0424C36.3553 70.0593 37.2305 70.1015 38.0917 70.1662C38.0917 70.1437 38.1001 70.124 38.1029 70.1015C46.0703 70.5068 51.4906 72.9076 54.8875 74.9229C56.3115 75.7672 57.0151 75.1621 57.0123 75.1649L53.8687 78.9955H53.8631ZM58.2393 72.7922C58.2393 73.5662 57.0067 74.9257 55.0507 73.9096C55.0507 73.9096 52.3659 72.128 50.1313 71.3652C50.8602 70.4195 52.2843 69.775 53.925 69.775C56.3031 69.775 58.2393 71.1288 58.2393 72.7922ZM62.0443 52.6568C61.7544 57.1967 57.6005 60.4813 53.1314 65.6995C48.6622 70.9149 48.2317 70.8192 46.0956 69.5752C43.9623 68.3311 46.0956 63.6195 46.0956 63.6195C46.0956 63.6195 47.1678 61.3538 48.2429 59.226C49.318 57.101 50.258 49.5664 51.4709 48.3815C52.045 47.8214 52.5178 47.7792 52.8781 48.0747C53.2777 48.4012 53.5366 49.147 53.6408 50.0758C53.8349 51.8434 51.9972 59.1275 51.9972 59.1275C51.9972 59.1275 52.7711 58.452 55.7374 55.978C58.7065 53.504 59.6268 52.5583 59.5311 47.5934C59.4917 45.5697 59.6127 43.7628 59.8041 42.2232C60.0799 39.9856 60.4936 38.3222 60.7694 37.4272C61.2338 35.9186 61.9458 37.7762 62.0415 39.1272C62.1372 40.481 62.3314 48.1113 62.0415 52.6512L62.0443 52.6568Z" fill="#231F20"/>
<path d="M22.7843 46.0369C28.4833 45.9412 25.5845 44.8294 25.5845 44.8294C25.5845 44.8294 24.2815 43.2364 23.7974 43.4278C23.3134 43.6192 23.6539 44.3453 22.0103 44.441C20.3668 44.5367 16.7054 45.6541 14.0881 41.4942C11.4708 37.3342 12.301 36.7601 12.3488 36.1803C12.3967 35.6005 12.0589 33.5712 12.0589 33.5712C12.0589 33.7147 10.4154 37.8212 12.5909 40.8637C14.7635 43.9063 17.0825 46.1298 22.7815 46.0313L22.7843 46.0369Z" fill="#231F20"/>
<path d="M45.5127 25.5975C43.0023 26.2871 38.8484 32.8028 38.0745 33.1884C37.3005 33.574 36.9628 33.9624 37.3005 34.1538C37.6382 34.3452 39.3522 33.9117 40.2105 33.9117C41.0689 33.9117 41.6486 33.6218 41.6965 33.1884C41.7443 32.755 41.4066 30.8692 42.4704 29.566C43.5342 28.2629 45.2228 25.5975 48.9433 25.5975H50.8261C50.8261 25.5975 48.6534 24.7362 45.5127 25.5975Z" fill="#231F20"/>
<path d="M27.9035 29.566C28.9673 30.8692 28.6268 32.755 28.6774 33.1884C28.7253 33.6218 29.305 33.9117 30.1634 33.9117C31.0217 33.9117 32.7328 34.3452 33.0734 34.1538C33.4139 33.9624 33.0734 33.574 32.2994 33.1884C31.5255 32.8028 27.3744 26.2843 24.8612 25.5975C21.7204 24.7362 19.5478 25.5975 19.5478 25.5975H21.4306C25.1483 25.5975 26.8397 28.2629 27.9035 29.566Z" fill="#231F20"/>
<path d="M56.2834 41.497C53.6661 45.657 50.0047 44.5396 48.3611 44.4439C46.7176 44.3482 47.0581 43.622 46.5741 43.4306C46.09 43.2393 44.787 44.8323 44.787 44.8323C44.787 44.8323 41.8882 45.9441 47.5872 46.0398C53.2862 46.1354 55.6052 43.9148 57.7778 40.8722C59.9505 37.8297 58.3097 33.7232 58.3097 33.5797C58.3097 33.5797 57.972 35.609 58.0199 36.1888C58.0677 36.7686 58.8979 37.3427 56.2806 41.5027L56.2834 41.497Z" fill="#231F20"/>
<path d="M27.6565 62.398C25.1123 58.4999 27.3722 55.6853 28.0477 54.2696C28.7231 52.8538 29.2072 53.428 29.5449 53.0734C29.8826 52.7187 29.0158 50.9596 29.0158 50.9596C29.0158 50.9596 29.1312 47.9734 26.9895 52.9777C24.8478 57.982 25.875 60.8782 27.6424 63.9601C29.4098 67.0393 33.4483 67.149 33.5722 67.2053C33.5722 67.2053 31.9933 66.1358 31.4868 65.9557C30.983 65.7783 30.2006 66.2934 27.6565 62.3952V62.398Z" fill="#231F20"/>
<path d="M40.6783 48.3955C40.3941 48.6207 40.1408 50.301 39.8284 51.0609C39.5188 51.8208 39.5526 52.4429 39.8988 52.6511C40.2449 52.8594 41.9504 53.276 42.6596 54.7114C43.3688 56.1468 44.9955 58.6574 43.6503 61.9477C43.3294 62.7301 42.9692 63.6139 42.9692 63.6139C42.9692 63.6139 44.4777 62.018 44.8885 58.9135C45.2178 56.4283 41.2525 50.2756 41.2074 49.4453C41.1624 48.615 40.9598 48.1675 40.6755 48.3955H40.6783Z" fill="#231F20"/>
<path d="M19.4638 32.133C19.6833 32.3188 24.8926 36.6616 27.963 37.7931C30.5775 38.7557 34.056 42.0121 34.7286 42.6539C34.858 42.7777 35.0241 42.8396 35.1901 42.8396C35.3562 42.8396 35.5166 42.7805 35.646 42.6595C37.6217 40.8131 38.7418 39.8562 39.0063 39.7014C39.5861 39.6113 41.4548 38.8148 42.2315 38.3504C43.1152 37.8212 50.9137 32.8789 51.2429 32.6706L50.8292 32.0176C50.7476 32.0683 42.71 37.1654 41.8347 37.689C40.9904 38.1928 39.1836 38.9077 38.9135 38.9386C38.7193 38.9386 38.4997 38.9386 35.1873 42.029C34.1319 41.0242 30.8505 38.0351 28.2275 37.0697C25.2837 35.9861 20.0097 31.587 19.9563 31.5419L19.4609 32.1358L19.4638 32.133Z" fill="#231F20"/>
<path d="M19.1827 76.7354C19.1996 76.8311 19.2024 76.9071 19.1883 76.969C19.163 77.0788 19.0927 77.166 18.9716 77.228C18.8563 77.2899 18.7381 77.2983 18.617 77.2505C18.496 77.2026 18.3891 77.09 18.2962 76.9127C18.2033 76.7354 18.1696 76.5778 18.1921 76.4399C18.2146 76.302 18.2906 76.1978 18.42 76.1303C18.5467 76.0627 18.6593 76.0486 18.7578 76.0852C18.8112 76.1049 18.8703 76.15 18.9322 76.2147C19.0758 76.1415 19.1461 76.1021 19.2897 76.0318C19.2362 75.9332 19.1489 75.8516 19.0279 75.7897C18.8084 75.6799 18.5523 75.6996 18.2653 75.8544C18.0486 75.9698 17.905 76.1331 17.8375 76.3414C17.7559 76.5806 17.7925 76.8367 17.9388 77.1126C18.0739 77.3687 18.2512 77.5291 18.4594 77.6023C18.6705 77.6727 18.89 77.6445 19.1264 77.5207C19.315 77.4193 19.4444 77.2842 19.5148 77.1097C19.5852 76.9352 19.5936 76.7551 19.5401 76.5609C19.3994 76.6313 19.3291 76.6679 19.1883 76.741L19.1827 76.7354Z" fill="#231F20"/>
<path d="M20.2964 76.499C20.2204 76.3301 20.1838 76.2457 20.1079 76.0796C20.4399 75.9192 20.6088 75.8404 20.9437 75.6912C20.8959 75.5758 20.8705 75.5195 20.8227 75.4041C20.485 75.5561 20.3161 75.6349 19.9812 75.7954C19.9193 75.6574 19.8883 75.5871 19.8236 75.4492C20.1923 75.2719 20.378 75.1846 20.7523 75.0185C20.7045 74.9003 20.6792 74.8412 20.6285 74.7258C20.1079 74.9594 19.8489 75.0805 19.3339 75.3338C19.6351 75.9839 19.787 76.3104 20.091 76.9606C20.5975 76.7101 20.8508 76.5891 21.3659 76.3611C21.3152 76.2429 21.2899 76.1838 21.242 76.0628C20.8649 76.2316 20.6764 76.3189 20.302 76.499H20.2964Z" fill="#231F20"/>
<path d="M22.0582 74.1207C22.2327 74.5907 22.32 74.8243 22.4944 75.2944C22.0442 74.9341 21.8134 74.7568 21.3462 74.4106C21.1886 74.4753 21.1126 74.5091 20.955 74.5795C21.228 75.2437 21.3631 75.5758 21.6333 76.2401C21.7655 76.1838 21.8331 76.1528 21.9654 76.0965C21.7768 75.6237 21.6839 75.3873 21.4954 74.9116C21.971 75.2634 22.2046 75.4436 22.6605 75.8095C22.804 75.7532 22.8744 75.725 23.0179 75.6687C22.7731 74.9932 22.652 74.6555 22.4072 73.98C22.2665 74.0335 22.1961 74.0616 22.0554 74.1179L22.0582 74.1207Z" fill="#231F20"/>
<path d="M24.0849 73.3861C23.4939 73.5803 23.1984 73.6845 22.613 73.9068C22.6552 74.0278 22.6777 74.0869 22.7199 74.208C22.9366 74.1263 23.0436 74.0869 23.2603 74.0081C23.4488 74.5682 23.5445 74.8497 23.7331 75.4098C23.8794 75.3563 23.9526 75.331 24.0961 75.2803C23.9132 74.7174 23.8203 74.4359 23.6374 73.873C23.8541 73.797 23.961 73.7605 24.1777 73.6901C24.1411 73.5691 24.1214 73.5071 24.0849 73.3861Z" fill="#231F20"/>
<path d="M26.1595 74.4809C26.1454 74.4556 26.1285 74.4021 26.1088 74.3205C26.0976 74.2726 26.0919 74.2501 26.0779 74.2023C26.0469 74.0812 26.0047 73.994 25.954 73.9433C25.9034 73.8927 25.833 73.8645 25.7402 73.8561C25.8302 73.7942 25.8865 73.7182 25.909 73.6253C25.9315 73.5324 25.9315 73.4452 25.909 73.3635C25.8921 73.296 25.864 73.2369 25.8274 73.189C25.7908 73.1412 25.7486 73.1018 25.6979 73.068C25.636 73.0286 25.5685 73.0033 25.4925 72.9948C25.4165 72.9864 25.3152 73.0005 25.1886 73.0342C24.8368 73.1384 24.6595 73.1918 24.3105 73.3044C24.5187 73.994 24.6229 74.3374 24.8311 75.0269C24.9747 74.9819 25.045 74.9594 25.1886 74.9144C25.1098 74.6442 25.0704 74.5091 24.9916 74.2361C25.1379 74.191 25.2111 74.1685 25.3546 74.1263C25.4587 74.0953 25.5347 74.0925 25.5826 74.1178C25.6304 74.1432 25.6698 74.2107 25.7008 74.3233C25.7205 74.388 25.7289 74.419 25.7458 74.4837C25.7599 74.5344 25.7796 74.5822 25.8021 74.6301C25.8133 74.6526 25.8302 74.6808 25.8499 74.7173C26.0131 74.6695 26.0919 74.647 26.2552 74.6019C26.2495 74.5851 26.2495 74.5766 26.2439 74.5597C26.2017 74.5485 26.1707 74.5203 26.151 74.4781L26.1595 74.4809ZM25.4897 73.7519C25.4559 73.7829 25.3968 73.8082 25.3152 73.8336C25.152 73.8814 25.0732 73.9067 24.9099 73.9574C24.8565 73.7716 24.8283 73.6788 24.7748 73.493C24.9437 73.4423 25.0281 73.4142 25.1942 73.3664C25.273 73.3438 25.3349 73.3354 25.3799 73.3466C25.4587 73.3635 25.5122 73.4226 25.5432 73.5296C25.5685 73.6281 25.5516 73.7013 25.4897 73.7576V73.7519Z" fill="#231F20"/>
<path d="M26.6853 72.6346C26.584 73.403 26.5389 73.7858 26.463 74.5513C26.6177 74.5091 26.6937 74.4894 26.8485 74.45C26.8626 74.2952 26.8682 74.2164 26.8823 74.0588C27.144 73.9912 27.2763 73.9603 27.5408 73.8984C27.6196 74.0335 27.659 74.0982 27.7378 74.2333C27.8982 74.1967 27.9799 74.1798 28.1403 74.1432C27.7463 73.4902 27.5436 73.1666 27.1243 72.5248C26.947 72.5671 26.8598 72.5868 26.6853 72.6318V72.6346ZM26.9161 73.7323C26.9442 73.4339 26.9611 73.282 26.992 72.9836C27.1468 73.2369 27.2256 73.3636 27.3776 73.6197C27.1919 73.6619 27.099 73.6844 26.9161 73.7323Z" fill="#231F20"/>
<path d="M28.6809 73.7041C28.574 73.1215 28.5205 72.8316 28.4136 72.2518C28.256 72.2828 28.18 72.2997 28.0224 72.3306C28.1603 73.0371 28.2307 73.3917 28.3686 74.0982C28.8723 73.994 29.1256 73.9462 29.6322 73.859C29.6125 73.7323 29.6012 73.6676 29.5815 73.5381C29.2213 73.6 29.0412 73.631 28.6809 73.7013V73.7041Z" fill="#231F20"/>
<path d="M31.6385 72.6093C31.6976 72.5727 31.7426 72.5333 31.7708 72.491C31.8214 72.4179 31.8411 72.3278 31.8327 72.218C31.8214 72.1111 31.7848 72.0238 31.7201 71.9535C31.6132 71.8381 31.4415 71.793 31.2135 71.8156C30.8477 71.8578 30.6676 71.8803 30.3017 71.9338C30.3974 72.6487 30.4452 73.0061 30.5409 73.721C30.8646 73.676 31.025 73.6535 31.3514 73.6169C31.4415 73.6056 31.5259 73.5887 31.6019 73.5634C31.6779 73.5381 31.7426 73.5015 31.7961 73.4508C31.8439 73.4086 31.8805 73.3551 31.9115 73.296C31.9565 73.206 31.9762 73.1074 31.965 73.0033C31.9565 72.8992 31.9227 72.8147 31.8693 72.7472C31.8158 72.6796 31.737 72.6346 31.6413 72.6121L31.6385 72.6093ZM30.7126 72.1927C30.8758 72.1702 30.9574 72.1617 31.1207 72.142C31.2107 72.1308 31.2867 72.1308 31.3458 72.142C31.4133 72.1589 31.4556 72.2124 31.464 72.2968C31.4725 72.3728 31.4527 72.4263 31.4049 72.4629C31.3571 72.4967 31.2951 72.5192 31.2135 72.5305C31.0334 72.553 30.9434 72.5642 30.7632 72.5867C30.7435 72.4291 30.7351 72.3503 30.7154 72.1927H30.7126ZM31.4781 73.2538C31.4359 73.2791 31.3768 73.2988 31.298 73.3073C31.1207 73.327 31.0334 73.3382 30.8589 73.3607C30.8364 73.1694 30.8223 73.0737 30.7998 72.8851C30.9799 72.8626 31.07 72.8513 31.2529 72.8288C31.3317 72.8204 31.3936 72.8232 31.4387 72.8372C31.5203 72.8626 31.5653 72.9245 31.5766 73.0174C31.5878 73.1271 31.5569 73.2059 31.4809 73.2538H31.4781Z" fill="#231F20"/>
<path d="M32.7276 71.672C32.5053 72.4122 32.4012 72.781 32.207 73.524C32.3646 73.5099 32.4434 73.5015 32.601 73.4902C32.6376 73.3382 32.6573 73.2622 32.6967 73.1103C32.964 73.0906 33.0991 73.0821 33.3693 73.0652C33.4256 73.2116 33.4537 73.2819 33.51 73.4283C33.6732 73.4199 33.7548 73.417 33.9181 73.4086C33.6338 72.6993 33.4875 72.3447 33.1779 71.6411C32.9978 71.6523 32.9077 71.6579 32.7304 71.672H32.7276ZM32.7783 72.7922C32.8543 72.5023 32.8937 72.356 32.9725 72.0661C33.085 72.3419 33.1413 72.4826 33.2483 72.7584C33.0597 72.7697 32.9668 72.7753 32.7783 72.7894V72.7922Z" fill="#231F20"/>
<path d="M35.2488 71.5763C35.2488 72.0801 35.2488 72.3306 35.2516 72.8344C34.9589 72.3334 34.807 72.0829 34.4946 71.5876C34.3285 71.5904 34.2441 71.5932 34.0781 71.5988C34.1006 72.3193 34.1147 72.6796 34.1372 73.4001C34.2779 73.3945 34.3482 73.3917 34.489 73.3889C34.4777 72.8766 34.4721 72.6205 34.458 72.1083C34.7732 72.6121 34.928 72.8654 35.2235 73.3776C35.3755 73.3776 35.4514 73.3776 35.6006 73.3776C35.6062 72.6571 35.6091 72.2968 35.6147 71.5735C35.4655 71.5735 35.3923 71.5735 35.246 71.5735L35.2488 71.5763Z" fill="#231F20"/>
<path d="M37.1205 71.6214C36.8137 71.9029 36.6618 72.0464 36.3663 72.3363C36.3747 72.038 36.3775 71.8916 36.386 71.5933C36.2312 71.5877 36.1524 71.5877 35.9948 71.5848C35.9835 72.3054 35.9751 72.6656 35.9638 73.389C36.113 73.389 36.1861 73.3946 36.3353 73.3974C36.3409 73.1554 36.3466 73.0343 36.3522 72.7951C36.4282 72.7247 36.4676 72.6882 36.5436 72.6178C36.7603 72.9415 36.8672 73.1019 37.0755 73.4284C37.2696 73.4396 37.3653 73.4425 37.5595 73.4565C37.2753 73.0118 37.1261 72.7923 36.8222 72.3532C37.1402 72.0689 37.3006 71.9282 37.6299 71.6524C37.4244 71.6383 37.3231 71.6327 37.1177 71.6242L37.1205 71.6214Z" fill="#231F20"/>
<path d="M39.4651 71.7593C39.1949 71.7283 38.9782 71.7874 38.8263 71.9028C38.6321 72.0492 38.5054 72.2884 38.4773 72.6177C38.4491 72.9414 38.5308 73.1947 38.6912 73.3833C38.815 73.5296 39.0036 73.6253 39.2597 73.6563C39.5158 73.6872 39.7212 73.6366 39.8732 73.5212C40.0702 73.3748 40.2025 73.1412 40.2447 72.8204C40.2869 72.4939 40.2165 72.2321 40.0589 72.0435C39.9351 71.8944 39.7353 71.7902 39.4651 71.7564V71.7593ZM39.6706 73.2172C39.5692 73.3157 39.4426 73.3551 39.2934 73.3382C39.1443 73.3214 39.0289 73.2538 38.9501 73.1356C38.8713 73.0174 38.8403 72.8569 38.86 72.6543C38.8797 72.4516 38.9388 72.2997 39.043 72.2012C39.1471 72.1026 39.2765 72.0604 39.4313 72.0773C39.5861 72.0942 39.7043 72.1646 39.7803 72.2856C39.8591 72.4066 39.8844 72.567 39.8591 72.7697C39.8338 72.9723 39.7719 73.1215 39.6706 73.22V73.2172Z" fill="#231F20"/>
<path d="M40.411 73.7576C40.5601 73.7801 40.6333 73.7913 40.7824 73.8167C40.8275 73.5183 40.85 73.3692 40.895 73.0708C41.2187 73.1243 41.3819 73.1496 41.7027 73.2115L41.7562 72.9019C41.4297 72.8428 41.2665 72.8147 40.94 72.7612C40.9654 72.598 40.9766 72.5163 41.002 72.3503C41.3791 72.4122 41.5676 72.4432 41.9419 72.5135C41.9645 72.3897 41.9757 72.325 41.9982 72.2011C41.4635 72.0998 41.1961 72.0548 40.6586 71.976C40.5573 72.688 40.5095 73.0455 40.4081 73.7576H40.411Z" fill="#231F20"/>
<path d="M44.1168 72.6656C44.0014 73.1553 43.9423 73.3974 43.8269 73.8871C43.6581 73.327 43.568 73.0455 43.3766 72.4883C43.2134 72.4517 43.1318 72.432 42.9686 72.3982C42.825 73.1047 42.7519 73.4565 42.6083 74.1629C42.7462 74.1939 42.8166 74.208 42.9545 74.2389C43.0614 73.7379 43.1149 73.4902 43.2219 72.9893C43.4132 73.5578 43.5033 73.8421 43.675 74.4106C43.8213 74.4472 43.8973 74.4669 44.0436 74.5063C44.2153 73.8083 44.3026 73.4565 44.4742 72.7585C44.3307 72.7219 44.2575 72.7022 44.114 72.6656H44.1168Z" fill="#231F20"/>
<path d="M44.8097 72.8457C44.6296 73.5437 44.5424 73.8927 44.3622 74.5879C44.5086 74.6273 44.5818 74.647 44.7281 74.6893C44.9138 73.9941 45.0067 73.645 45.1925 72.9499C45.0405 72.9048 44.9617 72.8851 44.8097 72.8429V72.8457Z" fill="#231F20"/>
<path d="M46.0759 74.4078C46.2391 74.4613 46.3236 74.4866 46.4868 74.5429C46.4333 74.647 46.3545 74.723 46.256 74.7653C46.1547 74.8075 46.0449 74.8103 45.9211 74.7709C45.7945 74.7315 45.696 74.6499 45.6228 74.5316C45.5496 74.4134 45.5412 74.2474 45.6031 74.0363C45.665 73.8252 45.7551 73.6816 45.8789 73.6057C46.0027 73.5297 46.1406 73.5156 46.287 73.5634C46.363 73.5888 46.4277 73.6225 46.484 73.6704C46.5797 73.7548 46.6247 73.859 46.6162 73.9856C46.7654 74.0363 46.8386 74.0616 46.9849 74.1123C47.0187 73.9406 46.9849 73.7745 46.878 73.6169C46.7738 73.4593 46.6022 73.3411 46.3714 73.2651C46.104 73.1778 45.862 73.1975 45.6509 73.3158C45.4399 73.4368 45.2963 73.6366 45.2203 73.9181C45.1444 74.1967 45.1669 74.4388 45.2738 74.6442C45.3779 74.8441 45.544 74.9848 45.7748 75.058C45.9155 75.103 46.0421 75.1115 46.1547 75.0861C46.2222 75.072 46.301 75.0355 46.3995 74.9792C46.3883 75.0692 46.3798 75.1143 46.3686 75.2043C46.4643 75.2381 46.5121 75.2522 46.6078 75.286C46.7288 74.9201 46.7879 74.7371 46.9061 74.3684C46.6106 74.2643 46.4615 74.2164 46.1631 74.1179C46.1294 74.2333 46.1097 74.2896 46.0759 74.405V74.4078Z" fill="#231F20"/>
<path d="M47.8043 74.1461C48.1842 74.2868 48.3728 74.36 48.7499 74.5148C48.7949 74.3966 48.8175 74.3375 48.8625 74.2165C48.3362 74.0026 48.0717 73.9012 47.5398 73.7098C47.309 74.391 47.1936 74.7315 46.9628 75.4127C47.4863 75.6012 47.748 75.7026 48.2659 75.9108C48.3109 75.7898 48.3362 75.7307 48.3812 75.6097C47.9985 75.4549 47.8071 75.3789 47.4216 75.2353C47.4835 75.0608 47.5144 74.9736 47.5735 74.7991C47.9169 74.9257 48.0857 74.9933 48.4263 75.1284C48.4713 75.013 48.491 74.9539 48.536 74.8357C48.1927 74.6978 48.021 74.6302 47.6748 74.5035C47.7255 74.36 47.7508 74.2868 47.8015 74.1433L47.8043 74.1461Z" fill="#231F20"/>
<path d="M50.258 75.6546C50.3311 75.5983 50.3874 75.5308 50.4212 75.4548C50.4493 75.3901 50.4634 75.3281 50.4634 75.2662C50.4634 75.2043 50.455 75.1452 50.4353 75.0861C50.4128 75.0157 50.3734 74.951 50.3199 74.8947C50.2664 74.8384 50.1792 74.7821 50.0582 74.7258C49.7176 74.5738 49.5488 74.5007 49.2054 74.3571C48.9437 75.027 48.8114 75.3591 48.5497 76.029C48.6876 76.0881 48.7579 76.1162 48.8987 76.1753C49.0028 75.9136 49.0563 75.7841 49.1632 75.5223C49.3039 75.5843 49.3743 75.6152 49.515 75.6772C49.6163 75.7222 49.6754 75.77 49.6979 75.8207C49.7204 75.8714 49.7092 75.9502 49.6642 76.0571C49.6388 76.119 49.6276 76.15 49.6022 76.2119C49.5825 76.2598 49.5656 76.3104 49.5572 76.3611C49.5516 76.3864 49.5488 76.4174 49.5431 76.4596C49.6979 76.53 49.7767 76.5665 49.9315 76.6397C49.94 76.6228 49.9428 76.6144 49.9484 76.5975C49.9231 76.5609 49.9146 76.5187 49.9259 76.4737C49.9315 76.4455 49.9512 76.392 49.9822 76.3161C50.0019 76.271 50.0103 76.2485 50.03 76.2063C50.0807 76.0909 50.1004 75.998 50.0919 75.9248C50.0835 75.8545 50.0469 75.7841 49.9794 75.7166C50.0891 75.7278 50.1792 75.7081 50.2552 75.6518L50.258 75.6546ZM49.8527 75.4717C49.8077 75.4717 49.7458 75.4548 49.667 75.421C49.5094 75.3507 49.4334 75.3169 49.2758 75.2493C49.3489 75.0692 49.3855 74.9819 49.4559 74.8018C49.6191 74.8722 49.7007 74.9088 49.864 74.9791C49.94 75.0129 49.9934 75.0495 50.0216 75.0833C50.075 75.148 50.0779 75.2296 50.0356 75.331C49.9962 75.4238 49.9343 75.4689 49.8527 75.4689V75.4717Z" fill="#231F20"/>
<path d="M50.9503 75.1396C50.6548 75.7926 50.5085 76.1219 50.213 76.7749C50.3537 76.8424 50.4212 76.8762 50.5619 76.9437C50.8631 76.2936 51.015 75.9671 51.3162 75.3169C51.1698 75.2437 51.0966 75.21 50.9503 75.1396Z" fill="#231F20"/>
<path d="M50.7701 77.0479C50.9165 77.1211 50.9897 77.1577 51.1332 77.2337C51.243 77.1239 51.2964 77.0704 51.4062 76.9606C51.6538 77.0901 51.7749 77.1548 52.0197 77.2899C51.9972 77.4447 51.9859 77.5235 51.9606 77.6783C52.1098 77.76 52.1829 77.8022 52.3321 77.8866C52.439 77.1239 52.4841 76.7383 52.5657 75.9671C52.4024 75.877 52.3208 75.8348 52.1548 75.7476C51.5891 76.2598 51.3105 76.5216 50.7673 77.0507L50.7701 77.0479ZM52.0704 76.9635C51.8987 76.8706 51.8114 76.8227 51.6398 76.7327C51.8508 76.5244 51.9578 76.4231 52.1745 76.2176C52.1351 76.5159 52.1126 76.6651 52.0704 76.9635Z" fill="#231F20"/>
<path d="M28.6782 45.747C28.7739 45.0236 25.4896 42.3667 25.4896 42.3667L24.5243 41.8347C24.5243 41.8347 20.5702 44.5958 17.1339 42.4145C13.7005 40.2333 13.6076 37.1006 14.5251 33.0927C15.4425 29.0847 19.5205 27.5986 19.74 27.4748C21.1781 26.6839 22.7823 27.0526 24.8114 28.2685C26.8405 29.4844 27.4202 31.3983 27.3724 32.268C27.3246 33.1377 27.6144 34.4409 28.242 34.7786C28.8696 35.1164 32.5395 35.8425 34.0226 35.9382C35.5058 36.0339 34.9063 34.4887 34.7628 33.5712C34.6192 32.6536 31.4306 29.7546 29.4015 27.472C27.3724 25.1894 25.0056 23.3318 20.4858 23.7652C15.966 24.1987 13.6076 27.3876 11.8684 29.6589C10.1291 31.9303 9.66757 36.8755 11.2408 40.8159C12.814 44.7591 16.7962 46.7096 18.8957 47.3372C20.9952 47.9649 25.9737 47.2415 27.3724 47.0952C28.7711 46.9488 28.5797 46.4675 28.6754 45.7414L28.6782 45.747ZM24.862 25.5975C27.3724 26.2871 31.5263 32.8028 32.3003 33.1884C33.0742 33.574 33.4119 33.9624 33.0742 34.1538C32.7365 34.3452 31.0226 33.9117 30.1642 33.9117C29.3058 33.9117 28.7261 33.6218 28.6782 33.1884C28.6304 32.7549 28.9681 30.8692 27.9043 29.566C26.8405 28.2629 25.1519 25.5975 21.4314 25.5975H19.5486C19.5486 25.5975 21.7213 24.7362 24.862 25.5975ZM22.7851 46.0369C17.0861 46.1326 14.7671 43.9119 12.5945 40.8693C10.4218 37.8268 12.0625 33.7203 12.0625 33.5768C12.0625 33.5768 12.4003 35.6061 12.3524 36.1859C12.3046 36.7657 11.4744 37.3399 14.0917 41.4998C16.709 45.6597 20.3704 44.5424 22.014 44.4467C23.6575 44.351 23.317 43.6248 23.801 43.4334C24.2851 43.242 25.5881 44.8351 25.5881 44.8351C25.5881 44.8351 28.4869 45.9468 22.7879 46.0425L22.7851 46.0369Z" fill="#D8B38C"/>
<path d="M58.5075 29.6617C56.7683 27.3903 54.4099 24.2042 49.8901 23.768C45.3703 23.3345 43.0035 25.1893 40.9744 27.4748C38.9452 29.7602 35.7594 32.6564 35.6131 33.5739C35.4696 34.4915 34.8701 36.0367 36.3533 35.941C37.8364 35.8453 41.5063 35.1191 42.1339 34.7814C42.7614 34.4436 43.0513 33.1377 43.0035 32.2708C42.9556 31.4011 43.5354 29.4872 45.5645 28.2713C47.5936 27.0554 49.1978 26.6867 50.6359 27.4776C50.8582 27.5986 54.9333 29.0847 55.8508 33.0954C56.7683 37.1062 56.6782 40.236 53.2419 42.4173C49.8085 44.5986 45.8516 41.8375 45.8516 41.8375L44.8863 42.3695C44.8863 42.3695 41.602 45.0264 41.6976 45.7498C41.7933 46.4731 41.6019 46.9572 43.0007 47.1036C44.3994 47.2499 49.3779 47.9733 51.4774 47.3456C53.5768 46.718 57.5591 44.7675 59.1323 40.8243C60.7055 36.881 60.2439 31.9358 58.5047 29.6673L58.5075 29.6617ZM48.9445 25.5946C45.2268 25.5946 43.5354 28.26 42.4716 29.5632C41.4078 30.8663 41.7483 32.7521 41.6976 33.1855C41.6498 33.619 41.07 33.9089 40.2117 33.9089C39.3533 33.9089 37.6422 34.3423 37.3017 34.1509C36.9612 33.9595 37.3017 33.5711 38.0756 33.1855C38.8496 32.7999 43.0007 26.2814 45.5138 25.5946C48.6546 24.7334 50.8273 25.5946 50.8273 25.5946H48.9445ZM57.7842 40.8665C55.6116 43.909 53.2926 46.1325 47.5936 46.034C41.8946 45.9355 44.7934 44.8266 44.7934 44.8266C44.7934 44.8266 46.0964 43.2335 46.5805 43.4249C47.0645 43.6163 46.724 44.3425 48.3676 44.4382C50.0111 44.5339 53.6725 45.6512 56.2898 41.4913C58.9071 37.3314 58.0769 36.7572 58.0291 36.1774C57.9812 35.5976 58.319 33.5683 58.319 33.5683C58.319 33.7118 59.9625 37.8183 57.7871 40.8608L57.7842 40.8665Z" fill="#D8B38C"/>
<path d="M41.776 47.1205C41.0584 46.642 39.9777 45.5246 39.5218 46.8728C39.0658 48.221 38.3482 51.7448 38.4045 52.4288C38.4608 53.1127 39.4514 53.8642 40.1972 54.1541C40.943 54.4412 44.5172 58.1593 40.4026 63.4112C40.2563 63.597 38.5621 65.919 34.8641 65.2069C31.1689 64.4948 28.5741 63.2227 27.9831 59.3526C27.3921 55.4826 31.1407 53.0367 31.1407 53.0367L31.0451 51.9813C31.0451 51.9813 30.0038 48.0662 29.3593 47.8748C28.7176 47.6834 28.3799 47.3288 27.7523 48.5137C27.1247 49.6987 24.7185 53.8248 24.4849 55.9217C24.2513 58.0185 24.4511 62.2826 27.1895 65.1732C29.9306 68.0637 34.2449 69.5357 36.7806 68.8602C39.3135 68.1847 42.8426 67.3122 44.8408 63.4788C46.839 59.6453 46.1354 56.8448 44.9534 54.1823C43.7714 51.5197 42.4909 47.5962 41.7732 47.1205H41.776ZM27.6426 63.9601C25.8752 60.8809 24.8479 57.9847 26.9896 52.9776C29.1313 47.9733 29.0159 50.9596 29.0159 50.9596C29.0159 50.9596 29.8827 52.7187 29.545 53.0733C29.2073 53.428 28.7233 52.8538 28.0478 54.2695C27.3724 55.6852 25.1125 58.4998 27.6566 62.398C30.2008 66.2962 30.9831 65.7783 31.4869 65.9584C31.9907 66.1357 33.5723 67.2081 33.5723 67.2081C33.4513 67.1518 29.4128 67.0448 27.6426 63.9629V63.9601ZM44.8915 58.9164C44.4806 62.0208 42.9721 63.6167 42.9721 63.6167C42.9721 63.6167 43.3323 62.7329 43.6532 61.9505C44.9984 58.6602 43.3717 56.1525 42.6625 54.7142C41.9533 53.2788 40.2479 52.8594 39.9017 52.654C39.5555 52.4457 39.5218 51.8237 39.8313 51.0637C40.1409 50.3038 40.397 48.6235 40.6813 48.3983C40.9655 48.1732 41.1681 48.6179 41.2132 49.4482C41.2582 50.2785 45.2264 56.4311 44.8943 58.9164H44.8915Z" fill="#D8B38C"/>
</svg>
