<svg width="28" height="28" viewBox="0 0 28 28" fill="none" xmlns="http://www.w3.org/2000/svg">
<path d="M14 19.8333C14 23.055 16.6117 25.6667 19.8333 25.6667C23.055 25.6667 25.6666 23.055 25.6666 19.8333C25.6666 16.6117 23.055 14 19.8333 14C16.6117 14 14 16.6117 14 19.8333ZM14 19.8333C14 18.5199 14.4341 17.3078 15.1666 16.3328V5.83333M14 19.8333C14 20.7962 14.2333 21.7047 14.6465 22.5051C13.6636 23.3354 11.3935 23.9167 8.74998 23.9167C5.20615 23.9167 2.33331 22.872 2.33331 21.5833V5.83333M15.1666 5.83333C15.1666 7.122 12.2938 8.16667 8.74998 8.16667C5.20615 8.16667 2.33331 7.122 2.33331 5.83333M15.1666 5.83333C15.1666 4.54467 12.2938 3.5 8.74998 3.5C5.20615 3.5 2.33331 4.54467 2.33331 5.83333M2.33331 16.3333C2.33331 17.622 5.20615 18.6667 8.74998 18.6667C11.3038 18.6667 13.5092 18.1241 14.5421 17.3387M15.1666 11.0833C15.1666 12.372 12.2938 13.4167 8.74998 13.4167C5.20615 13.4167 2.33331 12.372 2.33331 11.0833" stroke="#A92F34" stroke-width="2.33333" stroke-linecap="round" stroke-linejoin="round"/>
</svg>
