<svg width="28" height="28" viewBox="0 0 28 28" fill="none" xmlns="http://www.w3.org/2000/svg">
<path d="M18.6666 21L22.1666 17.5M22.1666 17.5L25.6666 21M22.1666 17.5V24.5M25.6666 11.6667H2.33331M25.6666 14V9.56671C25.6666 8.25992 25.6666 7.60653 25.4123 7.1074C25.1886 6.66835 24.8317 6.3114 24.3926 6.08769C23.8935 5.83337 23.2401 5.83337 21.9333 5.83337H6.06665C4.75986 5.83337 4.10646 5.83337 3.60734 6.08769C3.16829 6.3114 2.81134 6.66835 2.58763 7.1074C2.33331 7.60652 2.33331 8.25992 2.33331 9.56671V18.4334C2.33331 19.7402 2.33331 20.3936 2.58763 20.8927C2.81134 21.3317 3.16829 21.6887 3.60734 21.9124C4.10646 22.1667 4.75986 22.1667 6.06665 22.1667H14" stroke="#08783D" stroke-width="2.33333" stroke-linecap="round" stroke-linejoin="round"/>
</svg>
