<svg width="350" height="250" viewBox="0 0 350 250" fill="none" xmlns="http://www.w3.org/2000/svg">
<rect width="350" height="250" fill="#EBE9FE"/>
<g clip-path="url(#clip0_1895_17191)">
<path d="M215.425 149.053C215.065 149.053 214.712 148.917 214.435 148.647C213.88 148.1 213.865 147.208 214.412 146.645C224.582 136.265 230.185 122.547 230.185 108.012C230.185 77.585 205.427 52.8275 175 52.8275C144.572 52.8275 119.815 77.585 119.815 108.02C119.815 122.555 125.417 136.272 135.587 146.652C136.135 147.207 136.127 148.107 135.565 148.655C135.01 149.202 134.117 149.195 133.562 148.632C122.867 137.72 116.98 123.298 116.98 108.02C116.98 76.025 143.005 50 175 50C206.995 50 233.02 76.025 233.02 108.02C233.02 123.298 227.132 137.72 216.437 148.632C216.16 148.917 215.792 149.06 215.425 149.06V149.053Z" fill="#7A5AF8"/>
<path d="M197.163 94.355C196.93 94.355 196.69 94.295 196.473 94.175C195.79 93.7925 195.543 92.93 195.925 92.2475C197.493 89.435 199.57 81.65 195.985 75.56C192.715 69.995 185.665 67.175 175.03 67.175C174.25 67.175 173.613 66.545 173.613 65.7575C173.613 64.97 174.243 64.34 175.03 64.34C186.738 64.34 194.605 67.6325 198.423 74.12C202.473 81.005 200.553 89.7275 198.393 93.6125C198.138 94.0775 197.65 94.34 197.155 94.34L197.163 94.355Z" fill="#7A5AF8"/>
<path d="M152.905 94.355C152.41 94.355 151.93 94.0925 151.667 93.6275C149.507 89.7425 147.587 81.0125 151.637 74.135C155.455 67.6475 163.322 64.355 175.03 64.355C175.81 64.355 176.447 64.985 176.447 65.7725C176.447 66.56 175.817 67.19 175.03 67.19C164.395 67.19 157.352 70.01 154.075 75.575C150.497 81.6575 152.575 89.4425 154.135 92.2625C154.51 92.945 154.27 93.8075 153.587 94.1825C153.37 94.3025 153.137 94.3625 152.897 94.3625L152.905 94.355Z" fill="#7A5AF8"/>
<path d="M131.657 145.835C131.455 145.835 131.26 145.79 131.065 145.707C130.352 145.377 130.045 144.537 130.375 143.832C130.525 143.495 134.2 135.628 139.525 132.883C142.832 131.18 160.375 128.39 162.362 128.075C163.12 127.955 163.855 128.48 163.982 129.253C164.102 130.025 163.577 130.753 162.805 130.873C155.17 132.073 143.02 134.27 140.815 135.403C136.36 137.698 132.977 144.943 132.94 145.018C132.7 145.535 132.19 145.842 131.657 145.842V145.835ZM218.35 145.835C217.817 145.835 217.3 145.527 217.067 145.01C217.037 144.935 213.655 137.69 209.192 135.403C206.987 134.27 194.822 132.073 187.187 130.873C186.415 130.753 185.882 130.025 186.01 129.253C186.13 128.48 186.895 127.955 187.63 128.075C189.625 128.39 207.175 131.18 210.49 132.883C215.83 135.628 219.49 143.495 219.64 143.832C219.97 144.545 219.655 145.385 218.95 145.707C218.762 145.797 218.56 145.835 218.357 145.835H218.35Z" fill="#7A5AF8"/>
<path d="M175 140.413C174.693 140.413 174.393 140.315 174.138 140.12L161.718 130.603C161.275 130.258 161.073 129.68 161.208 129.133L163.345 120.567C163.533 119.81 164.29 119.353 165.063 119.54C165.82 119.728 166.278 120.5 166.09 121.258L164.178 128.923L175 137.218L185.8 128.923L183.888 121.25C183.7 120.493 184.158 119.72 184.915 119.532C185.68 119.345 186.445 119.803 186.633 120.56L188.77 129.133C188.905 129.68 188.703 130.258 188.26 130.595L175.863 140.113C175.608 140.308 175.308 140.405 175 140.405V140.413Z" fill="#7A5AF8"/>
<path d="M174.978 125.712C171.003 125.712 167.095 124.392 163.675 121.902C159.01 118.512 155.463 113.187 153.588 106.812C152.763 106.782 151.953 106.46 151.225 105.852C149.718 104.607 148.683 102.29 148.443 99.6425C148.083 95.63 149.725 92.315 152.433 91.5725C153.828 91.19 154.968 91.46 155.725 91.76C156.423 90.875 157.495 88.9625 157.248 85.775C157.21 85.31 157.413 84.8525 157.78 84.56C158.148 84.2675 158.643 84.1775 159.085 84.32C159.243 84.3725 174.828 89.1425 187.218 80.9225C187.698 80.6075 188.32 80.6075 188.793 80.9225C189.265 81.245 189.505 81.815 189.393 82.3775C189.355 82.58 188.53 87.395 194.118 91.82C194.845 91.4975 196.053 91.16 197.545 91.565C200.253 92.3 201.895 95.6225 201.535 99.635C201.303 102.282 200.26 104.6 198.753 105.845C198.025 106.445 197.215 106.775 196.39 106.805C194.515 113.18 190.968 118.505 186.303 121.895C182.875 124.385 178.968 125.705 174.993 125.705L174.978 125.712ZM154.503 103.827C154.713 103.827 154.923 103.865 155.095 103.947C155.478 104.127 155.875 104.435 155.98 104.847C157.578 111.147 160.908 116.39 165.34 119.615C171.22 123.897 178.75 123.89 184.623 119.615C189.055 116.39 192.378 111.14 193.983 104.847C194.088 104.435 194.373 104.097 194.748 103.917C195.138 103.737 195.58 103.737 195.955 103.917C196.458 104.015 196.743 103.835 196.93 103.677C197.62 103.107 198.49 101.645 198.693 99.395C198.94 96.605 197.913 94.6175 196.78 94.31C195.865 94.0625 195.213 94.4075 194.823 94.6175C194.74 94.6625 194.44 94.805 194.35 94.835C193.93 94.97 193.465 94.895 193.105 94.6325C188.253 91.1375 186.888 87.1925 186.565 84.6125C176.05 90.35 164.508 88.5425 160.075 87.515C159.783 92.3075 157.008 94.505 156.873 94.6025C156.505 94.88 156.025 94.9625 155.59 94.835C155.5 94.805 155.2 94.6625 155.118 94.6175C154.728 94.4075 154.09 94.0625 153.16 94.31C152.02 94.6175 150.993 96.605 151.248 99.395C151.45 101.645 152.32 103.107 153.01 103.677C153.198 103.835 153.475 104.023 153.76 103.985C153.97 103.888 154.233 103.827 154.488 103.827H154.503Z" fill="#7A5AF8"/>
<path d="M166.735 188.675C166.15 188.675 165.565 188.495 165.062 188.127C164.177 187.49 163.742 186.417 163.93 185.337L165.257 177.62L159.647 172.138C158.867 171.373 158.59 170.255 158.927 169.212C159.265 168.178 160.142 167.435 161.23 167.277L168.977 166.152L172.457 159.118C173.417 157.16 176.605 157.16 177.565 159.118L181.03 166.138L188.792 167.27C189.872 167.428 190.75 168.17 191.095 169.205C191.432 170.248 191.155 171.365 190.375 172.123L184.765 177.59L186.085 185.322C186.272 186.402 185.837 187.467 184.952 188.105C184.067 188.75 182.92 188.832 181.952 188.322L175.022 184.678L168.077 188.322C167.657 188.54 167.207 188.652 166.75 188.652L166.735 188.675ZM175 181.873C175.457 181.873 175.907 181.985 176.327 182.203L183.257 185.848L181.96 178.115C181.802 177.193 182.11 176.248 182.777 175.595L188.387 170.128L180.625 168.973C179.695 168.838 178.892 168.253 178.48 167.413L175.015 160.4L175.007 160.385L171.52 167.42C171.107 168.26 170.305 168.845 169.375 168.98L161.627 170.105L167.222 175.603C167.897 176.255 168.197 177.2 168.04 178.123L166.712 185.84L173.672 182.217C174.085 182 174.542 181.888 175 181.888V181.873Z" fill="#7A5AF8"/>
<path d="M223.435 188.675C222.985 188.675 222.528 188.563 222.108 188.345L215.178 184.7L208.233 188.345C207.273 188.855 206.118 188.773 205.233 188.128C204.348 187.49 203.913 186.418 204.1 185.345L205.42 177.628L199.81 172.145C199.03 171.38 198.753 170.263 199.09 169.228C199.428 168.193 200.305 167.443 201.385 167.293L209.133 166.168L212.613 159.133C213.1 158.15 214.075 157.543 215.17 157.543C216.265 157.543 217.24 158.15 217.72 159.133L221.185 166.153L228.948 167.285C230.028 167.443 230.913 168.185 231.243 169.22C231.58 170.263 231.303 171.38 230.523 172.138L224.913 177.605L226.233 185.338C226.42 186.418 225.985 187.483 225.1 188.12C224.598 188.48 224.02 188.668 223.428 188.668L223.435 188.675ZM215.17 181.873C215.628 181.873 216.085 181.985 216.498 182.203L223.428 185.848L222.13 178.115C221.973 177.193 222.28 176.248 222.948 175.595L228.558 170.128L220.795 168.973C219.865 168.838 219.063 168.253 218.65 167.413L215.185 160.4L215.178 160.385L211.69 167.42C211.27 168.26 210.468 168.845 209.545 168.98L201.798 170.105L207.393 175.603C208.068 176.255 208.368 177.2 208.21 178.123L206.883 185.84L213.843 182.218C214.255 182 214.713 181.888 215.17 181.888V181.873Z" fill="#7A5AF8"/>
<path d="M126.565 188.675C125.98 188.675 125.395 188.495 124.893 188.127C124.008 187.49 123.573 186.417 123.76 185.337L125.088 177.62L119.478 172.138C118.698 171.373 118.42 170.255 118.758 169.22C119.095 168.185 119.973 167.435 121.053 167.285L128.8 166.16L132.28 159.125C132.76 158.15 133.743 157.535 134.83 157.535C135.918 157.535 136.9 158.143 137.388 159.118L140.853 166.138L148.615 167.27C149.695 167.427 150.58 168.17 150.91 169.205C151.248 170.247 150.97 171.365 150.19 172.122L144.588 177.59L145.908 185.322C146.088 186.402 145.653 187.467 144.775 188.112C143.89 188.75 142.743 188.84 141.775 188.33L134.845 184.685L127.9 188.33C127.48 188.547 127.03 188.66 126.573 188.66L126.565 188.675ZM134.83 181.872C135.288 181.872 135.745 181.985 136.158 182.202L143.088 185.847L141.79 178.115C141.633 177.193 141.94 176.248 142.608 175.595L148.218 170.127L140.463 168.973C139.54 168.838 138.738 168.26 138.318 167.412L134.853 160.393L134.845 160.377L131.358 167.412C130.945 168.252 130.143 168.838 129.213 168.973L121.465 170.098L127.06 175.595C127.735 176.248 128.035 177.193 127.878 178.115L126.558 185.832L133.51 182.21C133.923 181.992 134.38 181.88 134.838 181.88L134.83 181.872Z" fill="#7A5AF8"/>
<path d="M248.583 200H101.418C100.96 200 100.533 199.783 100.27 199.415C100 199.048 99.9325 198.568 100.075 198.14L108.415 173.12L100.075 148.085C99.9325 147.658 100 147.178 100.27 146.81C100.533 146.443 100.96 146.225 101.418 146.225H248.583C249.04 146.225 249.468 146.443 249.73 146.81C250 147.178 250.068 147.658 249.925 148.085L241.585 173.105L249.925 198.125C250.068 198.552 250 199.032 249.73 199.4C249.468 199.767 249.04 199.985 248.583 199.985V200ZM103.375 197.172H246.625L238.758 173.563C238.66 173.27 238.66 172.955 238.758 172.67L246.625 149.06H103.375L111.243 172.67C111.34 172.962 111.34 173.278 111.243 173.563L103.375 197.172Z" fill="#7A5AF8"/>
</g>
<defs>
<clipPath id="clip0_1895_17191">
<rect width="150" height="150" fill="white" transform="translate(100 50)"/>
</clipPath>
</defs>
</svg>
