<svg width="48" height="48" viewBox="0 0 48 48" fill="none" xmlns="http://www.w3.org/2000/svg">
<rect width="48" height="48" rx="24" fill="#FFEAD5"/>
<path d="M26 14H20.8C19.1198 14 18.2798 14 17.638 14.327C17.0735 14.6146 16.6146 15.0735 16.327 15.638C16 16.2798 16 17.1198 16 18.8V29.2C16 30.8802 16 31.7202 16.327 32.362C16.6146 32.9265 17.0735 33.3854 17.638 33.673C18.2798 34 19.1198 34 20.8 34H27.2C28.8802 34 29.7202 34 30.362 33.673C30.9265 33.3854 31.3854 32.9265 31.673 32.362C32 31.7202 32 30.8802 32 29.2V20M26 14L32 20M26 14V20H32M25.75 26V24.25C25.75 23.2835 24.9665 22.5 24 22.5C23.0335 22.5 22.25 23.2835 22.25 24.25V26M22.1 30H25.9C26.4601 30 26.7401 30 26.954 29.891C27.1422 29.7951 27.2951 29.6422 27.391 29.454C27.5 29.2401 27.5 28.9601 27.5 28.4V27.6C27.5 27.0399 27.5 26.7599 27.391 26.546C27.2951 26.3578 27.1422 26.2049 26.954 26.109C26.7401 26 26.4601 26 25.9 26H22.1C21.5399 26 21.2599 26 21.046 26.109C20.8578 26.2049 20.7049 26.3578 20.609 26.546C20.5 26.7599 20.5 27.0399 20.5 27.6V28.4C20.5 28.9601 20.5 29.2401 20.609 29.454C20.7049 29.6422 20.8578 29.7951 21.046 29.891C21.2599 30 21.5399 30 22.1 30Z" stroke="#FB6514" stroke-width="2" stroke-linecap="round" stroke-linejoin="round"/>
</svg>
