<svg width="56" height="57" viewBox="0 0 56 57" fill="none" xmlns="http://www.w3.org/2000/svg">
<rect y="0.5" width="56" height="56" rx="28" fill="#FAE5D0"/>
<path d="M23.4499 39.2579C21.8284 36.9438 20.8745 34.1284 20.8745 31.0885C20.8745 27.1517 24.0641 23.9609 27.9985 23.9609C31.9329 23.9609 35.1225 27.1517 35.1225 31.0885" stroke="#FF5E10" stroke-width="2.33333" stroke-linecap="round" stroke-linejoin="round"/>
<path d="M23.4501 39.2579C21.8285 36.9438 20.8746 34.1284 20.8746 31.0885C20.8746 27.1517 24.0642 23.9609 27.9986 23.9609C31.933 23.9609 35.1226 27.1517 35.1226 31.0885" stroke="#FF5E10" stroke-width="2" stroke-linecap="round" stroke-linejoin="round"/>
<path d="M35.5087 38.1969C35.3804 38.2041 35.2544 38.2159 35.125 38.2159C31.1906 38.2159 28.001 35.0252 28.001 31.0884" stroke="#FF5E10" stroke-width="2" stroke-linecap="round" stroke-linejoin="round"/>
<path d="M35.5088 38.197C35.3805 38.2042 35.2546 38.2161 35.1251 38.2161C31.1907 38.2161 28.0011 35.0253 28.0011 31.0885" stroke="#FF5E10" stroke-width="2" stroke-linecap="round" stroke-linejoin="round"/>
<path d="M29.481 40.1665C26.4541 38.2789 24.4382 34.9195 24.4382 31.0884C24.4382 29.12 26.0336 27.5246 28.0008 27.5246C29.968 27.5246 31.5634 29.12 31.5634 31.0884C31.5634 33.0568 33.1588 34.6522 35.126 34.6522C37.0932 34.6522 38.6886 33.0568 38.6886 31.0884C38.6886 25.1832 33.9036 20.3971 28.002 20.3971C22.1004 20.3971 17.3154 25.1832 17.3154 31.0884C17.3154 32.4046 17.4627 33.6864 17.7336 34.9219" stroke="#FF5E10" stroke-width="2" stroke-linecap="round" stroke-linejoin="round"/>
<path d="M29.481 40.1665C26.4541 38.2789 24.4382 34.9195 24.4382 31.0884C24.4382 29.12 26.0336 27.5246 28.0008 27.5246C29.968 27.5246 31.5634 29.12 31.5634 31.0884C31.5634 33.0568 33.1588 34.6522 35.126 34.6522C37.0932 34.6522 38.6886 33.0568 38.6886 31.0884C38.6886 25.1832 33.9036 20.3971 28.002 20.3971C22.1004 20.3971 17.3154 25.1832 17.3154 31.0884C17.3154 32.4046 17.4627 33.6864 17.7336 34.9219" stroke="#FF5E10" stroke-width="2" stroke-linecap="round" stroke-linejoin="round"/>
<path d="M37.9467 21.3404C35.5174 18.5808 31.9655 16.8334 28.0002 16.8334C24.0349 16.8334 20.483 18.5808 18.0537 21.3404" stroke="#FF5E10" stroke-width="2" stroke-linecap="round" stroke-linejoin="round"/>
<path d="M37.9467 21.3404C35.5174 18.5808 31.9655 16.8334 28.0002 16.8334C24.0349 16.8334 20.483 18.5808 18.0537 21.3404" stroke="#FF5E10" stroke-width="2" stroke-linecap="round" stroke-linejoin="round"/>
</svg>
