<svg width="48" height="48" viewBox="0 0 48 48" fill="none" xmlns="http://www.w3.org/2000/svg">
<rect width="48" height="48" rx="24" fill="#FFEAD5"/>
<path d="M25.2 17.3333L23.8614 14.3586C23.4761 13.5024 23.2834 13.0743 22.996 12.7616C22.7419 12.485 22.4356 12.2746 22.0993 12.1457C21.719 12 21.2882 12 20.4267 12H15.84C14.4959 12 13.8238 12 13.3104 12.2906C12.8588 12.5463 12.4917 12.9543 12.2616 13.456C12 14.0265 12 14.7732 12 16.2667V17.3333M12 17.3333H30.24C32.2562 17.3333 33.2643 17.3333 34.0344 17.7693C34.7117 18.1528 35.2625 18.7647 35.6076 19.5174C36 20.373 36 21.4931 36 23.7333V29.6C36 31.8402 36 32.9603 35.6076 33.816C35.2625 34.5686 34.7117 35.1805 34.0344 35.564C33.2643 36 32.2562 36 30.24 36H17.76C15.7438 36 14.7357 36 13.9656 35.564C13.2883 35.1805 12.7375 34.5686 12.3924 33.816C12 32.9603 12 31.8402 12 29.6V17.3333ZM24 31.3333C24 31.3333 27.6 29.4268 27.6 26.567V23.2305L24.9749 22.1883C24.3442 21.9372 23.6544 21.9372 23.0237 22.1883L20.4 23.2305V26.567C20.4 29.4268 24 31.3333 24 31.3333Z" stroke="#FB6514" stroke-width="2" stroke-linecap="round" stroke-linejoin="round"/>
</svg>
