<svg width="350" height="250" viewBox="0 0 350 250" fill="none" xmlns="http://www.w3.org/2000/svg">
<rect width="350" height="250" fill="#F6EAEB"/>
<g clip-path="url(#clip0_1934_84661)">
<path d="M248.583 168.867H211.788C211.008 168.867 210.37 168.237 210.37 167.45C210.37 166.662 211 166.032 211.788 166.032H246.138L236.028 148.34C235.78 147.905 235.78 147.372 236.028 146.937L246.138 129.245H103.855L113.965 146.937C114.213 147.372 114.213 147.905 113.965 148.34L103.855 166.032H138.205C138.985 166.032 139.623 166.662 139.623 167.45C139.623 168.237 138.993 168.867 138.205 168.867H101.418C100.915 168.867 100.45 168.597 100.195 168.162C99.9401 167.727 99.9401 167.187 100.195 166.752L111.115 147.642L100.188 128.532C99.9401 128.097 99.9401 127.557 100.188 127.122C100.443 126.687 100.908 126.417 101.41 126.417H248.583C249.085 126.417 249.55 126.687 249.805 127.122C250.06 127.557 250.06 128.097 249.805 128.532L238.885 147.642L249.805 166.752C250.053 167.187 250.053 167.727 249.805 168.162C249.55 168.597 249.085 168.867 248.583 168.867V168.867Z" fill="#A92F34"/>
<path d="M231.602 129.245C230.822 129.245 230.185 128.615 230.185 127.828V108.013C230.185 77.585 205.435 52.8275 175 52.8275C144.565 52.8275 119.815 77.585 119.815 108.02V127.835C119.815 128.615 119.185 129.253 118.397 129.253C117.61 129.253 116.98 128.623 116.98 127.835V108.02C116.98 76.025 143.005 50 175 50C206.995 50 233.02 76.025 233.02 108.02V127.835C233.02 128.615 232.39 129.253 231.602 129.253V129.245Z" fill="#A92F34"/>
<path d="M143.868 129.245C143.493 129.245 143.133 129.095 142.87 128.832C142.608 128.57 142.458 128.21 142.458 127.835V118.932C142.458 113.937 145.833 109.565 150.663 108.297L161.763 105.387C162.52 105.192 163.293 105.642 163.488 106.392C163.69 107.15 163.233 107.922 162.475 108.117L151.375 111.027C147.79 111.972 145.285 115.22 145.285 118.925V126.41H204.723V118.917C204.723 115.212 202.218 111.965 198.633 111.02L187.54 108.11C186.783 107.915 186.333 107.135 186.535 106.385C186.73 105.627 187.503 105.177 188.26 105.38L199.353 108.29C204.183 109.557 207.55 113.93 207.55 118.917V127.82C207.55 128.6 206.92 129.237 206.133 129.237H143.868V129.245Z" fill="#A92F34"/>
<path d="M175 116.15C174.783 116.15 174.565 116.098 174.37 116C160.75 109.198 160.72 107.623 160.698 106.783C160.683 106.228 160.99 105.725 161.485 105.478C163.758 104.36 165.498 101.083 165.985 98.57C166.135 97.805 166.885 97.3025 167.643 97.4525C168.408 97.6025 168.91 98.345 168.76 99.11C168.25 101.75 166.668 105.065 164.26 107.03C166.18 108.448 170.778 111.02 174.993 113.15C179.208 111.02 183.805 108.448 185.725 107.03C183.228 105.05 181.66 101.84 181.165 99.2C181.023 98.435 181.525 97.6925 182.298 97.55C183.085 97.4075 183.805 97.91 183.948 98.6825C184.488 101.548 186.408 104.413 188.523 105.493C189.003 105.74 189.303 106.235 189.295 106.775C189.28 107.623 189.258 109.198 175.623 116C175.42 116.098 175.21 116.15 174.993 116.15H175Z" fill="#A92F34"/>
<path d="M175 102.77C165.97 102.77 158.62 94.0775 158.62 83.3975C158.62 73.4 165.355 66.4175 175 66.4175C184.645 66.4175 191.388 73.4 191.388 83.3975C191.388 94.0775 184.038 102.77 175 102.77ZM175 69.245C166.893 69.245 161.448 74.93 161.448 83.3975C161.448 92.5175 167.53 99.9425 175 99.9425C182.47 99.9425 188.553 92.5175 188.553 83.3975C188.553 74.93 183.108 69.245 175 69.245V69.245Z" fill="#A92F34"/>
<path d="M189.97 84.8075C189.43 84.8075 188.92 84.5 188.68 83.975C186.475 79.1 182.178 77.7425 180.4 77.375C179.08 79.0475 176.148 80.9075 171.355 79.7675C164.703 78.1625 161.298 84.0275 161.26 84.0875C160.878 84.7625 160.015 85.0025 159.333 84.62C158.658 84.2375 158.418 83.3675 158.8 82.6925C160.33 80 165.07 75.3425 172.015 77.015C176.778 78.1625 178.278 75.5225 178.435 75.2225C178.698 74.7125 179.245 74.3825 179.808 74.435C180.13 74.4575 187.75 75.095 191.253 82.8125C191.575 83.525 191.253 84.365 190.548 84.6875C190.36 84.77 190.158 84.815 189.963 84.815L189.97 84.8075Z" fill="#A92F34"/>
<path d="M175 129.245C174.22 129.245 173.583 128.615 173.583 127.828V114.733C173.583 113.953 174.213 113.315 175 113.315C175.788 113.315 176.418 113.945 176.418 114.733V127.828C176.418 128.608 175.788 129.245 175 129.245V129.245Z" fill="#A92F34"/>
<path d="M175 200C174.61 200 174.235 199.835 173.965 199.55L134.343 157.1C133.96 156.688 133.855 156.087 134.08 155.57C134.305 155.052 134.815 154.715 135.378 154.715H214.623C215.185 154.715 215.695 155.052 215.92 155.57C216.145 156.087 216.04 156.688 215.658 157.1L176.035 199.55C175.765 199.835 175.39 200 175 200V200ZM138.633 157.55L175 196.513L211.368 157.55H138.633V157.55Z" fill="#A92F34"/>
<path d="M175 200C174.408 200 173.875 199.625 173.673 199.07L158.268 156.62C158.11 156.185 158.178 155.705 158.44 155.322C158.703 154.947 159.138 154.723 159.603 154.723H190.42C190.885 154.723 191.313 154.947 191.583 155.322C191.845 155.697 191.913 156.185 191.755 156.62L176.35 199.07C176.148 199.632 175.615 200 175.023 200H175ZM161.613 157.55L175 194.442L188.388 157.55H161.605H161.613Z" fill="#A92F34"/>
<path d="M214.623 157.55H135.378C134.793 157.55 134.268 157.19 134.058 156.65C133.848 156.103 133.99 155.488 134.418 155.098L149.823 140.945C150.085 140.705 150.423 140.57 150.783 140.57H199.21C199.563 140.57 199.908 140.705 200.17 140.945L215.575 155.098C216.003 155.495 216.145 156.11 215.935 156.65C215.725 157.19 215.2 157.55 214.615 157.55H214.623ZM139.008 154.723H210.985L198.655 143.405H151.33L139 154.723H139.008Z" fill="#A92F34"/>
<path d="M190.405 157.55H159.588C159.003 157.55 158.478 157.19 158.268 156.65C158.058 156.102 158.2 155.488 158.628 155.098L174.033 140.945C174.573 140.45 175.405 140.45 175.945 140.945L191.35 155.098C191.778 155.495 191.92 156.11 191.71 156.65C191.5 157.19 190.975 157.55 190.39 157.55H190.405ZM163.225 154.723H186.775L175 143.907L163.225 154.723Z" fill="#A92F34"/>
<path d="M190.405 157.55C190.15 157.55 189.888 157.483 189.663 157.333C189.003 156.92 188.793 156.05 189.213 155.382L198.018 141.23C198.43 140.57 199.308 140.36 199.968 140.78C200.628 141.192 200.838 142.062 200.418 142.73L191.613 156.882C191.343 157.31 190.885 157.55 190.413 157.55H190.405Z" fill="#A92F34"/>
<path d="M159.595 157.55C159.123 157.55 158.658 157.31 158.395 156.882L149.59 142.73C149.178 142.07 149.38 141.192 150.04 140.78C150.7 140.367 151.578 140.57 151.99 141.23L160.795 155.382C161.208 156.042 161.005 156.92 160.345 157.332C160.113 157.475 159.858 157.55 159.603 157.55H159.595Z" fill="#A92F34"/>
</g>
<defs>
<clipPath id="clip0_1934_84661">
<rect width="150" height="150" fill="white" transform="translate(100 50)"/>
</clipPath>
</defs>
</svg>
