<svg width="56" height="56" viewBox="0 0 56 56" fill="none" xmlns="http://www.w3.org/2000/svg">
<rect width="56" height="56" rx="28" fill="#FFFAEB"/>
<path d="M23.4499 38.7579C21.8284 36.4438 20.8745 33.6284 20.8745 30.5885C20.8745 26.6517 24.0641 23.4609 27.9985 23.4609C31.9329 23.4609 35.1225 26.6517 35.1225 30.5885" stroke="#F79009" stroke-width="2.33333" stroke-linecap="round" stroke-linejoin="round"/>
<path d="M23.4502 38.7579C21.8287 36.4438 20.8748 33.6284 20.8748 30.5885C20.8748 26.6517 24.0643 23.4609 27.9987 23.4609C31.9332 23.4609 35.1227 26.6517 35.1227 30.5885" stroke="#F79009" stroke-width="2" stroke-linecap="round" stroke-linejoin="round"/>
<path d="M35.5087 37.6969C35.3804 37.7041 35.2544 37.7159 35.125 37.7159C31.1906 37.7159 28.001 34.5252 28.001 30.5884" stroke="#F79009" stroke-width="2" stroke-linecap="round" stroke-linejoin="round"/>
<path d="M35.5089 37.6972C35.3806 37.7043 35.2547 37.7162 35.1252 37.7162C31.1908 37.7162 28.0012 34.5254 28.0012 30.5886" stroke="#F79009" stroke-width="2" stroke-linecap="round" stroke-linejoin="round"/>
<path d="M29.481 39.6667C26.4541 37.7791 24.4382 34.4196 24.4382 30.5885C24.4382 28.6202 26.0336 27.0248 28.0008 27.0248C29.968 27.0248 31.5634 28.6202 31.5634 30.5885C31.5634 32.5569 33.1588 34.1523 35.126 34.1523C37.0932 34.1523 38.6886 32.5569 38.6886 30.5885C38.6886 24.6834 33.9036 19.8972 28.002 19.8972C22.1004 19.8972 17.3154 24.6834 17.3154 30.5885C17.3154 31.9048 17.4627 33.1865 17.7336 34.422" stroke="#F79009" stroke-width="2" stroke-linecap="round" stroke-linejoin="round"/>
<path d="M29.481 39.6667C26.4541 37.7791 24.4382 34.4196 24.4382 30.5885C24.4382 28.6202 26.0336 27.0248 28.0008 27.0248C29.968 27.0248 31.5634 28.6202 31.5634 30.5885C31.5634 32.5569 33.1588 34.1523 35.126 34.1523C37.0932 34.1523 38.6886 32.5569 38.6886 30.5885C38.6886 24.6834 33.9036 19.8972 28.002 19.8972C22.1004 19.8972 17.3154 24.6834 17.3154 30.5885C17.3154 31.9048 17.4627 33.1865 17.7336 34.422" stroke="#F79009" stroke-width="2" stroke-linecap="round" stroke-linejoin="round"/>
<path d="M37.9467 20.8402C35.5174 18.0807 31.9655 16.3333 28.0002 16.3333C24.0349 16.3333 20.483 18.0807 18.0537 20.8402" stroke="#F79009" stroke-width="2" stroke-linecap="round" stroke-linejoin="round"/>
<path d="M37.9467 20.8402C35.5174 18.0807 31.9655 16.3333 28.0002 16.3333C24.0349 16.3333 20.483 18.0807 18.0537 20.8402" stroke="#F79009" stroke-width="2" stroke-linecap="round" stroke-linejoin="round"/>
</svg>
