<svg width="28" height="28" viewBox="0 0 28 28" fill="none" xmlns="http://www.w3.org/2000/svg">
<path d="M9.44999 24.7579C7.82848 22.4438 6.87457 19.6284 6.87457 16.5885C6.87457 12.6517 10.0642 9.46094 13.9986 9.46094C17.933 9.46094 21.1225 12.6517 21.1225 16.5885" stroke="#A92F34" stroke-width="2.33333" stroke-linecap="round" stroke-linejoin="round"/>
<path d="M9.4501 24.7579C7.82858 22.4438 6.87468 19.6284 6.87468 16.5885C6.87468 12.6517 10.0643 9.46094 13.9987 9.46094C17.9331 9.46094 21.1227 12.6517 21.1227 16.5885" stroke="#A92F34" stroke-width="2" stroke-linecap="round" stroke-linejoin="round"/>
<path d="M21.5086 23.6969C21.3804 23.7041 21.2544 23.7159 21.1249 23.7159C17.1905 23.7159 14.001 20.5252 14.001 16.5884" stroke="#A92F34" stroke-width="2" stroke-linecap="round" stroke-linejoin="round"/>
<path d="M21.5088 23.697C21.3805 23.7042 21.2546 23.7161 21.1251 23.7161C17.1907 23.7161 14.0011 20.5253 14.0011 16.5885" stroke="#A92F34" stroke-width="2" stroke-linecap="round" stroke-linejoin="round"/>
<path d="M15.481 25.6665C12.4541 23.7789 10.4382 20.4195 10.4382 16.5884C10.4382 14.62 12.0336 13.0246 14.0008 13.0246C15.968 13.0246 17.5634 14.62 17.5634 16.5884C17.5634 18.5568 19.1588 20.1522 21.126 20.1522C23.0932 20.1522 24.6886 18.5568 24.6886 16.5884C24.6886 10.6832 19.9036 5.89709 14.002 5.89709C8.10039 5.89709 3.31543 10.6832 3.31543 16.5884C3.31543 17.9046 3.46273 19.1864 3.73358 20.4219" stroke="#A92F34" stroke-width="2" stroke-linecap="round" stroke-linejoin="round"/>
<path d="M15.481 25.6665C12.4541 23.7789 10.4382 20.4195 10.4382 16.5884C10.4382 14.62 12.0336 13.0246 14.0008 13.0246C15.968 13.0246 17.5634 14.62 17.5634 16.5884C17.5634 18.5568 19.1588 20.1522 21.126 20.1522C23.0932 20.1522 24.6886 18.5568 24.6886 16.5884C24.6886 10.6832 19.9036 5.89709 14.002 5.89709C8.10039 5.89709 3.31543 10.6832 3.31543 16.5884C3.31543 17.9046 3.46273 19.1864 3.73358 20.4219" stroke="#A92F34" stroke-width="2" stroke-linecap="round" stroke-linejoin="round"/>
<path d="M23.9467 6.84036C21.5174 4.08081 17.9655 2.33337 14.0002 2.33337C10.0349 2.33337 6.48302 4.08081 4.05371 6.84036" stroke="#A92F34" stroke-width="2" stroke-linecap="round" stroke-linejoin="round"/>
<path d="M23.9467 6.84036C21.5174 4.08081 17.9655 2.33337 14.0002 2.33337C10.0349 2.33337 6.48302 4.08081 4.05371 6.84036" stroke="#A92F34" stroke-width="2" stroke-linecap="round" stroke-linejoin="round"/>
</svg>
