<svg width="86" height="86" viewBox="0 0 86 86" fill="none" xmlns="http://www.w3.org/2000/svg">
<path d="M83.9308 2.03003H1.90582V84.055H83.9308V2.03003Z" fill="#162D4C"/>
<path d="M37.7359 14.3117V14.27H62.4709V14.3134L37.7359 14.3117Z" fill="#E4B935"/>
<path d="M37.7359 14.3116H62.4709C62.2839 15.2109 62.1003 16.1111 61.909 17.0095C61.1769 20.4475 60.4425 23.8843 59.7058 27.32C59.4083 28.7166 59.1108 30.114 58.8099 31.5088C58.7717 31.6788 58.7887 31.7392 58.9799 31.7417C59.6599 31.7519 60.3399 31.7417 61.0199 31.7154C61.3525 31.6956 61.6863 31.7173 62.0136 31.78C62.6086 31.9058 62.7743 32.335 62.4182 32.834C62.219 33.0936 61.9601 33.3012 61.6634 33.4392C60.9927 33.7851 60.2668 33.933 59.5282 34.0291C59.1642 34.0849 58.7965 34.1134 58.4283 34.1141C58.2855 34.1141 58.2489 34.1804 58.2251 34.2951C57.9985 35.3718 57.7698 36.4507 57.5392 37.5319L55.4405 47.4277C55.398 47.6283 55.3555 47.828 55.3156 48.0303C55.2952 48.1442 55.2544 48.213 55.1243 48.1892C55.089 48.1858 55.0534 48.1858 55.0181 48.1892H30.816C30.5236 48.1892 30.5245 48.1893 30.5874 47.89C31.7989 42.1848 33.0099 36.4796 34.2203 30.7744C34.4906 29.5017 34.7617 28.2295 35.0337 26.9579C35.0573 26.8844 35.0525 26.8046 35.0201 26.7344C34.6589 26.0195 34.5441 25.2435 34.4685 24.4598C34.2755 22.4674 34.7388 20.5642 35.2819 18.6755C35.4392 18.1315 36.0308 17.7966 36.6759 17.8697C36.9131 17.8961 36.9811 17.8315 37.0253 17.6071C37.2403 16.5327 37.4758 15.4625 37.7053 14.3907C37.7131 14.3635 37.7233 14.337 37.7359 14.3116ZM46.1509 31.9066C46.2142 31.8998 46.278 31.8998 46.3413 31.9066C47.1182 32.0834 47.516 31.6244 47.8305 31.0252C47.8662 30.9563 47.9027 30.8866 47.9333 30.8161C48.1518 30.3188 48.1509 30.318 47.7489 29.9661C47.7224 29.9412 47.694 29.9185 47.6639 29.8981C47.4879 29.791 47.4888 29.6762 47.5967 29.5011C47.9311 28.9572 48.4198 28.525 49.0006 28.2596C49.5814 27.9943 50.228 27.9078 50.8582 28.0111C51.0737 28.0403 51.277 28.1285 51.4455 28.2661C51.998 28.7089 52.5692 29.1263 53.1523 29.5292C53.6887 29.91 54.2485 30.2566 54.8285 30.567C55.0436 30.6792 55.0555 30.6741 55.0359 30.4429C54.9985 30.006 54.9552 29.5694 54.9059 29.1331C54.7962 28.1522 54.4996 27.2486 53.8723 26.4607C53.4226 25.8963 52.9951 25.314 52.5361 24.7564C52.4914 24.7084 52.4583 24.6509 52.4393 24.5881C52.4203 24.5253 52.4159 24.4591 52.4264 24.3943C52.5284 23.5902 52.5301 23.5851 52.0286 22.9493C50.9236 21.5485 49.6112 20.3483 48.2699 19.1804C48.191 19.1206 48.0989 19.0804 48.0013 19.0631C47.074 18.835 46.1253 18.7048 45.1708 18.6747C44.6166 18.6492 44.1032 18.7104 43.6485 19.0504C43.277 19.3283 42.8835 19.3742 42.4168 19.2969C40.9106 19.0461 39.3968 18.8404 37.8846 18.6262C37.4443 18.5642 37.0083 18.4562 36.5586 18.4783C36.1719 18.4962 35.9568 18.6305 35.8591 18.9492C35.3771 20.5234 35.0091 22.1206 35.0626 23.7823C35.0905 25.3159 35.5983 26.8022 36.5144 28.0323C37.5344 29.4076 38.9148 30.2899 40.4933 30.8875C42.3131 31.5743 44.2154 31.8199 46.1466 31.9032L46.1509 31.9066ZM45.9809 42.3387C45.8916 42.3973 45.833 42.4364 45.7735 42.4738C45.0365 42.9362 44.3004 43.4003 43.5592 43.8559C43.4096 43.9477 43.4028 43.9953 43.5422 44.1109C44.7322 45.0927 45.9171 46.0821 47.1046 47.0681C47.1343 47.0936 47.1615 47.1369 47.2244 47.1072C47.2372 46.8879 47.2627 46.6626 47.2593 46.4374C47.2588 46.1831 47.3124 45.9316 47.4165 45.6996C47.7472 44.9108 48.0634 44.116 48.3881 43.3247C48.4296 43.2277 48.4485 43.1224 48.4433 43.017C48.4144 42.3166 48.3872 41.6162 48.366 40.9158C48.3624 40.7891 48.3239 40.6658 48.2546 40.5596C47.5032 39.3441 46.7569 38.1261 46.003 36.9114C45.9695 36.8632 45.9478 36.8078 45.9395 36.7496C45.9313 36.6915 45.9367 36.6322 45.9554 36.5765C46.0812 36.1422 46.1951 35.7044 46.32 35.2692C46.3672 35.099 46.3816 34.9213 46.3625 34.7456C46.3183 34.2662 46.2775 33.7868 46.2444 33.3066C46.235 33.1468 46.19 33.0941 46.0208 33.0932C44.8951 33.094 43.7721 32.9827 42.6684 32.7609C39.7946 32.1659 37.4783 30.7277 35.8259 28.2737C35.7928 28.2253 35.7766 28.1556 35.6882 28.136C35.6789 28.176 35.6687 28.2151 35.6602 28.2542C34.9269 31.7324 34.1939 35.2112 33.4612 38.6905C33.3694 39.1248 33.3694 39.1299 33.8063 39.1758C34.0885 39.2056 34.3571 39.2957 34.6563 39.1869C36.1056 38.6658 37.5642 38.1711 39.0177 37.6569C39.0897 37.6237 39.1697 37.6114 39.2484 37.6213C39.3271 37.6313 39.4015 37.663 39.4631 37.713C41.3926 39.09 43.326 40.4619 45.2635 41.8287L45.9809 42.3387ZM39.186 38.4652C39.186 39.5056 39.186 40.5316 39.186 41.5584C39.1878 41.7336 39.1534 41.9072 39.0848 42.0684C38.5238 43.4037 37.9696 44.7425 37.4069 46.0778C37.375 46.1397 37.3596 46.2088 37.3622 46.2783C37.3649 46.3479 37.3856 46.4156 37.4222 46.4748C37.5412 46.6839 37.6466 46.8998 37.7444 47.1199C37.7624 47.1756 37.799 47.2234 37.848 47.2553C37.8971 47.2872 37.9556 47.3012 38.0138 47.295C39.367 47.2874 40.7194 47.295 42.0717 47.2891C42.1304 47.2891 42.1975 47.3163 42.2604 47.2474C42.1363 46.9924 42.0165 46.7281 41.8822 46.4731C41.8133 46.3504 41.7927 46.2064 41.8244 46.0693C42.1559 44.4492 42.4789 42.8266 42.8155 41.2073C42.8495 41.0467 42.8155 40.9668 42.688 40.8775C41.5784 40.1052 40.4709 39.33 39.3653 38.5519C39.3165 38.5 39.2502 38.468 39.1792 38.4618L39.186 38.4652ZM57.8987 33.5743C58.0543 33.5743 58.2098 33.5794 58.3654 33.5743C59.2944 33.5369 60.2116 33.4222 61.0956 33.1162C61.3676 33.035 61.6183 32.8948 61.83 32.7056C61.9303 32.6096 62.0212 32.4965 61.9626 32.3512C61.9107 32.222 61.7705 32.2126 61.6532 32.2118C61.3701 32.2118 61.0854 32.2041 60.8032 32.2296C59.6093 32.3437 58.4048 32.2543 57.2408 31.9653C55.1702 31.451 53.3249 30.4744 51.6181 29.2198C51.3966 29.0468 51.1321 28.9377 50.8531 28.9044C50.0566 28.8194 49.3647 29.0039 48.8496 29.6635C48.7544 29.785 48.7519 29.8624 48.8768 29.9729C49.5338 30.5552 50.2419 31.0772 50.9925 31.5326C53.109 32.8229 55.3912 33.5726 57.8919 33.5709L57.8987 33.5743ZM51.5628 32.6546C51.5849 32.8025 51.6053 32.9096 51.6164 33.0244C51.6512 33.3899 51.7711 33.7452 51.7345 34.1175C51.6223 35.259 51.3792 36.381 51.2296 37.5175C51.114 38.4023 50.9959 39.288 51.0435 40.1822C51.0817 40.9047 51.3163 41.5558 51.9292 41.9851C52.5072 42.3897 53.1421 42.5129 53.8094 42.1687C53.8613 42.1468 53.9048 42.109 53.9339 42.0607C53.9629 42.0124 53.9758 41.9562 53.9709 41.9001C53.9682 41.6597 53.9446 41.4199 53.9003 41.1835C53.8706 41.0339 53.8221 40.9948 53.6606 41.0237C53.0605 41.1317 52.6483 40.6999 52.7656 40.104C52.8684 39.5804 53.0767 39.0925 53.2756 38.6021C53.7592 37.4248 54.3338 36.2875 54.8362 35.1171C54.9645 34.7874 55.0432 34.4405 55.0699 34.0877C55.0835 33.9721 55.0699 33.9126 54.9254 33.8939C54.6876 33.8592 54.452 33.8104 54.2199 33.7477C53.2894 33.5036 52.3958 33.1359 51.5628 32.6546Z" fill="#DFAC0F"/>
<path d="M46.5359 58.0127C46.785 58.0527 47.0291 58.1188 47.2644 58.2099C48.0362 58.532 48.4476 59.1296 48.485 59.9447C48.5547 61.4501 47.8296 62.5559 46.6328 63.3847C45.8636 63.9144 44.9505 64.1957 44.0165 64.1905C42.7781 64.1998 41.5388 64.1905 40.2995 64.1905C39.968 64.1905 39.8932 64.097 39.9595 63.7757C40.7092 60.1428 41.4591 56.5099 42.2094 52.877C42.2859 52.5038 42.3794 52.4307 42.7534 52.4307C43.5533 52.4307 44.3531 52.4307 45.1538 52.4307C45.8942 52.4307 46.6243 52.5157 47.3094 52.8175C48.0523 53.1447 48.6099 53.6581 48.6898 54.5047C48.8037 55.7126 48.3966 56.7283 47.4233 57.4899C47.1462 57.6941 46.8488 57.8693 46.5359 58.0127ZM43.2575 62.8177V62.805C43.5193 62.805 43.7811 62.816 44.042 62.805C45.2992 62.7446 46.1237 62.0196 46.3506 60.7837C46.5342 59.779 46.0463 59.0837 45.0442 58.9324C44.4186 58.8397 43.787 58.9103 43.1589 58.8882C43.0552 58.8882 43.0492 58.946 43.0348 59.0174C42.9651 59.3633 42.8928 59.7093 42.8206 60.0544C42.6438 60.9044 42.4704 61.7544 42.2876 62.6044C42.2502 62.7744 42.2825 62.8381 42.4729 62.8254C42.733 62.805 42.9957 62.8177 43.2575 62.8177ZM43.963 57.5129C44.2313 57.529 44.5006 57.5136 44.7654 57.467C45.742 57.2434 46.4875 56.3739 46.5844 55.342C46.6617 54.5217 46.3005 54.0338 45.4972 53.8689C45.1411 53.7958 44.7798 53.8162 44.4211 53.7933C44.1746 53.7771 44.0913 53.8519 44.0446 54.0976C43.8397 55.1788 43.6128 56.2557 43.3816 57.3327C43.345 57.5027 43.396 57.5222 43.5388 57.5129C43.6816 57.5035 43.821 57.5129 43.963 57.5129Z" fill="white"/>
<path d="M56.4308 56.7513C56.5421 56.4751 56.645 56.2413 56.73 56.0059C56.7539 55.9128 56.8105 55.8314 56.8895 55.7766C56.9685 55.7219 57.0645 55.6973 57.1601 55.7075C57.5213 55.7152 57.8826 55.7075 58.2438 55.7075C58.5116 55.7075 58.5898 55.807 58.5388 56.0628C58.1421 58.0229 57.7454 59.9833 57.3488 61.944C57.3084 62.1021 57.2947 62.2658 57.308 62.4285C57.3445 62.7005 57.4355 62.7965 57.7075 62.8322C57.8775 62.8543 57.9489 62.9478 57.92 63.1076C57.8715 63.3788 57.8154 63.6491 57.75 63.9168C57.7359 63.9986 57.6925 64.0724 57.6279 64.1244C57.5632 64.1763 57.4818 64.2029 57.3989 64.199C57.0588 64.2148 56.7181 64.1816 56.3874 64.1004C55.8647 63.9627 55.5791 63.6252 55.5128 63.0804C55.5051 63.0184 55.5026 62.9554 55.4966 62.8823C55.4048 62.9044 55.3725 62.981 55.3266 63.0337C54.2726 64.1846 52.967 64.5925 51.4455 64.3282C50.4204 64.1497 49.7829 63.5097 49.5534 62.4871C49.3571 61.6159 49.4625 60.7557 49.6384 59.898C49.8458 58.878 50.1952 57.9167 50.8284 57.0684C51.9224 55.5902 53.6836 55.2766 55.0232 55.6123C55.6428 55.773 56.1001 56.1487 56.4308 56.7513ZM51.4158 61.4645C51.4159 61.6563 51.4324 61.8477 51.4651 62.0366C51.5577 62.601 51.8688 62.9138 52.4332 63.0082C53.5382 63.1935 54.5956 62.7132 55.1456 61.7221C55.691 60.724 55.957 59.5973 55.9157 58.4607C55.8961 57.6566 55.5145 57.1576 54.8379 56.9595C54.4408 56.8506 54.024 56.8346 53.6198 56.9128C52.9041 57.0335 52.4868 57.5129 52.1944 58.1232C51.6878 59.1789 51.5076 60.3119 51.4158 61.4645Z" fill="white"/>
<path d="M72.823 52.503C72.5878 53.6477 72.3521 54.7901 72.1158 55.9302C71.8812 57.0717 71.6475 58.2133 71.4112 59.3625C71.5217 59.3557 71.5574 59.2775 71.6092 59.2265C72.6709 58.175 73.7342 57.1253 74.7882 56.0662C74.8955 55.9491 75.0273 55.8571 75.1742 55.7967C75.3212 55.7363 75.4796 55.7091 75.6382 55.7168C76.0267 55.7313 76.4168 55.7168 76.8061 55.7245C76.8911 55.7245 76.9982 55.7015 77.0356 55.7865C77.073 55.8715 76.9693 55.931 76.9107 55.9854C75.6073 57.2123 74.3 58.4368 72.9888 59.6591C72.8511 59.7875 72.8511 59.8674 72.9488 60.0187C73.7614 61.2775 74.5638 62.5432 75.3722 63.8063C75.4104 63.8658 75.4487 63.9261 75.4818 63.9873C75.5515 64.1148 75.5133 64.2041 75.3688 64.2049C74.7525 64.2049 74.1363 64.2109 73.5209 64.1973C73.3364 64.1973 73.2302 64.0468 73.1401 63.893C72.5286 62.8424 71.9149 61.7941 71.299 60.748C71.2616 60.6842 71.2437 60.6026 71.1494 60.5584C70.9743 61.4084 70.8017 62.2474 70.6275 63.088C70.5731 63.3515 70.5212 63.615 70.4617 63.8768C70.4022 64.1386 70.3028 64.2092 70.0486 64.2109C69.6525 64.2109 69.2556 64.2109 68.8586 64.2109C68.505 64.2109 68.4387 64.1327 68.5093 63.7935C68.7269 62.7421 68.9479 61.6906 69.1655 60.6383C69.6426 58.3428 70.116 56.0506 70.5858 53.7618C70.5932 53.7036 70.6156 53.6482 70.6507 53.6011C70.6859 53.554 70.7326 53.5169 70.7864 53.4932C71.3942 53.1923 71.9968 52.8812 72.602 52.5761C72.6664 52.5296 72.7436 52.504 72.823 52.503Z" fill="white"/>
<path d="M62.3519 57.0794C62.6466 56.6848 62.9867 56.3262 63.3651 56.011C64.2584 55.28 66.0689 55.3939 66.9087 56.1614C67.5887 56.7845 67.7732 57.5826 67.6261 58.4479C67.4349 59.5691 67.1807 60.6792 66.9589 61.7952C66.9104 62.0375 66.8645 62.2831 66.9317 62.5313C66.9784 62.7056 67.0532 62.8458 67.2717 62.8441C67.4553 62.8441 67.5267 62.9563 67.4961 63.1255C67.4476 63.3958 67.3932 63.6669 67.3303 63.9347C67.3158 64.0132 67.2734 64.0838 67.2109 64.1335C67.1484 64.1832 67.0701 64.2086 66.9903 64.205C66.6504 64.2236 66.3097 64.1889 65.9805 64.1021C65.2155 63.8871 64.8381 63.3371 64.8755 62.4871C64.9002 61.91 65.0693 61.3592 65.1705 60.7965C65.3082 60.0315 65.5385 59.2835 65.581 58.5015C65.5908 58.3464 65.5908 58.1908 65.581 58.0357C65.5215 57.1772 64.986 56.7675 64.1437 56.9103C63.8805 56.9528 63.6294 57.0506 63.4067 57.197C63.1841 57.3435 62.9949 57.5355 62.8517 57.7603C62.4726 58.3162 62.3119 58.9503 62.1776 59.598C61.8847 61.009 61.5891 62.42 61.2911 63.831C61.2282 64.1285 61.127 64.2058 60.8227 64.2067C60.4122 64.2067 60.0008 64.2067 59.5902 64.2067C59.3293 64.2067 59.2502 64.0996 59.2995 63.8429C59.6962 61.9043 60.0946 59.9657 60.4946 58.0272C60.5388 57.813 60.5915 57.6022 60.5269 57.3778C60.4759 57.2078 60.3841 57.0973 60.1869 57.0811C59.9498 57.0616 59.8988 56.9791 59.9464 56.7411C59.994 56.5031 60.0416 56.2694 60.0909 56.0348C60.1016 55.9454 60.1453 55.8632 60.2133 55.8043C60.2814 55.7454 60.3689 55.7139 60.4589 55.716C60.806 55.6938 61.1545 55.7277 61.4908 55.8163C62.051 55.9787 62.2847 56.2651 62.3408 56.8448C62.3408 56.906 62.3408 56.9672 62.3519 57.0794Z" fill="white"/>
<path d="M12.7085 57.4908H13.992C14.6295 57.4908 15.267 57.4908 15.9045 57.4908C16.2113 57.4908 16.2853 57.5809 16.2249 57.8818C16.1773 58.1172 16.1263 58.3518 16.0736 58.5864C16.0065 58.8822 15.9036 58.9638 15.5815 58.9638C14.604 58.9638 13.6265 58.9638 12.6498 58.957C12.4637 58.957 12.3863 58.9927 12.3464 59.1942C12.0506 60.6919 11.7361 62.1853 11.4292 63.6813C11.3442 64.1063 11.2762 64.1641 10.8342 64.1641C10.4305 64.1641 10.0267 64.1641 9.62382 64.1641C9.33142 64.1641 9.25577 64.0698 9.31527 63.7825C9.67227 62.0519 10.0301 60.3218 10.3888 58.5924C10.7798 56.7025 11.1697 54.813 11.5584 52.9237C11.6536 52.4613 11.7174 52.4052 12.1951 52.4061L17.7201 52.4163C18.1145 52.4163 18.174 52.4885 18.0932 52.8651C18.0456 53.0861 18.0006 53.3079 17.9479 53.5281C17.8824 53.8026 17.7855 53.8791 17.5033 53.8791C16.2283 53.8791 14.9533 53.8791 13.6783 53.8791C13.5083 53.8791 13.4369 53.9106 13.4012 54.0916C13.1802 55.2179 12.9439 56.345 12.7085 57.4908Z" fill="white"/>
<path d="M29.4288 64.3775C28.7561 64.3713 28.0887 64.2565 27.4526 64.0375C27.2283 63.9678 27.0243 63.845 26.8576 63.6797C26.6876 63.502 26.6876 63.3397 26.8363 63.1493C26.9332 63.0277 27.0412 62.9155 27.1449 62.7982C27.3999 62.5067 27.4424 62.4965 27.8249 62.6282C28.3553 62.8067 28.8891 62.9682 29.4526 62.9963C29.9516 63.0226 30.442 63.0031 30.9129 62.811C31.0983 62.7383 31.2626 62.6206 31.3912 62.4685C31.5197 62.3163 31.6083 62.1346 31.649 61.9397C31.7281 61.6329 31.6388 61.4212 31.3694 61.2512C31.0826 61.0829 30.7759 60.951 30.4565 60.8585C30.0944 60.7412 29.7331 60.6146 29.3651 60.5185C28.0476 60.1675 27.7305 59.1738 27.9881 58.0425C28.2949 56.6952 29.3608 55.7475 30.7778 55.5452C31.7867 55.4032 32.7829 55.4602 33.7332 55.8792C33.9241 55.9547 34.1005 56.0628 34.2543 56.1988C34.4124 56.3501 34.4243 56.4759 34.2883 56.6434C34.1183 56.8457 33.9415 57.0361 33.7723 57.2384C33.6873 57.3378 33.5947 57.331 33.4859 57.2996C33.0719 57.1814 32.6767 57.0004 32.2508 56.923C31.7655 56.838 31.2793 56.8083 30.7999 56.946C30.5931 57.0006 30.4039 57.1074 30.2505 57.2563C30.097 57.4052 29.9844 57.591 29.9235 57.796C29.7705 58.2507 29.938 58.5754 30.3953 58.7191C30.9614 58.8967 31.53 59.065 32.0953 59.2376C32.381 59.317 32.6559 59.4311 32.9138 59.5776C33.3915 59.8623 33.6278 60.2899 33.6559 60.8364C33.7315 62.3035 32.9419 63.4672 31.4867 64.0384C30.8619 64.2832 30.2108 64.3801 29.4288 64.3775Z" fill="white"/>
<path d="M36.5331 56.9817C36.2739 56.9817 36.0121 56.9817 35.7511 56.9817C35.4485 56.9817 35.3814 56.9026 35.4392 56.6128C35.4808 56.4045 35.5242 56.1971 35.5743 55.9914C35.5885 55.9062 35.6336 55.8293 35.7011 55.7755C35.7686 55.7217 35.8536 55.6947 35.9398 55.6999C36.1736 55.6999 36.4082 55.6863 36.6411 55.6999C36.7975 55.7109 36.8451 55.6514 36.8697 55.5069C36.9343 55.1244 37.0176 54.7419 37.0907 54.362C37.1043 54.2923 37.1103 54.2285 37.1876 54.192C37.8872 53.8401 38.5859 53.4848 39.305 53.1201C39.3237 53.3488 39.2497 53.54 39.2132 53.7338C39.1018 54.3288 38.9803 54.9128 38.8545 55.501C38.8213 55.6548 38.8443 55.7135 39.0202 55.7041C39.3092 55.6897 39.6008 55.6973 39.8906 55.7041C40.1252 55.7084 40.1983 55.7934 40.1567 56.0254C40.115 56.2575 40.0649 56.4683 40.0113 56.6876C39.9578 56.9069 39.8218 56.991 39.6084 56.9893C39.3041 56.9893 38.999 56.9893 38.6947 56.9893C38.5859 56.9893 38.5306 57.014 38.5068 57.1296C38.1912 58.7106 37.8727 60.2904 37.5514 61.8692C37.5124 62.0502 37.5215 62.2384 37.5778 62.4149C37.6207 62.5359 37.701 62.6403 37.807 62.7128C37.913 62.7854 38.0393 62.8224 38.1677 62.8186C38.7295 62.8331 38.7346 62.8382 38.6275 63.3915C38.5944 63.5615 38.557 63.7375 38.517 63.9092C38.5053 63.9877 38.4655 64.0593 38.405 64.1107C38.3445 64.1621 38.2675 64.1899 38.1881 64.1888C37.7359 64.1999 37.2794 64.2296 36.8281 64.1497C35.9441 63.9916 35.5063 63.4697 35.491 62.5619C35.4808 61.9669 35.6432 61.4 35.7596 60.8254C36.0146 59.5648 36.2773 58.3051 36.5357 57.0446C36.5376 57.0236 36.5368 57.0024 36.5331 56.9817Z" fill="white"/>
<path d="M24.7972 56.6484C24.8795 56.5429 24.9672 56.4416 25.0598 56.345C25.6948 55.7432 26.4708 55.5417 27.3225 55.5579C27.4925 55.5579 27.5665 55.6123 27.5206 55.8035C27.4288 56.1809 27.3582 56.5634 27.2766 56.9434C27.2044 57.2834 27.093 57.3395 26.7539 57.2978C25.8843 57.1916 24.9332 57.4908 24.6501 58.7428C24.2727 60.4173 23.9115 62.0961 23.5451 63.7731C23.4601 64.1735 23.3853 64.2347 22.9705 64.2338C22.5957 64.2338 22.22 64.2338 21.8451 64.2338C21.5519 64.2338 21.4796 64.1395 21.5417 63.8505C21.9593 61.9091 22.3775 59.9683 22.7963 58.028C22.8412 57.8568 22.8635 57.6805 22.8626 57.5035C22.849 57.2213 22.747 57.104 22.4639 57.0581C22.2939 57.0309 22.214 56.9357 22.2472 56.7623C22.2956 56.5073 22.3441 56.2523 22.4019 55.9973C22.4137 55.9115 22.4568 55.8331 22.5228 55.777C22.5888 55.7208 22.6731 55.691 22.7597 55.693C23.1983 55.6862 23.6378 55.693 24.0636 55.8231C24.4597 55.9438 24.7028 56.1988 24.7368 56.6289L24.7972 56.6484Z" fill="white"/>
<path d="M17.3614 62.7489C17.3792 62.1429 17.5543 61.564 17.6801 60.9775C18.0261 59.3625 18.3814 57.7475 18.7341 56.1325C18.7987 55.8359 18.9041 55.7551 19.2016 55.7534C19.5983 55.7534 19.9949 55.7534 20.3916 55.7534C20.69 55.7534 20.7622 55.8384 20.7002 56.1266C20.2825 58.0612 19.8635 59.9952 19.443 61.9287C19.3855 62.1629 19.3645 62.4046 19.381 62.6452C19.4065 62.9164 19.5025 63.0192 19.7643 63.0583C19.9207 63.0821 19.993 63.1748 19.9666 63.3235C19.9173 63.6023 19.8612 63.8794 19.7966 64.154C19.7805 64.2274 19.7394 64.2929 19.6803 64.3394C19.6213 64.3859 19.5479 64.4105 19.4728 64.409C19.0478 64.4226 18.6228 64.3886 18.2233 64.2194C17.6308 63.9729 17.3461 63.4748 17.3614 62.7489Z" fill="white"/>
<path d="M47.057 69.3891C47.7744 69.7963 47.8373 70.6131 47.227 71.2022C46.7816 71.6357 45.8092 71.7751 45.2567 71.4861C45.1278 71.4241 45.0194 71.3266 44.9441 71.2051C44.8688 71.0836 44.8298 70.9431 44.8317 70.8001C44.8149 70.5548 44.8675 70.3097 44.9834 70.0928C45.0993 69.876 45.2738 69.696 45.487 69.5736C45.5932 69.5073 45.7097 69.4571 45.8202 69.4036C45.8202 69.3874 45.8202 69.3679 45.8134 69.3645C45.2091 69.0517 45.3434 68.4779 45.6596 68.0283C45.8194 67.8174 46.0484 67.6697 46.3064 67.6109C46.595 67.5348 46.8968 67.5232 47.1904 67.5769C47.4726 67.6237 47.731 67.741 47.8186 68.0436C47.872 68.2048 47.8832 68.377 47.8513 68.5438C47.8193 68.7106 47.7451 68.8664 47.6358 68.9964C47.4854 69.1732 47.2865 69.2795 47.057 69.3891ZM45.5559 70.5876C45.5496 70.7088 45.5884 70.828 45.6648 70.9222C45.7413 71.0164 45.8499 71.0789 45.9698 71.0976C46.5317 71.2183 47.0748 70.6437 46.9346 70.0776C46.912 69.9657 46.8514 69.8651 46.7631 69.7927C46.6748 69.7204 46.5642 69.6808 46.45 69.6807C45.9715 69.6603 45.5542 70.0819 45.5559 70.5876ZM46.7314 68.0648C46.6502 68.0643 46.5696 68.0797 46.4944 68.1103C46.4192 68.1409 46.3507 68.186 46.2929 68.2431C46.2351 68.3002 46.1891 68.3681 46.1576 68.443C46.1261 68.5178 46.1096 68.5982 46.1092 68.6794C46.1058 68.7358 46.1136 68.7924 46.1323 68.8458C46.151 68.8991 46.1802 68.9482 46.2181 68.9902C46.256 69.0321 46.3019 69.0661 46.3531 69.0901C46.4044 69.1141 46.4598 69.1276 46.5164 69.1299C46.8266 69.135 47.1538 68.7899 47.1606 68.4575C47.1649 68.2246 46.9915 68.0665 46.7314 68.0648Z" fill="white"/>
<path d="M50.9882 68.3419C50.9707 68.1527 50.8914 67.9745 50.7625 67.8348C50.6336 67.6952 50.4623 67.6018 50.2751 67.5692C50.0089 67.5216 49.735 67.543 49.4795 67.6313C48.7468 67.8956 48.4807 68.4923 48.4119 69.197C48.3396 69.9552 48.7799 70.3462 49.5398 70.2578C49.8271 70.2238 50.0252 70.0631 50.2292 69.8753C50.2092 70.1227 50.1308 70.3619 50.0005 70.5731C49.7804 70.9709 49.4514 71.1732 48.9856 71.095C48.8313 71.0774 48.679 71.0449 48.5309 70.9981C48.2759 70.9021 48.2699 71.1273 48.1977 71.2438C48.1076 71.3891 48.2648 71.4206 48.3481 71.4614C49.0511 71.8107 49.8229 71.6603 50.3031 71.0228C50.9049 70.2348 51.1157 69.3211 50.9882 68.3419ZM50.3796 68.7184C50.3485 68.9576 50.2715 69.1885 50.1527 69.3984C50.0184 69.6186 49.8339 69.7512 49.5628 69.7384C49.2228 69.7299 49.074 69.5778 49.0817 69.1885C49.0974 68.9576 49.1574 68.7319 49.2585 68.5238C49.322 68.3807 49.4275 68.2603 49.5611 68.1787C49.7591 68.0639 49.9776 68.0019 50.1824 68.1328C50.3873 68.2637 50.4179 68.4889 50.3796 68.7184Z" fill="white"/>
<path d="M52.9058 70.625H51.4013C51.1931 70.625 51.1531 70.5595 51.2483 70.37C51.2861 70.3026 51.3324 70.2403 51.386 70.1847C52.0737 69.3959 52.7724 68.6164 53.4464 67.8166C53.6445 67.5811 53.8714 67.6058 54.1171 67.6185C54.2556 67.6253 54.2021 67.7401 54.1859 67.8149C54.0658 68.4031 53.9445 68.9907 53.8221 69.5778C53.8012 69.7105 53.7729 69.8419 53.7371 69.9713C53.6887 70.1209 53.755 70.1294 53.8774 70.1362C53.9734 70.1413 54.1443 70.0512 54.14 70.2637C54.1341 70.5527 54.0712 70.6445 53.8553 70.6216C53.6394 70.5986 53.5637 70.6845 53.5501 70.8766C53.5403 70.9465 53.5264 71.0157 53.5085 71.084C53.4022 71.6042 53.4022 71.5999 52.871 71.571C52.7392 71.5634 52.7154 71.5107 52.7392 71.401C52.7945 71.152 52.8463 70.9029 52.9058 70.625ZM53.3036 68.6836L52.0924 70.1286C52.4001 70.1286 52.6508 70.1286 52.9016 70.1286C52.9172 70.1307 52.9331 70.1296 52.9483 70.1253C52.9634 70.1209 52.9775 70.1135 52.9897 70.1034C53.0018 70.0934 53.0118 70.0809 53.0188 70.0668C53.0259 70.0527 53.03 70.0373 53.0308 70.0215C53.1158 69.5965 53.2033 69.1698 53.3028 68.6827L53.3036 68.6836Z" fill="white"/>
<path d="M28.6596 71.6178C28.3351 71.6173 28.0138 71.5538 27.7135 71.4308C27.6387 71.3985 27.4917 71.3789 27.5588 71.2608C27.626 71.1426 27.6379 70.9131 27.8776 70.9701C28.2058 71.0572 28.5444 71.0989 28.884 71.0942C29.0624 71.09 29.2373 71.043 29.394 70.9573C29.7892 70.7363 29.8037 70.3147 29.4127 70.0844C29.2203 69.9822 29.0215 69.8925 28.8177 69.8158C27.9787 69.4545 27.8232 68.636 28.4887 68.0019C29.0242 67.4919 29.6694 67.4485 30.3519 67.6236C30.4131 67.6398 30.4726 67.6619 30.533 67.6823C30.8568 67.7936 30.8628 67.8174 30.686 68.0971C30.6768 68.1176 30.6636 68.136 30.6473 68.1514C30.6309 68.1668 30.6116 68.1788 30.5906 68.1867C30.5696 68.1946 30.5472 68.1983 30.5248 68.1975C30.5023 68.1967 30.4803 68.1914 30.4599 68.1821C30.128 68.0787 29.7794 68.0406 29.4331 68.0699C29.3156 68.0772 29.2016 68.1123 29.1003 68.1723C28.9991 68.2323 28.9136 68.3154 28.8508 68.415C28.6808 68.6912 28.7437 68.942 29.0336 69.0839C29.2299 69.18 29.4373 69.2539 29.6379 69.3389C30.5032 69.7061 30.6256 70.6717 29.8827 71.2514C29.5733 71.4894 29.1645 71.6152 28.6596 71.6178Z" fill="white"/>
<path d="M33.6754 69.1358C33.8734 68.9225 34.0392 68.721 34.3154 68.6598C35.0643 68.4949 35.5811 68.9947 35.4281 69.7444C35.3567 70.0972 35.281 70.4491 35.213 70.8027C35.1892 70.9285 35.1748 71.0415 35.3439 71.1112C35.4765 71.1656 35.3618 71.2974 35.3575 71.3943C35.3592 71.4154 35.3564 71.4367 35.3494 71.4567C35.3424 71.4767 35.3313 71.495 35.3169 71.5105C35.3024 71.5261 35.2849 71.5384 35.2654 71.5468C35.2459 71.5551 35.2249 71.5593 35.2037 71.5592C34.7396 71.6119 34.4489 71.3135 34.5305 70.8511C34.5917 70.5035 34.6665 70.1584 34.7345 69.8116C34.7469 69.7556 34.7546 69.6988 34.7574 69.6416C34.7634 69.4401 34.7574 69.2361 34.5441 69.1316C34.3605 69.0406 34.0723 69.118 33.9074 69.3016C33.7425 69.4852 33.6669 69.7266 33.6159 69.9731C33.5173 70.4431 33.4153 70.9123 33.3226 71.3841C33.3217 71.4102 33.3153 71.4358 33.3038 71.4593C33.2923 71.4827 33.2761 71.5035 33.256 71.5203C33.236 71.537 33.2126 71.5494 33.1875 71.5565C33.1624 71.5637 33.136 71.5654 33.1101 71.5617C32.6129 71.5736 32.6137 71.5779 32.714 71.0908C32.8245 70.5508 32.9342 70.011 33.043 69.4716C33.0693 69.3398 33.1067 69.2004 32.9121 69.1511C32.8271 69.129 32.8458 69.0483 32.8679 68.9922C32.907 68.8944 32.8585 68.7525 33.0081 68.71C33.0801 68.6872 33.1562 68.6805 33.231 68.6904C33.3059 68.7002 33.3776 68.7264 33.4413 68.767C33.5049 68.8076 33.5588 68.8617 33.5993 68.9254C33.6398 68.9891 33.6657 69.061 33.6754 69.1358Z" fill="white"/>
<path d="M40.0462 70.3649C39.8626 70.3649 39.6773 70.3742 39.4945 70.3649C39.3585 70.3564 39.3245 70.4142 39.3245 70.5349C39.3067 70.982 39.5481 71.2191 39.9909 71.1647C40.1731 71.1418 40.3524 71.1008 40.5264 71.0423C40.6616 70.9973 40.7117 71.0423 40.7653 71.1571C40.8188 71.2718 40.795 71.3602 40.6803 71.418C40.331 71.5954 39.9375 71.6669 39.5481 71.6237C38.8893 71.5591 38.591 71.1775 38.653 70.5145C38.6797 70.1542 38.7746 69.8023 38.9327 69.4775C39.2582 68.8289 39.8677 68.5297 40.5664 68.67C40.9727 68.755 41.2124 69.021 41.2328 69.435C41.2396 69.5622 41.231 69.6898 41.2073 69.8149C41.1223 70.2246 40.9523 70.3632 40.5349 70.3717C40.3726 70.3717 40.2094 70.3717 40.047 70.3717L40.0462 70.3649ZM39.4367 69.8999H40.3437C40.3784 69.9041 40.4136 69.8983 40.4452 69.8832C40.4768 69.8682 40.5035 69.8445 40.5222 69.8149C40.614 69.6577 40.5706 69.3279 40.4372 69.1987C40.3037 69.0695 40.1048 69.0593 39.9076 69.1715C39.6314 69.327 39.5302 69.605 39.4367 69.8999Z" fill="white"/>
<path d="M20.4673 52.52C20.6934 52.52 20.9195 52.5149 21.1473 52.52C21.353 52.5259 21.4337 52.6203 21.3946 52.8175C21.3062 53.2606 21.2127 53.702 21.1141 54.1418C21.0623 54.3687 20.9441 54.4614 20.7061 54.4631C20.2811 54.4631 19.8561 54.4631 19.4311 54.4631C19.1659 54.4588 19.0911 54.3577 19.1481 54.0993C19.2331 53.6853 19.3249 53.2714 19.4175 52.8591C19.4728 52.6126 19.5824 52.5251 19.8298 52.5191C20.0414 52.5191 20.2548 52.5191 20.4656 52.5191L20.4673 52.52Z" fill="white"/>
<path d="M43.6927 68.4294C43.4632 68.5246 43.2575 68.6105 43.0501 68.6929C42.9991 68.7133 42.9251 68.749 42.8937 68.7286C42.8325 68.6895 42.8809 68.6122 42.8843 68.551C42.8971 68.33 43.0101 68.2016 43.2243 68.1209C43.6136 67.9713 43.9893 67.7936 44.3744 67.6296C44.4305 67.6049 44.4925 67.5446 44.5444 67.5803C44.5962 67.616 44.552 67.6984 44.5444 67.7562C44.3004 68.9547 44.0522 70.1524 43.8108 71.3509C43.7785 71.5115 43.7071 71.5693 43.5397 71.5668C43.056 71.56 43.0594 71.5668 43.1589 71.095C43.3357 70.2586 43.5074 69.4205 43.6808 68.5833C43.6867 68.5433 43.6859 68.5 43.6927 68.4294Z" fill="white"/>
<path d="M35.9832 70.6012C35.9919 70.2107 36.0853 69.8267 36.2569 69.4758C36.6113 68.7363 37.5565 68.4039 38.2782 68.7677C38.37 68.8145 38.5408 68.8383 38.4805 69.0074C38.4116 69.1961 38.2442 69.2769 38.0793 69.1987C37.429 68.8927 36.9692 69.2777 36.7949 69.82C36.7013 70.0874 36.6586 70.3699 36.6691 70.653C36.6912 71.0049 36.9097 71.1919 37.2641 71.163C37.4323 71.1408 37.5973 71.0986 37.7554 71.0372C37.8404 71.0092 37.9169 70.982 37.9603 71.1001C37.996 71.1979 38.0648 71.2829 37.9484 71.3823C37.5905 71.6875 36.6674 71.7113 36.2994 71.4172C36.0308 71.2081 35.9764 70.9157 35.9832 70.6012Z" fill="white"/>
<path d="M30.9427 70.9199C31.0209 70.5298 31.1127 70.0699 31.2087 69.6033C31.258 69.361 31.3158 69.1205 31.3583 68.8774C31.359 68.8512 31.3652 68.8255 31.3766 68.802C31.3879 68.7784 31.4041 68.7575 31.4241 68.7406C31.4441 68.7238 31.4674 68.7113 31.4926 68.7041C31.5177 68.6969 31.5441 68.6951 31.57 68.6989C32.0723 68.6836 32.0698 68.6793 31.9695 69.1638C31.8581 69.7036 31.7476 70.2425 31.6414 70.7831C31.6159 70.914 31.5912 71.0381 31.774 71.1086C31.9032 71.1579 31.7935 71.2786 31.7893 71.373C31.785 71.4673 31.7595 71.5362 31.6516 71.5574C31.2699 71.6322 30.9427 71.3747 30.9427 70.9199Z" fill="white"/>
<path d="M31.9737 67.486C32.0587 67.486 32.1242 67.486 32.1871 67.486C32.25 67.486 32.3069 67.5132 32.2942 67.5846C32.2653 67.7435 32.2296 67.9008 32.1905 68.0572C32.1752 68.1167 32.1208 68.1371 32.0613 68.1481C31.5598 68.2382 31.502 68.1677 31.604 67.6755C31.6558 67.4086 31.8479 67.5089 31.9737 67.486Z" fill="white"/>
<path d="M46.1466 31.9032C44.2154 31.8182 42.3131 31.5743 40.4916 30.8832C38.9131 30.2882 37.5327 29.4034 36.5127 28.0281C35.5966 26.7979 35.0888 25.3117 35.0609 23.7781C35.0108 22.1163 35.3754 20.5192 35.8574 18.945C35.9551 18.6262 36.1702 18.4919 36.5569 18.4741C37.0066 18.452 37.4426 18.5591 37.8829 18.622C39.3951 18.8362 40.9089 19.0419 42.4151 19.2926C42.8809 19.37 43.2753 19.3241 43.6468 19.0461C44.1015 18.7061 44.6149 18.6449 45.1691 18.6704C46.1241 18.7027 47.0731 18.8352 48.0005 19.0657C48.098 19.0829 48.1901 19.1231 48.2691 19.183C49.6104 20.3509 50.9202 21.5511 52.0278 22.9519C52.5293 23.586 52.5276 23.5911 52.4256 24.3969C52.415 24.4616 52.4194 24.5279 52.4384 24.5906C52.4575 24.6534 52.4906 24.711 52.5352 24.759C52.9942 25.3166 53.4218 25.8988 53.8714 26.4632C54.4987 27.2512 54.7954 28.1547 54.905 29.1356C54.9543 29.5714 54.9977 30.008 55.0351 30.4455C55.0546 30.6767 55.0427 30.6818 54.8277 30.5696C54.2477 30.2592 53.6879 29.9125 53.1515 29.5317C52.5684 29.1288 51.9972 28.7115 51.4447 28.2686C51.2762 28.1311 51.0729 28.0428 50.8573 28.0136C50.2272 27.9103 49.5806 27.9968 48.9998 28.2622C48.419 28.5275 47.9303 28.9597 47.5959 29.5037C47.4879 29.6788 47.4871 29.7935 47.663 29.9006C47.6931 29.921 47.7216 29.9437 47.748 29.9686C48.1501 30.3171 48.1509 30.318 47.9325 30.8186C47.9019 30.8892 47.8653 30.9589 47.8296 31.0277C47.5151 31.6227 47.1173 32.086 46.3404 31.9092C46.2762 31.9001 46.2112 31.8981 46.1466 31.9032ZM48.207 24.4904L47.0587 23.2018C46.9626 23.0938 46.9099 23.2018 46.8538 23.2477C46.2724 23.7543 45.6922 24.2626 45.113 24.7726C45.0637 24.8159 44.9906 24.8448 44.9804 24.9383L48.207 24.4904Z" fill="#162D4C"/>
<path d="M45.9741 42.3353L45.2592 41.8253C43.3246 40.4551 41.3911 39.084 39.4588 37.7121C39.3972 37.6621 39.3228 37.6304 39.2441 37.6205C39.1654 37.6106 39.0855 37.6229 39.0134 37.656C37.5599 38.166 36.1013 38.6616 34.6521 39.186C34.3503 39.2948 34.0817 39.2047 33.8021 39.175C33.3652 39.1291 33.3652 39.124 33.457 38.6896C34.188 35.2086 34.9192 31.7287 35.6508 28.2499C35.6593 28.2108 35.6695 28.1717 35.6789 28.1318C35.7639 28.1513 35.7834 28.221 35.8166 28.2695C37.469 30.7234 39.7852 32.165 42.6591 32.7566C43.7627 32.9784 44.8857 33.0898 46.0115 33.089C46.1815 33.089 46.2257 33.1425 46.235 33.3023C46.2648 33.7826 46.309 34.262 46.3532 34.7414C46.3722 34.917 46.3578 35.0947 46.3107 35.265C46.1857 35.7002 46.0718 36.1379 45.946 36.5723C45.9273 36.628 45.9219 36.6872 45.9302 36.7454C45.9385 36.8035 45.9602 36.8589 45.9936 36.9072C46.7476 38.1218 47.4939 39.3399 48.2453 40.5554C48.3145 40.6616 48.353 40.7848 48.3566 40.9115C48.3779 41.6119 48.4051 42.3123 48.434 43.0127C48.4392 43.1182 48.4203 43.2234 48.3787 43.3204C48.054 44.1118 47.7378 44.9065 47.4072 45.6953C47.3031 45.9273 47.2495 46.1788 47.2499 46.4331C47.2499 46.6584 47.2278 46.8836 47.2151 47.1029C47.1522 47.1327 47.125 47.0893 47.0952 47.0638C45.9052 46.0778 44.7237 45.0884 43.5329 44.1067C43.3935 43.9919 43.4003 43.9443 43.5499 43.8517C44.2911 43.3961 45.0272 42.932 45.7641 42.4696C45.8262 42.433 45.8848 42.3939 45.9741 42.3353Z" fill="#162D4C"/>
<path d="M39.1792 38.4619C39.2487 38.469 39.3133 38.501 39.3611 38.552C40.4689 39.3272 41.5764 40.1015 42.6837 40.875C42.8129 40.9643 42.8452 41.045 42.8112 41.2048C42.4712 42.8198 42.1516 44.4467 41.8201 46.0668C41.7885 46.2039 41.8091 46.3479 41.8779 46.4706C42.0122 46.7256 42.1329 46.9882 42.2562 47.2449C42.1933 47.3138 42.1261 47.2866 42.0675 47.2866C40.7151 47.2866 39.3628 47.2866 38.0096 47.2925C37.9514 47.2987 37.8929 47.2846 37.8438 47.2527C37.7947 47.2209 37.7581 47.1731 37.7401 47.1174C37.6424 46.8981 37.537 46.6814 37.418 46.4723C37.3813 46.413 37.3607 46.3454 37.358 46.2758C37.3553 46.2062 37.3707 46.1372 37.4027 46.0753C37.9654 44.74 38.5196 43.4012 39.0806 42.0659C39.1491 41.9047 39.1836 41.731 39.1817 41.5559C39.1758 40.5282 39.1792 39.5023 39.1792 38.4619Z" fill="#162D4C"/>
<path d="M57.8919 33.571C55.3912 33.571 53.109 32.823 50.9874 31.531C50.2368 31.0755 49.5287 30.5535 48.8717 29.9712C48.7468 29.8607 48.7493 29.7834 48.8445 29.6618C49.3596 29.0022 50.0515 28.8186 50.848 28.9028C51.127 28.936 51.3915 29.0451 51.613 29.2181C53.3198 30.4727 55.1651 31.4494 57.2357 31.9636C58.3985 32.2507 59.6016 32.3386 60.7938 32.2237C61.0752 32.1982 61.3599 32.2033 61.6438 32.2059C61.7611 32.2059 61.8988 32.2161 61.9532 32.3453C62.0119 32.4906 61.9209 32.6003 61.8206 32.6997C61.609 32.8889 61.3582 33.029 61.0862 33.1103C60.2022 33.4163 59.2851 33.531 58.356 33.5684C58.203 33.5761 58.0475 33.571 57.8919 33.571Z" fill="#162D4C"/>
<path d="M51.5628 32.6547C52.3965 33.1365 53.291 33.5044 54.2225 33.7486C54.4545 33.8113 54.6901 33.8601 54.928 33.8948C55.0682 33.9135 55.0861 33.973 55.0725 34.0886C55.0458 34.4414 54.967 34.7883 54.8387 35.118C54.3364 36.2867 53.7618 37.424 53.2781 38.603C53.0767 39.0934 52.8684 39.5813 52.7681 40.1049C52.6508 40.6999 53.063 41.1326 53.6631 41.0246C53.8246 40.9957 53.8731 41.0348 53.9029 41.1844C53.9471 41.4208 53.9707 41.6605 53.9734 41.901C53.9784 41.9571 53.9654 42.0133 53.9364 42.0616C53.9074 42.1098 53.8638 42.1477 53.8119 42.1696C53.1446 42.5138 52.5097 42.3906 51.9317 41.986C51.3189 41.5567 51.0817 40.9056 51.046 40.1831C50.9984 39.2889 51.1166 38.4032 51.2322 37.5184C51.3818 36.3828 51.6249 35.2608 51.7371 34.1184C51.7736 33.7461 51.6521 33.3908 51.6189 33.0253C51.6053 32.9131 51.5849 32.8 51.5628 32.6547Z" fill="#162D4C"/>
<path d="M48.207 24.4904L44.977 24.9384C44.9872 24.8449 45.062 24.816 45.1096 24.7726C45.6882 24.2626 46.2685 23.7543 46.8504 23.2477C46.9065 23.1992 46.9592 23.0938 47.0553 23.2018L48.207 24.4904Z" fill="#DCAA10"/>
</svg>
