<svg width="201" height="44" viewBox="0 0 201 44" fill="none" xmlns="http://www.w3.org/2000/svg">
<g clip-path="url(#clip0_1131_71581)">
<path fill-rule="evenodd" clip-rule="evenodd" d="M156.947 42.768L148.981 13.5054L137.176 40.5918C136.756 41.4699 136.24 42.1571 135.629 42.6535C135.056 43.1116 134.33 43.3407 133.451 43.3407C131.732 43.3407 130.49 42.4244 129.726 40.5918L120.176 19.8619L120.844 42.768H113.566V3.59847C114.063 1.61327 115.266 0.620667 117.177 0.620667C117.94 0.620667 118.647 0.83064 119.297 1.25059C119.984 1.67053 120.5 2.28136 120.844 3.08308L133.68 32.5175L146.516 3.08308C147.205 1.44147 148.37 0.620667 150.012 0.620667C151.769 0.620667 152.934 1.61327 153.508 3.59847L164.167 42.768H156.947ZM20.6368 42.9592C17.7335 42.9592 15.0401 42.4247 12.5569 41.3557C10.1119 40.2485 7.9725 38.7597 6.13875 36.8889C4.3432 34.9801 2.92969 32.7277 1.89819 30.1317C0.904906 27.5357 0.408264 24.7296 0.408264 21.7136C0.408264 18.6596 0.904906 15.8727 1.89819 13.3529C2.92969 10.8332 4.3432 8.69534 6.13875 6.9392C7.9725 5.14489 10.1119 3.77051 12.5569 2.8161C15.0401 1.8235 17.7335 1.3272 20.6368 1.3272H43.215V8.59989H20.6368C18.7649 8.59989 17.0266 8.94349 15.4222 9.63068C13.8558 10.2797 12.4996 11.1959 11.3535 12.3794C10.2074 13.5629 9.30962 14.9754 8.66016 16.6171C8.01071 18.2586 7.68599 20.0721 7.68599 22.0572C7.68599 24.0043 8.01071 25.8176 8.66016 27.4975C9.30962 29.1772 10.2074 30.628 11.3535 31.8496C12.4996 33.0331 13.8558 33.9684 15.4222 34.6557C17.0266 35.3429 18.7649 35.6865 20.6368 35.6865H38.4586V24.8633H19.6626V18.7358H45.7938V42.9592H20.6368ZM51.7359 42.9592V1.3272H59.0136V42.9592H51.7359ZM76.4116 41.3557C78.8948 42.4247 81.5881 42.9592 84.4915 42.9592H109.648V18.7358H83.5173V24.8633H102.313V35.6865H84.4915C82.6196 35.6865 80.8813 35.3429 79.2767 34.6557C77.7104 33.9684 76.3543 33.0331 75.2081 31.8496C74.0621 30.628 73.1642 29.1772 72.5148 27.4975C71.8654 25.8176 71.5406 24.0043 71.5406 22.0572C71.5406 20.0721 71.8654 18.2586 72.5148 16.6171C73.1642 14.9754 74.0621 13.5629 75.2081 12.3794C76.3543 11.1959 77.7104 10.2797 79.2767 9.63068C80.8813 8.94349 82.6196 8.59989 84.4915 8.59989H107.07V1.3272H84.4915C81.5881 1.3272 78.8948 1.8235 76.4116 2.8161C73.9666 3.77051 71.8272 5.14489 69.9934 6.9392C68.1978 8.69534 66.7844 10.8332 65.7528 13.3529C64.7595 15.8727 64.2629 18.6596 64.2629 21.7136C64.2629 24.7296 64.7595 27.5357 65.7528 30.1317C66.7844 32.7277 68.1978 34.9801 69.9934 36.8889C71.8272 38.7597 73.9666 40.2485 76.4116 41.3557ZM186.97 38.664C186.97 41.8938 184.786 43.1307 182.775 43.1307H182.757C180.317 43.1307 178.581 41.4986 178.581 38.7843C178.581 36.0012 180.334 34.3347 182.879 34.3347C185.388 34.3347 186.97 36.1215 186.97 38.664ZM181.606 38.7327C181.606 40.0556 181.967 41.0004 182.81 41.0004H182.826C183.583 41.0004 183.944 40.0383 183.944 38.7327C183.944 37.5816 183.635 36.4651 182.81 36.4651C181.899 36.4651 181.606 37.6161 181.606 38.7327ZM178.026 40.5881C177.682 40.7427 177.304 40.7943 176.84 40.7943C175.775 40.7943 174.931 40.0728 174.931 38.6983C174.915 37.427 175.688 36.6368 176.806 36.6368C177.339 36.6368 177.7 36.7227 177.975 36.8258L178.37 34.6096C177.889 34.4378 177.218 34.352 176.635 34.352C173.573 34.352 171.924 36.3105 171.924 38.8186C171.924 41.5329 173.608 43.1135 176.256 43.1135C177.115 43.1135 177.906 42.9761 178.319 42.8043L178.026 40.5881ZM169.561 43.1307C170.575 43.1307 171.263 42.4092 171.263 41.3612C171.246 40.2789 170.541 39.5746 169.577 39.5746C168.615 39.5746 167.875 40.3132 167.875 41.3612C167.875 42.4092 168.597 43.1307 169.544 43.1307H169.561ZM188.016 42.9589H190.922V37.994C190.922 37.7707 190.938 37.5473 191.007 37.3756C191.145 37.0663 191.403 36.7398 191.867 36.7398C192.538 36.7398 192.744 37.3927 192.744 38.183V42.9589H195.649V37.994C195.649 37.8051 195.666 37.5473 195.718 37.4099C195.855 37.0147 196.147 36.7398 196.595 36.7398C197.231 36.7398 197.471 37.3583 197.471 38.3547V42.9589H200.377V37.9081C200.377 35.6747 199.466 34.3347 197.695 34.3347C197.162 34.3347 196.698 34.455 196.285 34.6612C195.873 34.8845 195.511 35.2109 195.202 35.606H195.167C194.842 34.8329 194.067 34.3347 193.018 34.3347C191.729 34.3347 190.991 35.0563 190.647 35.5374H190.595L190.457 34.5066H187.947C187.982 35.314 188.016 36.276 188.016 37.324V42.9589ZM160.475 7.64507H158.988V3.13543H157.655V1.85554H161.833V3.13543H160.475V7.64507ZM168.317 7.64507H166.908L166.831 5.64365C166.814 5.05094 166.796 4.29504 166.796 3.47901H166.77C166.625 4.20056 166.401 5.02518 166.247 5.57493L165.722 7.5248H164.588L164.132 5.58352C164.002 5.03377 163.831 4.21774 163.719 3.47901H163.702C163.677 4.01814 163.653 4.58787 163.631 5.08533V5.10239L163.616 5.44445L163.608 5.64365L163.521 7.64507H162.181L162.567 1.85554H164.441L164.82 3.4962C164.974 4.1662 165.137 4.90491 165.249 5.60069H165.275C165.412 4.91351 165.593 4.13184 165.747 3.4876L166.16 1.85554H168.008L168.317 7.64507Z" fill="#F63C38"/>
</g>
<defs>
<clipPath id="clip0_1131_71581">
<rect width="200" height="42.7586" fill="white" transform="translate(0.408264 0.620667)"/>
</clipPath>
</defs>
</svg>
