<svg width="84" height="86" viewBox="0 0 84 86" fill="none" xmlns="http://www.w3.org/2000/svg">
<g clip-path="url(#clip0_1131_71575)">
<path fill-rule="evenodd" clip-rule="evenodd" d="M0 0.5H83.9956V85.5H0V0.5Z" fill="#D94F00"/>
<path fill-rule="evenodd" clip-rule="evenodd" d="M47.789 16.9824H69.3214V38.5562H47.789V16.9824ZM21.7576 49.4689V51.5794H25.4687V62.7451H28.0276V51.4942H31.4829V49.3836L21.7576 49.4703V49.4689ZM19.8464 52.0854V49.9749C17.7935 49.0468 15.4326 48.7664 13.0154 49.9749C9.05127 51.7471 8.90959 60.5232 12.8752 62.2391C15.1522 63.3927 19.9013 62.8578 20.3798 61.8445V54.897H15.6582V56.7257H17.7371V60.383C10.9061 63.7021 9.64112 47.753 19.8464 52.0854ZM35.6451 56.613H38.0898C40.1138 56.6982 40.6487 60.5232 38.0059 60.4943H35.6451V56.613ZM35.6451 51.2412H38.0898C40.1138 51.6069 39.3837 54.6166 38.0059 54.7005H35.6451V51.2412ZM33.1151 49.1885V62.6323H39.8333C43.2625 61.3949 43.4042 56.0795 39.8333 55.5158C43.1223 55.1515 43.2914 49.1032 37.6127 49.1032L33.1151 49.1885ZM44.9771 52.9571V54.9534C46.7756 54.4475 50.6833 53.0409 50.3176 56.0232C46.8883 55.7976 44.555 56.4164 44.1617 58.5529C43.5155 63.1672 48.4627 63.6168 50.5431 61.3385V62.4357H52.9039V54.3347C52.3141 51.7182 48.4078 51.3814 44.9771 52.9571ZM46.9722 58.1612C47.5071 57.4572 49.2217 57.4846 50.3739 57.8229V59.5952C48.4916 61.619 45.4556 60.6924 46.9736 58.1597L46.9722 58.1612ZM57.7962 55.3481C58.415 54.673 61.704 53.4067 62.21 55.3481V62.4921H64.8513V54.926C64.2889 51.7746 61.2804 51.2123 57.6271 53.3503V52.1692H55.126V62.5485H57.7673L57.7962 55.3481ZM73.1438 52.0565L69.6872 56.6968L73.3419 62.4068L76.5181 62.323L72.4991 56.8385L76.1249 52.1403L73.1453 52.0565H73.1438ZM66.8203 48.6522H69.4342V62.4068H66.8189V48.6536L66.8203 48.6522Z" fill="white"/>
<path fill-rule="evenodd" clip-rule="evenodd" d="M47.7891 16.9824H69.3214V38.5562H47.7891V16.9824Z" fill="white"/>
</g>
<defs>
<clipPath id="clip0_1131_71575">
<rect width="83.9956" height="85" fill="white" transform="translate(0 0.5)"/>
</clipPath>
</defs>
</svg>
