<svg width="350" height="250" viewBox="0 0 350 250" fill="none" xmlns="http://www.w3.org/2000/svg">
<rect width="350" height="250" fill="#FFFCF5"/>
<g clip-path="url(#clip0_2407_126387)">
<g clip-path="url(#clip1_2407_126387)">
<path d="M185.203 107.486V105.01H182.283V101H179.25V105.01V107.486V111.186V113.534L177.777 111.186L175.45 107.486L173.895 105.01L171.378 101H168.321V105.01H165.4V107.486H168.321V111.186H165.4V113.662H168.321V118.6H171.378V113.662V111.186V107.486V106.116L172.241 107.486L174.563 111.186L176.123 113.662L179.225 118.6H182.283V113.662H185.203V111.186H182.283V107.486H185.203Z" fill="#F79009"/>
</g>
<path d="M175.624 131.847C163.371 131.847 153.4 121.876 153.4 109.623C153.4 97.3707 163.371 87.4001 175.624 87.4001C187.876 87.4001 197.847 97.3707 197.847 109.623C197.847 121.876 187.876 131.847 175.624 131.847ZM175.624 91.6111C165.68 91.6111 157.584 99.7071 157.584 109.651C157.584 119.594 165.68 127.69 175.624 127.69C185.567 127.69 193.663 119.594 193.663 109.651C193.663 99.7071 185.567 91.6111 175.624 91.6111Z" fill="#F79009"/>
<path d="M175.496 80.0501C174.355 80.0501 173.404 79.1264 173.404 77.9582V67.0911C173.404 65.95 174.328 64.9991 175.496 64.9991C176.664 64.9991 177.588 65.9228 177.588 67.0911V77.9582C177.588 79.0992 176.664 80.0501 175.496 80.0501Z" fill="#F79009"/>
<path d="M189.786 83.8808C189.433 83.8808 189.079 83.7993 188.753 83.6091C187.748 83.0386 187.422 81.7617 187.993 80.7565L193.426 71.3293C193.997 70.324 195.274 69.998 196.279 70.5686C197.284 71.1391 197.61 72.416 197.04 73.4212L191.606 82.8484C191.226 83.5276 190.519 83.8808 189.786 83.8808Z" fill="#F79009"/>
<path d="M161.205 83.8808C160.472 83.8808 159.793 83.5004 159.385 82.8484L153.952 73.4212C153.381 72.416 153.707 71.1391 154.712 70.5686C155.718 69.998 156.994 70.324 157.565 71.3293L162.998 80.7565C163.569 81.7617 163.243 83.0386 162.238 83.6091C161.912 83.7993 161.559 83.8808 161.205 83.8808Z" fill="#F79009"/>
<path d="M227.876 166.688H192.042C190.982 166.688 190.086 165.9 189.977 164.841L189.217 158.022C188.728 153.62 189.543 149.219 191.526 145.307L209.294 110.396C209.538 109.935 209.783 109.5 210.109 109.12L200.41 92.9275C198.046 88.8252 199.16 83.6905 202.991 80.9466C206.903 78.1483 212.336 78.909 215.352 82.6581L236.081 107.815C239.423 111.863 240.7 117.324 239.559 122.432L229.887 165.085C229.669 166.036 228.827 166.715 227.849 166.715L227.876 166.688ZM193.917 162.504H226.219L235.511 121.481C236.38 117.623 235.402 113.494 232.902 110.451L212.146 85.2662C210.489 83.2015 207.555 82.794 205.436 84.3154C203.371 85.7824 202.746 88.5535 204.023 90.7813L213.423 106.511C213.722 106.376 214.021 106.267 214.347 106.185C216.547 105.533 218.884 105.805 220.867 106.946C224.236 108.875 225.812 112.814 224.698 116.536L218.177 138.488C217.851 139.602 216.683 140.227 215.569 139.901C214.455 139.575 213.831 138.406 214.157 137.292L220.677 115.341C221.22 113.494 220.432 111.51 218.775 110.559C217.77 109.989 216.629 109.853 215.515 110.179C214.999 110.342 214.51 110.587 214.102 110.913C214.048 110.967 214.021 110.994 213.966 111.021C213.586 111.374 213.26 111.782 213.016 112.271L195.248 147.182C193.618 150.387 192.966 153.974 193.373 157.56L193.917 162.504Z" fill="#F79009"/>
<path d="M158.95 166.687H123.116C122.138 166.687 121.295 166.008 121.078 165.057L111.406 122.431C110.238 117.323 111.542 111.863 114.884 107.815L135.64 82.6301C138.628 78.8809 144.062 78.1474 147.974 80.9185C151.805 83.6625 152.919 88.7972 150.582 92.8723L140.883 109.091C141.182 109.499 141.454 109.934 141.698 110.368L159.466 145.279C161.477 149.218 162.264 153.619 161.775 157.993L161.015 164.813C160.906 165.872 160.009 166.66 158.95 166.66V166.687ZM124.773 162.503H157.075L157.619 157.559C158.026 153.973 157.374 150.387 155.717 147.181L137.949 112.27C137.705 111.781 137.379 111.374 136.998 111.02C136.944 110.993 136.917 110.939 136.862 110.912C136.455 110.586 135.966 110.341 135.45 110.178C134.363 109.852 133.195 109.988 132.19 110.559C130.505 111.509 129.717 113.493 130.288 115.34L136.808 137.292C137.134 138.406 136.509 139.574 135.395 139.9C134.282 140.226 133.113 139.601 132.787 138.487L126.267 116.535C125.153 112.813 126.729 108.874 130.098 106.945C132.108 105.804 134.417 105.533 136.618 106.185C136.944 106.266 137.243 106.402 137.542 106.511L146.969 90.7533C148.219 88.5798 147.621 85.8087 145.556 84.3417C143.437 82.8203 140.503 83.255 138.873 85.2654L118.117 110.45C115.59 113.493 114.612 117.622 115.509 121.48L124.8 162.503H124.773Z" fill="#F79009"/>
<path d="M223.584 184.998H194.079C187.885 184.998 182.832 179.945 182.832 173.751C182.832 167.556 187.885 162.503 194.079 162.503H223.584C229.778 162.503 234.831 167.556 234.831 173.751C234.831 179.945 229.778 184.998 223.584 184.998ZM194.079 166.687C190.195 166.687 187.016 169.866 187.016 173.751C187.016 177.636 190.195 180.814 194.079 180.814H223.584C227.469 180.814 230.647 177.636 230.647 173.751C230.647 169.866 227.469 166.687 223.584 166.687H194.079Z" fill="#F79009"/>
<path d="M156.886 184.998H127.382C121.188 184.998 116.135 179.945 116.135 173.751C116.135 167.556 121.188 162.503 127.382 162.503H156.886C163.081 162.503 168.134 167.556 168.134 173.751C168.134 179.945 163.081 184.998 156.886 184.998ZM127.382 166.687C123.497 166.687 120.319 169.866 120.319 173.751C120.319 177.636 123.497 180.814 127.382 180.814H156.886C160.771 180.814 163.95 177.636 163.95 173.751C163.95 169.866 160.771 166.687 156.886 166.687H127.382Z" fill="#F79009"/>
</g>
<defs>
<clipPath id="clip0_2407_126387">
<rect width="128.993" height="120" fill="white" transform="translate(111 65)"/>
</clipPath>
<clipPath id="clip1_2407_126387">
<rect width="19.8031" height="17.6" fill="white" transform="translate(165.4 101)"/>
</clipPath>
</defs>
</svg>
