<svg width="350" height="250" viewBox="0 0 350 250" fill="none" xmlns="http://www.w3.org/2000/svg">
<rect width="350" height="250" fill="#F6EAEB"/>
<g clip-path="url(#clip0_2407_126395)">
<path d="M174.799 171.685C174.532 171.685 174.24 171.636 173.997 171.489L153.909 161.822C143.488 156.805 136.76 146.06 136.76 134.41V96.6454C136.76 95.6909 137.488 94.8832 138.436 94.7853C162.362 92.2889 173.244 79.1704 173.366 79.0236C173.73 78.583 174.265 78.3383 174.823 78.3383C175.406 78.3627 175.916 78.583 176.281 79.0236C176.402 79.1704 187.284 92.2644 211.186 94.7853C212.134 94.8832 212.863 95.6909 212.863 96.6454V134.435C212.863 146.06 206.134 156.829 195.713 161.846L175.625 171.514C175.382 171.636 175.09 171.71 174.823 171.71L174.799 171.685ZM140.476 98.3097V134.41C140.476 144.616 146.379 154.039 155.512 158.42L174.799 167.696L194.086 158.42C203.219 154.039 209.122 144.592 209.122 134.41V98.3097C189.422 95.8133 178.54 86.6842 174.823 82.964C171.107 86.6842 160.2 95.8133 140.525 98.3097H140.476Z" fill="#A92F34"/>
<path d="M174.8 185C174.533 185 174.241 184.951 173.998 184.804L147.959 172.273C134.623 165.86 126 152.105 126 137.225V88.2016C126 87.2471 126.729 86.4394 127.676 86.3415C158.987 83.0619 173.197 65.8561 173.343 65.6848C173.707 65.2443 174.241 64.9995 174.8 64.9995C175.359 64.9995 175.893 65.2443 176.257 65.6848C176.403 65.8561 190.613 83.0374 221.924 86.3171C222.871 86.415 223.6 87.2226 223.6 88.1772V137.225C223.6 152.105 214.977 165.86 201.666 172.273L175.626 184.804C175.383 184.926 175.091 185 174.824 185H174.8ZM129.741 89.8904V137.225C129.741 150.661 137.514 163.095 149.562 168.871L174.8 181.01L200.038 168.871C212.062 163.07 219.859 150.661 219.859 137.225V89.8904C193.382 86.6597 179.148 74.1776 174.8 69.6742C170.428 74.1776 156.193 86.6597 129.741 89.8904Z" fill="#A92F34"/>
<path d="M163.48 150.54C162.46 150.54 161.609 149.708 161.609 148.655V135.121C161.609 134.093 162.435 133.236 163.48 133.236C164.524 133.236 165.35 134.068 165.35 135.121V148.655C165.35 149.683 164.524 150.54 163.48 150.54Z" fill="#A92F34"/>
<path d="M186.095 150.54C185.075 150.54 184.225 149.708 184.225 148.655V135.121C184.225 134.093 185.05 133.236 186.095 133.236C187.139 133.236 187.965 134.068 187.965 135.121V148.655C187.965 149.683 187.139 150.54 186.095 150.54Z" fill="#A92F34"/>
<path d="M174.8 117.865C168.824 117.865 163.99 112.971 163.99 106.974C163.99 100.978 168.848 96.0829 174.8 96.0829C180.751 96.0829 185.609 100.978 185.609 106.974C185.609 112.971 180.751 117.865 174.8 117.865ZM174.8 99.8275C170.889 99.8275 167.707 103.034 167.707 106.974C167.707 110.915 170.889 114.121 174.8 114.121C178.71 114.121 181.892 110.915 181.892 106.974C181.892 103.034 178.71 99.8275 174.8 99.8275Z" fill="#A92F34"/>
<path d="M194.33 150.539H155.271C154.251 150.539 153.4 149.707 153.4 148.654V132.403C153.4 125.477 158.987 119.848 165.862 119.848H183.739C190.614 119.848 196.201 125.477 196.201 132.403V148.654C196.201 149.682 195.375 150.539 194.33 150.539ZM157.141 146.77H192.484V132.403C192.484 127.557 188.573 123.617 183.764 123.617H165.886C161.076 123.617 157.165 127.557 157.165 132.403V146.77H157.141Z" fill="#A92F34"/>
</g>
<defs>
<clipPath id="clip0_2407_126395">
<rect width="97.6" height="120" fill="white" transform="translate(126 65)"/>
</clipPath>
</defs>
</svg>
