<svg width="350" height="250" viewBox="0 0 350 250" fill="none" xmlns="http://www.w3.org/2000/svg">
<rect width="350" height="250" fill="#EBF5F0"/>
<g clip-path="url(#clip0_2407_126379)">
<path d="M220.292 73.3936L228.18 75.9438L113.128 134.833C112.198 135.308 111.83 136.453 112.305 137.383C112.64 138.039 113.302 138.414 113.991 138.414C114.279 138.414 114.573 138.347 114.854 138.206L229.879 79.3307L227.344 87.1821C227.022 88.1794 227.571 89.2437 228.561 89.565C228.755 89.6252 228.949 89.6587 229.143 89.6587C229.939 89.6587 230.682 89.15 230.943 88.3468L234.891 76.1245C235.044 75.6493 235.004 75.1272 234.777 74.6788C234.549 74.2303 234.155 73.8956 233.673 73.7417L221.456 69.7926C220.459 69.4713 219.395 70.0201 219.074 71.0108C218.753 72.0081 219.301 73.0723 220.292 73.3936V73.3936Z" fill="#08783D"/>
<path d="M240.973 180.944H236.269V167.102C236.269 166.058 235.42 165.208 234.376 165.208H230.007V161.078H234.376C235.42 161.078 236.269 160.228 236.269 159.183V119.498C236.269 118.454 235.42 117.604 234.376 117.604H230.007V113.474H234.376C235.42 113.474 236.269 112.624 236.269 111.58V103.755C236.269 102.711 235.42 101.861 234.376 101.861H203.954C202.91 101.861 202.06 102.711 202.06 103.755V109.685H200.327C199.284 109.685 198.434 110.536 198.434 111.58V119.498C198.434 120.542 199.284 121.392 200.327 121.392H202.06V157.289H200.327C199.284 157.289 198.434 158.139 198.434 159.183V167.102C198.434 168.146 199.284 168.996 200.327 168.996H202.06V180.944H190.392V168.996H192.125C193.168 168.996 194.018 168.146 194.018 167.102V159.183C194.018 158.139 193.168 157.289 192.125 157.289H190.392V145.174H192.125C193.168 145.174 194.018 144.324 194.018 143.28V135.362C194.018 134.317 193.168 133.467 192.125 133.467H190.392V127.537C190.392 126.493 189.542 125.643 188.498 125.643H158.076C157.032 125.643 156.183 126.493 156.183 127.537V135.362C156.183 136.406 157.032 137.256 158.076 137.256H162.445V141.386H158.076C157.032 141.386 156.183 142.236 156.183 143.28V159.183C156.183 160.228 157.032 161.078 158.076 161.078H162.445V165.208H158.076C157.032 165.208 156.183 166.058 156.183 167.102V180.944H148.636V167.102C148.636 166.058 147.786 165.208 146.742 165.208H142.373V161.078H146.742C147.786 161.078 148.636 160.228 148.636 159.183V151.359C148.636 150.315 147.786 149.465 146.742 149.465H116.32C115.276 149.465 114.427 150.315 114.427 151.359V157.289H112.694C111.65 157.289 110.8 158.139 110.8 159.183V167.102C110.8 168.146 111.65 168.996 112.694 168.996H114.427V180.944H109.027C107.91 180.944 107 181.854 107 182.972C107 184.09 107.91 185 109.027 185H240.973C242.09 185 243 184.09 243 182.972C243 181.854 242.09 180.944 240.973 180.944V180.944ZM226.508 176.854V180.944H223.791V176.854H226.508ZM229.211 180.944V176.854H232.489V180.944H229.211ZM232.489 168.996V173.066H205.854V168.996H232.489ZM202.227 113.474H205.62V115.489C205.62 116.238 206.222 116.841 206.971 116.841C207.72 116.841 208.323 116.238 208.323 115.489V113.474H211.039V117.604H202.234V113.474H202.227ZM226.227 117.604H219.155V113.474H226.227V117.604ZM216.452 117.604H213.735V113.474H216.452V117.604ZM226.508 157.289H223.791V153.253H226.508V157.289ZM205.854 153.253H215.669V155.368C215.669 156.118 216.271 156.72 217.02 156.72C217.77 156.72 218.372 156.118 218.372 155.368V153.253H221.088V157.289H205.854V153.253ZM205.854 149.465V145.254H232.489V149.465H205.854ZM217.02 140.723C217.77 140.723 218.372 140.121 218.372 139.371V137.256H221.088V141.466H205.854V137.256H215.669V139.371C215.669 140.121 216.271 140.723 217.02 140.723ZM232.489 137.256V141.466H229.211V137.256H232.489ZM226.508 141.466H223.791V137.256H226.508V141.466ZM232.489 133.467H205.854V129.244H232.489V133.467ZM202.227 161.071H226.227V165.201H202.227V161.071ZM232.489 157.283H229.211V153.246H232.489V157.283ZM232.489 121.386V125.455H205.854V121.386H232.489ZM232.489 105.643V109.679H205.854V105.643H232.489ZM205.854 176.847H215.669V178.963C215.669 179.712 216.271 180.315 217.02 180.315C217.77 180.315 218.372 179.712 218.372 178.963V176.847H221.088V180.937H205.854V176.847ZM166.239 165.201V161.071H190.238V165.201H166.239ZM166.239 137.249H169.122V139.364C169.122 140.114 169.724 140.716 170.474 140.716C171.223 140.716 171.825 140.114 171.825 139.364V137.249H174.542V141.379H166.239V137.249ZM177.245 137.249H179.961V141.379H177.245V137.249ZM182.664 137.249H190.238V141.379H182.664V137.249V137.249ZM171.792 156.486C172.541 156.486 173.143 155.884 173.143 155.134V153.24H175.86V157.242H159.983V153.24H170.44V155.134C170.44 155.884 171.043 156.486 171.792 156.486V156.486ZM181.279 157.249H178.563V153.246H181.279V157.249ZM183.982 153.246H186.618V157.249H183.982V153.246ZM181.279 168.989V173.059H178.563V168.989H181.279ZM183.982 168.989H186.618V173.059H183.982V168.989ZM159.983 133.467V129.431H186.618V133.467H159.983ZM164.352 145.174H186.618V149.244H159.983V145.174H164.352ZM164.352 168.996H170.44V171.171C170.44 171.921 171.043 172.523 171.792 172.523C172.541 172.523 173.143 171.921 173.143 171.171V168.996H175.86V173.066H159.983V168.996H164.352V168.996ZM159.983 176.854H186.618V180.944H159.983V176.854ZM138.68 176.854V180.944H135.964V176.854H138.68ZM141.383 180.944V176.854H144.862V180.944H141.383ZM144.862 168.996V173.066H118.213V168.996H144.849H144.862ZM114.601 161.078H117.531V163.092C117.531 163.842 118.133 164.445 118.883 164.445C119.632 164.445 120.234 163.842 120.234 163.092V161.078H122.95V165.208H114.587V161.078H114.601ZM138.6 165.208H131.073V161.078H138.6V165.208ZM128.363 165.208H125.647V161.078H128.363V165.208ZM144.855 153.253V157.289H118.213V153.253H144.849H144.855ZM118.22 176.854H127.841V178.969C127.841 179.719 128.443 180.321 129.193 180.321C129.942 180.321 130.544 179.719 130.544 178.969V176.854H133.261V180.944H118.213V176.854H118.22Z" fill="#08783D"/>
<path d="M137.528 70.4752C138.572 70.4752 139.422 69.6252 139.422 68.581V66.8942C139.422 65.8501 138.572 65 137.528 65C136.484 65 135.635 65.8501 135.635 66.8942V68.5877C135.635 69.6319 136.484 70.4819 137.528 70.4819V70.4752Z" fill="#08783D"/>
<path d="M137.528 82.0749C138.572 82.0749 139.422 81.2249 139.422 80.1807V78.4873C139.422 77.4431 138.572 76.593 137.528 76.593C136.484 76.593 135.635 77.4431 135.635 78.4873V80.1807C135.635 81.2249 136.484 82.0749 137.528 82.0749V82.0749Z" fill="#08783D"/>
<path d="M130.891 75.4284H132.584C133.628 75.4284 134.478 74.5783 134.478 73.5341C134.478 72.49 133.628 71.6399 132.584 71.6399H130.891C129.848 71.6399 128.998 72.49 128.998 73.5341C128.998 74.5783 129.848 75.4284 130.891 75.4284Z" fill="#08783D"/>
<path d="M142.479 75.4284H144.172C145.216 75.4284 146.066 74.5783 146.066 73.5341C146.066 72.49 145.216 71.6399 144.172 71.6399H142.479C141.436 71.6399 140.586 72.49 140.586 73.5341C140.586 74.5783 141.436 75.4284 142.479 75.4284Z" fill="#08783D"/>
<path d="M188.499 73.8487C189.543 73.8487 190.392 72.9987 190.392 71.9545V70.2611C190.392 69.2169 189.543 68.3668 188.499 68.3668C187.455 68.3668 186.605 69.2169 186.605 70.2611V71.9545C186.605 72.9987 187.455 73.8487 188.499 73.8487Z" fill="#08783D"/>
<path d="M188.499 85.4418C189.543 85.4418 190.392 84.5917 190.392 83.5475V81.8541C190.392 80.8099 189.543 79.9598 188.499 79.9598C187.455 79.9598 186.605 80.8099 186.605 81.8541V83.5475C186.605 84.5917 187.455 85.4418 188.499 85.4418Z" fill="#08783D"/>
<path d="M181.862 78.7951H183.555C184.599 78.7951 185.448 77.945 185.448 76.9008C185.448 75.8567 184.599 75.0066 183.555 75.0066H181.862C180.818 75.0066 179.969 75.8567 179.969 76.9008C179.969 77.945 180.818 78.7951 181.862 78.7951Z" fill="#08783D"/>
<path d="M193.45 78.7951H195.143C196.187 78.7951 197.036 77.945 197.036 76.9008C197.036 75.8567 196.187 75.0066 195.143 75.0066H193.45C192.406 75.0066 191.557 75.8567 191.557 76.9008C191.557 77.945 192.406 78.7951 193.45 78.7951Z" fill="#08783D"/>
<path d="M118.167 102.028C119.211 102.028 120.06 101.178 120.06 100.134V98.4404C120.06 97.3962 119.211 96.5461 118.167 96.5461C117.123 96.5461 116.273 97.3962 116.273 98.4404V100.134C116.273 101.178 117.123 102.028 118.167 102.028V102.028Z" fill="#08783D"/>
<path d="M118.167 113.628C119.211 113.628 120.06 112.778 120.06 111.734V110.04C120.06 108.996 119.211 108.146 118.167 108.146C117.123 108.146 116.273 108.996 116.273 110.04V111.734C116.273 112.778 117.123 113.628 118.167 113.628V113.628Z" fill="#08783D"/>
<path d="M111.522 106.981H113.215C114.259 106.981 115.109 106.131 115.109 105.087C115.109 104.043 114.259 103.193 113.215 103.193H111.522C110.479 103.193 109.629 104.043 109.629 105.087C109.629 106.131 110.479 106.981 111.522 106.981Z" fill="#08783D"/>
<path d="M123.112 106.981H124.805C125.849 106.981 126.698 106.131 126.698 105.087C126.698 104.043 125.849 103.193 124.805 103.193H123.112C122.068 103.193 121.219 104.043 121.219 105.087C121.219 106.131 122.068 106.981 123.112 106.981Z" fill="#08783D"/>
<path d="M142.856 104.953C144.194 104.953 145.278 103.869 145.278 102.53C145.278 101.192 144.194 100.107 142.856 100.107C141.517 100.107 140.434 101.192 140.434 102.53C140.434 103.869 141.517 104.953 142.856 104.953Z" fill="#08783D"/>
</g>
<defs>
<clipPath id="clip0_2407_126379">
<rect width="136" height="120" fill="white" transform="translate(107 65)"/>
</clipPath>
</defs>
</svg>
