<svg width="350" height="250" viewBox="0 0 350 250" fill="none" xmlns="http://www.w3.org/2000/svg">
<rect width="350" height="250" fill="#FFFAEB"/>
<g clip-path="url(#clip0_1895_41465)">
<path d="M175 161.375C154.945 161.375 138.625 145.055 138.625 125C138.625 104.945 154.945 88.625 175 88.625C195.055 88.625 211.375 104.945 211.375 125C211.375 145.055 195.055 161.375 175 161.375ZM175 90.875C156.182 90.875 140.875 106.182 140.875 125C140.875 143.818 156.182 159.125 175 159.125C193.818 159.125 209.125 143.818 209.125 125C209.125 106.182 193.818 90.875 175 90.875Z" fill="#F79009"/>
<path d="M175 177.357C146.125 177.357 122.643 153.867 122.643 125C122.643 96.1325 146.125 72.6425 175 72.6425C203.875 72.6425 227.358 96.1325 227.358 125C227.358 153.867 203.868 177.357 175 177.357ZM175 75.47C147.693 75.47 125.47 97.685 125.47 125C125.47 152.315 147.685 174.53 175 174.53C202.315 174.53 224.53 152.315 224.53 125C224.53 97.685 202.315 75.47 175 75.47V75.47Z" fill="#F79009"/>
<path d="M175 200C171.033 200 167.92 196.437 164.913 192.987C162.723 190.475 160.465 187.888 158.305 187.31C155.995 186.68 152.65 187.835 149.41 188.938C145.172 190.378 140.785 191.877 137.493 189.965C134.148 188.03 133.24 183.44 132.37 179C131.717 175.678 131.042 172.243 129.407 170.6C127.772 168.965 124.33 168.29 121.008 167.638C116.568 166.768 111.978 165.86 110.043 162.515C108.138 159.223 109.63 154.843 111.07 150.598C112.173 147.358 113.313 143.997 112.698 141.702C112.12 139.542 109.525 137.285 107.02 135.095C103.57 132.087 100 128.975 100 125.008C100 121.04 103.563 117.927 107.013 114.92C109.525 112.73 112.113 110.473 112.69 108.313C113.305 106.01 112.165 102.658 111.062 99.4175C109.623 95.1725 108.13 90.7925 110.035 87.5C111.97 84.155 116.56 83.2475 121 82.3775C124.322 81.725 127.758 81.05 129.4 79.415C131.035 77.78 131.71 74.3375 132.363 71.015C133.233 66.575 134.14 61.985 137.485 60.05C140.77 58.145 145.158 59.6375 149.403 61.0775C152.65 62.18 156.003 63.335 158.298 62.705C160.458 62.1275 162.715 59.5325 164.905 57.0275C167.913 53.5775 171.025 50.0075 174.992 50.0075C178.96 50.0075 182.073 53.57 185.08 57.02C187.27 59.5325 189.527 62.12 191.688 62.6975C193.99 63.32 197.343 62.1725 200.583 61.07C204.82 59.63 209.208 58.13 212.5 60.0425C215.845 61.9775 216.753 66.5675 217.623 71.0075C218.275 74.33 218.95 77.765 220.585 79.4075C222.22 81.0425 225.662 81.7175 228.985 82.37C233.425 83.24 238.015 84.1475 239.95 87.4925C241.855 90.785 240.362 95.165 238.922 99.4025C237.82 102.65 236.68 106.002 237.295 108.305C237.872 110.465 240.46 112.73 242.973 114.913C246.423 117.92 249.985 121.033 249.985 125C249.985 128.967 246.423 132.08 242.973 135.087C240.46 137.277 237.872 139.535 237.295 141.695C236.68 143.997 237.82 147.35 238.922 150.59C240.362 154.835 241.855 159.215 239.95 162.507C238.015 165.852 233.425 166.76 228.985 167.63C225.662 168.282 222.227 168.957 220.585 170.592C218.95 172.227 218.275 175.67 217.623 178.993C216.753 183.433 215.845 188.023 212.5 189.958C209.215 191.863 204.835 190.37 200.59 188.93C197.35 187.828 193.99 186.688 191.688 187.303C189.527 187.88 187.263 190.467 185.08 192.98C182.073 196.43 178.96 199.993 174.992 199.993L175 200ZM156.85 184.303C157.6 184.303 158.335 184.385 159.025 184.565C162.017 185.367 164.575 188.293 167.042 191.12C169.637 194.098 172.315 197.165 175 197.165C177.685 197.165 180.363 194.09 182.958 191.12C185.425 188.293 187.975 185.367 190.968 184.572C194.103 183.747 197.868 185.022 201.513 186.252C205.15 187.49 208.915 188.765 211.098 187.513C213.333 186.223 214.105 182.27 214.862 178.453C215.597 174.71 216.355 170.848 218.605 168.598C220.855 166.348 224.717 165.59 228.46 164.855C232.277 164.105 236.23 163.325 237.52 161.09C238.78 158.915 237.497 155.143 236.26 151.505C235.022 147.868 233.74 144.095 234.58 140.967C235.383 137.975 238.307 135.417 241.135 132.95C244.112 130.355 247.18 127.677 247.18 124.992C247.18 122.307 244.105 119.63 241.135 117.035C238.307 114.567 235.382 112.017 234.587 109.025C233.755 105.897 235.03 102.133 236.268 98.48C237.505 94.8425 238.787 91.0775 237.527 88.895C236.237 86.66 232.285 85.8875 228.467 85.13C224.725 84.395 220.862 83.6375 218.612 81.3875C216.362 79.1375 215.605 75.275 214.87 71.5325C214.12 67.715 213.34 63.7625 211.105 62.4725C208.922 61.205 205.158 62.495 201.52 63.7325C197.883 64.97 194.11 66.245 190.982 65.4125C187.99 64.61 185.433 61.685 182.965 58.8575C180.37 55.88 177.693 52.8125 175.008 52.8125C172.323 52.8125 169.645 55.8875 167.05 58.8575C164.583 61.685 162.033 64.61 159.04 65.4125C155.92 66.245 152.14 64.97 148.502 63.7325C144.857 62.495 141.092 61.2125 138.917 62.4725C136.682 63.7625 135.91 67.715 135.152 71.5325C134.417 75.275 133.66 79.1375 131.41 81.3875C129.16 83.6375 125.297 84.395 121.555 85.13C117.737 85.88 113.785 86.66 112.495 88.895C111.235 91.07 112.518 94.8425 113.755 98.48C114.993 102.118 116.275 105.89 115.435 109.018C114.632 112.01 111.708 114.567 108.88 117.035C105.903 119.63 102.835 122.307 102.835 124.992C102.835 127.677 105.91 130.355 108.88 132.95C111.708 135.417 114.632 137.967 115.435 140.96C116.267 144.087 114.993 147.853 113.755 151.498C112.518 155.143 111.235 158.908 112.495 161.083C113.785 163.318 117.737 164.09 121.555 164.848C125.297 165.583 129.16 166.34 131.41 168.59C133.66 170.84 134.417 174.702 135.152 178.445C135.902 182.262 136.682 186.215 138.917 187.505C141.092 188.765 144.865 187.483 148.502 186.245C151.33 185.285 154.24 184.295 156.857 184.295L156.85 184.303Z" fill="#F79009"/>
<path d="M188.05 103.91C187.338 103.835 186.655 103.805 186.018 103.805C181.458 103.805 179.2 105.53 176.147 109.167L175 110.54L173.853 109.167C170.8 105.53 168.543 103.805 163.975 103.805C163.345 103.805 162.662 103.835 161.95 103.91C157.825 104.307 153.115 108.11 152.5 115.49V118.115C153.19 126.605 160.758 136.047 175 146.195C189.235 136.047 196.802 126.605 197.5 118.115V115.49C196.885 108.11 192.175 104.307 188.05 103.91ZM195.242 118.092C194.56 125.42 188.05 133.722 175.893 142.76L175 143.427L174.1 142.76C161.943 133.722 155.433 125.42 154.758 118.092V117.95V115.512C155.358 109.115 159.512 106.407 162.167 106.145C162.805 106.085 163.413 106.055 163.975 106.055C167.868 106.055 169.525 107.517 172.127 110.615L175 114.042L177.873 110.615C180.475 107.517 182.125 106.055 186.018 106.055C186.58 106.055 187.188 106.085 187.833 106.145C190.48 106.407 194.642 109.115 195.242 115.512V115.655V118.092Z" fill="#F79009"/>
</g>
<defs>
<clipPath id="clip0_1895_41465">
<rect width="150" height="150" fill="white" transform="translate(100 50)"/>
</clipPath>
</defs>
</svg>
