<svg width="56" height="56" viewBox="0 0 56 56" fill="none" xmlns="http://www.w3.org/2000/svg">
<rect width="56" height="56" rx="28" fill="#EBF5F0"/>
<path d="M32.6666 35L36.1666 31.5M36.1666 31.5L39.6666 35M36.1666 31.5V38.5M39.6666 25.6666H16.3333M39.6666 28V23.5666C39.6666 22.2599 39.6666 21.6065 39.4123 21.1073C39.1886 20.6683 38.8316 20.3113 38.3926 20.0876C37.8934 19.8333 37.24 19.8333 35.9333 19.8333H20.0666C18.7598 19.8333 18.1064 19.8333 17.6073 20.0876C17.1682 20.3113 16.8113 20.6683 16.5876 21.1073C16.3333 21.6065 16.3333 22.2599 16.3333 23.5666V32.4333C16.3333 33.7401 16.3333 34.3935 16.5876 34.8926C16.8113 35.3317 17.1682 35.6886 17.6073 35.9123C18.1064 36.1666 18.7598 36.1666 20.0666 36.1666H27.9999" stroke="#08783D" stroke-width="2.33333" stroke-linecap="round" stroke-linejoin="round"/>
</svg>
