<svg width="48" height="48" viewBox="0 0 48 48" fill="none" xmlns="http://www.w3.org/2000/svg">
<rect width="48" height="48" rx="24" fill="#EBF5F0"/>
<path d="M14 22H34V20.2C34 19.0799 34 18.5198 33.782 18.092C33.5903 17.7157 33.2843 17.4097 32.908 17.218C32.4802 17 31.9201 17 30.8 17H17.2C16.0799 17 15.5198 17 15.092 17.218C14.7157 17.4097 14.4097 17.7157 14.218 18.092C14 18.5198 14 19.0799 14 20.2V27.8C14 28.9201 14 29.4802 14.218 29.908C14.4097 30.2843 14.7157 30.5903 15.092 30.782C15.5198 31 16.0799 31 17.2 31H23M26.5 33L28.525 32.595C28.7015 32.5597 28.7898 32.542 28.8721 32.5097C28.9452 32.4811 29.0147 32.4439 29.079 32.399C29.1516 32.3484 29.2152 32.2848 29.3426 32.1574L33.5 28C34.0523 27.4477 34.0523 26.5523 33.5 26C32.9477 25.4477 32.0523 25.4477 31.5 26L27.3426 30.1574C27.2152 30.2848 27.1516 30.3484 27.101 30.421C27.0561 30.4853 27.0189 30.5548 26.9903 30.6279C26.958 30.7102 26.9403 30.7985 26.905 30.975L26.5 33Z" stroke="#08783D" stroke-width="2" stroke-linecap="round" stroke-linejoin="round"/>
</svg>
