<svg width="48" height="48" viewBox="0 0 48 48" fill="none" xmlns="http://www.w3.org/2000/svg">
<rect width="48" height="48" rx="24" fill="#EBF5F0"/>
<g clip-path="url(#clip0_2855_168541)">
<path d="M24 12C17.3712 12 12 17.3712 12 24C12 30.6288 17.3712 36 24 36C26.3904 36 28.6224 35.2992 30.4944 34.0896C26.3568 35.6304 21.432 35.1504 18.2016 31.92C13.6704 27.6144 13.5504 19.6704 19.3344 16.392C24.1728 13.5552 30.4464 16.0944 30.96 21.9216C31.3344 25.1568 28.6512 28.3056 25.3776 28.4208C25.08 28.4544 24.7824 28.4544 24.4944 28.4208L24.3744 30.8256C24.3648 31.0272 24.2016 31.1856 24 31.1856C23.7984 31.1856 23.6304 31.0272 23.6208 30.8256L23.4912 28.2048C20.9616 27.3408 19.2432 24.3072 20.5008 21.7152C22.3008 17.9712 28.1664 18.984 27.5808 23.4528C27.336 24.8352 25.9584 25.8 24.6288 25.7568L24.552 27.2832C25.6224 27.4608 26.7936 27.2352 27.8016 26.544C30.1776 25.0464 30.6048 21.744 29.2896 19.3872C27.4464 15.888 22.9872 15.1392 19.6896 17.016C14.2032 20.0256 14.3328 27.504 18.5184 31.5984C21.864 35.0256 27.1296 35.3664 31.3632 33.4704H31.368C34.1856 31.2768 36 27.8496 36 24C36 17.3712 30.6288 12 24 12Z" fill="#0B9444"/>
<path d="M24 22.5071C24.4128 22.5071 24.7488 22.8383 24.7584 23.2511V23.2703C24.7584 23.2703 24.7584 23.3087 24.7584 23.3279L24.7056 24.3695C24.744 24.3695 24.7776 24.3695 24.816 24.3647C25.4928 24.3551 26.1216 23.8319 26.2656 23.1647C26.4192 22.4735 26.1168 21.6527 25.56 21.1871C23.9232 19.8095 21.2928 21.3791 21.2928 23.4095C21.2448 25.1231 22.1664 26.3567 23.4336 26.9471L23.352 25.3487L23.256 23.4239L23.2464 23.2223C23.256 23.0351 23.3376 22.8623 23.4576 22.7375C23.5968 22.5935 23.7888 22.5071 24.0048 22.5071H24Z" fill="#0B9444"/>
</g>
<defs>
<clipPath id="clip0_2855_168541">
<rect width="24" height="24" fill="white" transform="translate(12 12)"/>
</clipPath>
</defs>
</svg>
