<svg width="68" height="68" viewBox="0 0 68 68" fill="none" xmlns="http://www.w3.org/2000/svg">
<rect x="4" y="4" width="60" height="60" rx="28" fill="#CEE4D8"/>
<path d="M28.1663 45.6666H24.6663C24.0475 45.6666 23.454 45.4208 23.0164 44.9832C22.5788 44.5456 22.333 43.9521 22.333 43.3333V35.1666C22.333 34.5477 22.5788 33.9543 23.0164 33.5167C23.454 33.0791 24.0475 32.8333 24.6663 32.8333H28.1663M36.333 30.4999V25.8333C36.333 24.905 35.9643 24.0148 35.3079 23.3584C34.6515 22.702 33.7613 22.3333 32.833 22.3333L28.1663 32.8333V45.6666H41.3263C41.8891 45.6729 42.4351 45.4757 42.8639 45.1113C43.2927 44.7468 43.5753 44.2396 43.6597 43.6833L45.2697 33.1833C45.3204 32.8488 45.2979 32.5074 45.2036 32.1825C45.1093 31.8577 44.9455 31.5573 44.7235 31.302C44.5016 31.0468 44.2268 30.8428 43.9182 30.7043C43.6096 30.5658 43.2746 30.4961 42.9363 30.4999H36.333Z" stroke="#08783D" stroke-width="2.33333" stroke-linecap="round" stroke-linejoin="round"/>
<rect x="4" y="4" width="60" height="60" rx="28" stroke="#B5D7C5" stroke-width="8"/>
</svg>
