<svg width="68" height="68" viewBox="0 0 68 68" fill="none" xmlns="http://www.w3.org/2000/svg">
<rect x="4" y="4" width="60" height="60" rx="28" fill="#F5FAFF"/>
<path d="M23.5 29.1C23.5 27.1398 23.5 26.1597 23.8815 25.411C24.217 24.7525 24.7525 24.217 25.411 23.8815C26.1597 23.5 27.1398 23.5 29.1 23.5H38.9C40.8602 23.5 41.8403 23.5 42.589 23.8815C43.2475 24.217 43.783 24.7525 44.1185 25.411C44.5 26.1597 44.5 27.1398 44.5 29.1V38.9C44.5 40.8602 44.5 41.8403 44.1185 42.589C43.783 43.2475 43.2475 43.783 42.589 44.1185C41.8403 44.5 40.8602 44.5 38.9 44.5H29.1C27.1398 44.5 26.1597 44.5 25.411 44.1185C24.7525 43.783 24.217 43.2475 23.8815 42.589C23.5 41.8403 23.5 40.8602 23.5 38.9V29.1Z" stroke="#2E90FA" stroke-width="2.33333" stroke-linecap="round" stroke-linejoin="round"/>
<path d="M36.1389 28.5167C36.1389 28.19 36.1389 28.0266 36.0753 27.9018C36.0194 27.7921 35.9301 27.7028 35.8204 27.6469C35.6956 27.5833 35.5323 27.5833 35.2056 27.5833H32.7944C32.4677 27.5833 32.3044 27.5833 32.1796 27.6469C32.0699 27.7028 31.9806 27.7921 31.9247 27.9018C31.8611 28.0266 31.8611 28.19 31.8611 28.5167V30.9278C31.8611 31.2545 31.8611 31.4178 31.7975 31.5426C31.7416 31.6524 31.6524 31.7416 31.5426 31.7975C31.4178 31.8611 31.2545 31.8611 30.9278 31.8611H28.5167C28.19 31.8611 28.0266 31.8611 27.9018 31.9247C27.7921 31.9806 27.7028 32.0699 27.6469 32.1796C27.5833 32.3044 27.5833 32.4677 27.5833 32.7944V35.2056C27.5833 35.5323 27.5833 35.6956 27.6469 35.8204C27.7028 35.9301 27.7921 36.0194 27.9018 36.0753C28.0266 36.1389 28.19 36.1389 28.5167 36.1389H30.9278C31.2545 36.1389 31.4178 36.1389 31.5426 36.2025C31.6524 36.2584 31.7416 36.3476 31.7975 36.4574C31.8611 36.5822 31.8611 36.7455 31.8611 37.0722V39.4833C31.8611 39.81 31.8611 39.9734 31.9247 40.0982C31.9806 40.2079 32.0699 40.2972 32.1796 40.3531C32.3044 40.4167 32.4677 40.4167 32.7944 40.4167H35.2056C35.5323 40.4167 35.6956 40.4167 35.8204 40.3531C35.9301 40.2972 36.0194 40.2079 36.0753 40.0982C36.1389 39.9734 36.1389 39.81 36.1389 39.4833V37.0722C36.1389 36.7455 36.1389 36.5822 36.2025 36.4574C36.2584 36.3476 36.3476 36.2584 36.4574 36.2025C36.5822 36.1389 36.7455 36.1389 37.0722 36.1389H39.4833C39.81 36.1389 39.9734 36.1389 40.0982 36.0753C40.2079 36.0194 40.2972 35.9301 40.3531 35.8204C40.4167 35.6956 40.4167 35.5323 40.4167 35.2056V32.7944C40.4167 32.4677 40.4167 32.3044 40.3531 32.1796C40.2972 32.0699 40.2079 31.9806 40.0982 31.9247C39.9734 31.8611 39.81 31.8611 39.4833 31.8611H37.0722C36.7455 31.8611 36.5822 31.8611 36.4574 31.7975C36.3476 31.7416 36.2584 31.6524 36.2025 31.5426C36.1389 31.4178 36.1389 31.2545 36.1389 30.9278V28.5167Z" stroke="#2E90FA" stroke-width="2.33333" stroke-linecap="round" stroke-linejoin="round"/>
<rect x="4" y="4" width="60" height="60" rx="28" stroke="#D1E9FF" stroke-width="8"/>
</svg>
