<svg width="68" height="68" viewBox="0 0 68 68" fill="none" xmlns="http://www.w3.org/2000/svg">
<rect x="4" y="4" width="60" height="60" rx="28" fill="#CEE4D8"/>
<path d="M44.4997 38.6666V28.4C44.4997 27.0932 44.4997 26.4398 44.2454 25.9406C44.0217 25.5016 43.6647 25.1446 43.2257 24.9209C42.7265 24.6666 42.0731 24.6666 40.7663 24.6666H27.233C25.9262 24.6666 25.2728 24.6666 24.7737 24.9209C24.3347 25.1446 23.9777 25.5016 23.754 25.9406C23.4997 26.4398 23.4997 27.0932 23.4997 28.4V38.6666M25.4441 43.3333H42.5552C43.2785 43.3333 43.6402 43.3333 43.9369 43.2538C44.7421 43.038 45.3711 42.4091 45.5868 41.6039C45.6663 41.3071 45.6663 40.9455 45.6663 40.2222C45.6663 39.8605 45.6663 39.6797 45.6266 39.5313C45.5187 39.1287 45.2042 38.8143 44.8016 38.7064C44.6533 38.6666 44.4724 38.6666 44.1108 38.6666H23.8886C23.5269 38.6666 23.3461 38.6666 23.1977 38.7064C22.7951 38.8143 22.4806 39.1287 22.3728 39.5313C22.333 39.6797 22.333 39.8605 22.333 40.2222C22.333 40.9455 22.333 41.3071 22.4125 41.6039C22.6283 42.4091 23.2572 43.038 24.0624 43.2538C24.3592 43.3333 24.7208 43.3333 25.4441 43.3333Z" stroke="#08783D" stroke-width="2.33333" stroke-linecap="round" stroke-linejoin="round"/>
<rect x="4" y="4" width="60" height="60" rx="28" stroke="#B5D7C5" stroke-width="8"/>
</svg>
