<svg width="68" height="68" viewBox="0 0 68 68" fill="none" xmlns="http://www.w3.org/2000/svg">
<rect x="4" y="4" width="60" height="60" rx="28" fill="#F6EAEB"/>
<path d="M35.7841 29.7438C35.1163 30.2199 34.299 30.4999 33.4163 30.4999C31.1612 30.4999 29.333 28.6717 29.333 26.4166C29.333 24.1614 31.1612 22.3333 33.4163 22.3333C34.8782 22.3333 36.1606 23.1014 36.8819 24.2561M26.9997 43.4349H30.045C30.4421 43.4349 30.8367 43.4822 31.2216 43.5767L34.4394 44.3586C35.1376 44.5287 35.8649 44.5452 36.5704 44.4082L40.1281 43.7161C41.068 43.533 41.9325 43.0829 42.6101 42.4238L45.1272 39.9752C45.846 39.2772 45.846 38.1444 45.1272 37.4452C44.48 36.8156 43.4552 36.7447 42.723 37.2786L39.7894 39.4189C39.3692 39.726 38.858 39.8914 38.3323 39.8914H35.4994L37.3026 39.8913C38.3189 39.8913 39.1422 39.0905 39.1422 38.1018V37.7439C39.1422 36.923 38.5678 36.2072 37.7494 36.0088L34.9664 35.332C34.5135 35.2221 34.0496 35.1666 33.5833 35.1666C32.4577 35.1666 30.4202 36.0985 30.4202 36.0985L26.9997 37.5289M43.333 27.5833C43.333 29.8384 41.5048 31.6666 39.2497 31.6666C36.9945 31.6666 35.1663 29.8384 35.1663 27.5833C35.1663 25.3281 36.9945 23.4999 39.2497 23.4999C41.5048 23.4999 43.333 25.3281 43.333 27.5833ZM22.333 37.0333L22.333 43.7999C22.333 44.4533 22.333 44.78 22.4602 45.0296C22.572 45.2491 22.7505 45.4276 22.97 45.5394C23.2196 45.6666 23.5463 45.6666 24.1997 45.6666H25.133C25.7864 45.6666 26.1131 45.6666 26.3627 45.5394C26.5822 45.4276 26.7607 45.2491 26.8725 45.0296C26.9997 44.78 26.9997 44.4533 26.9997 43.7999V37.0333C26.9997 36.3799 26.9997 36.0532 26.8725 35.8036C26.7607 35.5841 26.5822 35.4056 26.3627 35.2937C26.1131 35.1666 25.7864 35.1666 25.133 35.1666L24.1997 35.1666C23.5463 35.1666 23.2196 35.1666 22.97 35.2937C22.7505 35.4056 22.572 35.5841 22.4602 35.8036C22.333 36.0532 22.333 36.3799 22.333 37.0333Z" stroke="#A92F34" stroke-width="2.33333" stroke-linecap="round" stroke-linejoin="round"/>
<rect x="4" y="4" width="60" height="60" rx="28" stroke="#E5C1C2" stroke-width="8"/>
</svg>
