<svg width="110" height="86" viewBox="0 0 110 86" fill="none" xmlns="http://www.w3.org/2000/svg">
<path d="M3.06499 80.8186L5.34352 80.6174L5.78345 80.0986V58.1655H2.98608V56.25L10.376 53.8925H12.4553V56.5696C16.1286 54.4114 17.5667 53.8531 19.4467 53.8531C23.8401 53.8531 27.1937 58.0077 27.1937 63.4821C27.1937 69.8758 22.6012 74.1468 15.809 74.1468C15.01 74.1468 13.7317 74.0659 12.4553 73.9456V80.0986L12.9722 80.6174L15.6097 80.8186L15.5288 82.9334H3.06499V80.8186ZM12.4553 71.667C12.9722 71.7479 13.2128 71.7479 13.5344 71.7479C17.6496 71.7479 19.8433 69.1893 19.8433 64.3974C19.8433 60.3217 18.0481 58.1635 14.7319 58.1635C14.1716 58.1635 13.6153 58.205 12.4573 58.3648V71.6651L12.4553 71.667Z" fill="#231F20"/>
<path d="M36.1562 53.9695C36.4758 55.4056 36.6356 56.4847 36.677 57.3626L37.1169 67.1139L42.9504 56.0843V54.9282L48.9791 54.4488L49.7406 69.6292L54.8934 62.4779L53.7749 55.1275C54.854 54.1707 55.6135 53.8491 56.8504 53.8491C58.8074 53.8491 60.1252 55.086 60.1252 56.9661C60.1252 58.8461 59.05 61.2391 56.373 64.9537C55.5326 66.1118 53.0568 69.1873 48.9791 74.1428H44.2682L43.3489 60.3987L35.8781 74.1428H30.8022L31.2026 72.3437L30.5635 57.8834L26.6081 57.2462V55.6502L33.8402 53.9695H36.1542H36.1562Z" fill="#231F20"/>
<path d="M72.5733 56.0073C69.1782 56.5261 67.4205 59.0434 67.4205 63.3992C67.4205 67.7551 69.774 70.7083 73.2934 70.7083C74.9683 70.7083 76.4892 70.1914 79.6042 68.6704V72.2273C75.8106 73.9456 73.613 74.4644 70.5335 74.4644C67.2193 74.4644 64.9013 73.5865 62.9858 71.6651C61.0663 69.7495 60.0681 67.2303 60.0681 64.3955C60.0681 58.1221 64.779 53.8491 71.6935 53.8491C76.2861 53.8491 79.4405 55.9264 79.4405 58.923C79.4405 60.9195 77.9649 62.2373 75.7653 62.2373C74.6487 62.2373 73.7313 61.9591 72.5714 61.2805V56.0073H72.5733Z" fill="#231F20"/>
<path d="M68.9687 37.4556H49.4227V42.6084H68.9687V37.4556Z" fill="#AC2323"/>
<path d="M88.0786 3.52417H68.9626V7.6058H88.0786V3.52417Z" fill="#EF9C41"/>
<path d="M91.6238 7.60388H88.0788V13.5083H91.6238V7.60388Z" fill="#F1B785"/>
<path d="M88.0786 7.60388H68.9626V13.5083H88.0786V7.60388Z" fill="#E4782A"/>
<path d="M101.286 13.5084H91.6238V28.1107H101.286V13.5084Z" fill="#EFBA38"/>
<path d="M91.6238 13.5084H88.0788V28.1107H91.6238V13.5084Z" fill="#E78D29"/>
<path d="M80.7754 28.1126H88.0786V13.5103H68.9626V23.2813H80.7754V28.1126Z" fill="#D95F26"/>
<path d="M106.44 28.1127H101.287V37.4576H106.44V28.1127Z" fill="#E66EA7"/>
<path d="M101.286 28.1126H91.6238V37.4575H101.286V28.1126Z" fill="#DE5928"/>
<path d="M91.6238 28.1126H88.0788V37.4575H91.6238V28.1126Z" fill="#D34527"/>
<path d="M88.0792 28.1127H80.7761V37.4576H88.0792V28.1127Z" fill="#C22F26"/>
<path d="M80.7754 23.2814H68.9626V28.1146H80.7754V23.2814Z" fill="#C14D27"/>
<path d="M80.7754 28.1127H68.9626V37.4576H80.7754V28.1127Z" fill="#AC2323"/>
</svg>
