<svg width="28" height="28" viewBox="0 0 28 28" fill="none" xmlns="http://www.w3.org/2000/svg">
<path d="M10.5 13.4167L12.8333 15.7501L18.0833 10.5001M23.3333 14.0001C23.3333 19.7266 17.0871 23.8915 14.8143 25.2174C14.556 25.3681 14.4269 25.4434 14.2446 25.4825C14.1032 25.5129 13.8968 25.5129 13.7554 25.4825C13.5731 25.4434 13.444 25.3681 13.1857 25.2174C10.913 23.8915 4.66667 19.7266 4.66667 14.0001V8.42059C4.66667 7.48782 4.66667 7.02144 4.81923 6.62054C4.95399 6.26638 5.17298 5.95038 5.45727 5.69984C5.77908 5.41623 6.21577 5.25247 7.08914 4.92496L13.3446 2.57917C13.5871 2.48822 13.7084 2.44274 13.8332 2.42471C13.9438 2.40872 14.0562 2.40872 14.1669 2.42471C14.2916 2.44274 14.4129 2.48822 14.6554 2.57917L20.9109 4.92496C21.7842 5.25247 22.2209 5.41623 22.5427 5.69984C22.827 5.95038 23.046 6.26638 23.1808 6.62054C23.3333 7.02144 23.3333 7.48782 23.3333 8.42059V14.0001Z" stroke="#08783D" stroke-width="2.33333" stroke-linecap="round" stroke-linejoin="round"/>
</svg>
