<svg width="28" height="28" viewBox="0 0 28 28" fill="none" xmlns="http://www.w3.org/2000/svg">
<path d="M12.3501 15.65C11.4388 14.7387 11.4388 13.2613 12.3501 12.3501C13.2613 11.4389 14.7387 11.4389 15.6499 12.3501C16.5611 13.2613 16.5611 14.7387 15.6499 15.65M9.05023 18.9498C6.31656 16.2161 6.31656 11.784 9.05023 9.05029C11.7839 6.31662 16.2161 6.31662 18.9497 9.05029C21.6834 11.784 21.6834 16.2161 18.9497 18.9498M5.7504 22.2496C1.19428 17.6935 1.19428 10.3066 5.7504 5.75046C10.3065 1.19434 17.6934 1.19434 22.2496 5.75046C26.8057 10.3066 26.8057 17.6935 22.2496 22.2496" stroke="#08783D" stroke-width="2.33333" stroke-linecap="round" stroke-linejoin="round"/>
</svg>
