<svg width="86" height="86" viewBox="0 0 86 86" fill="none" xmlns="http://www.w3.org/2000/svg">
<path d="M62.503 28.635C62.5506 39.3356 53.8661 48.4519 42.6844 48.4663C31.7755 48.4791 22.8216 39.685 22.8301 28.6146C22.8386 17.3997 31.971 8.75774 42.7031 8.78069C53.691 8.80364 62.5565 17.7737 62.503 28.635ZM43.4502 20.8005C43.4154 24.0016 46.0988 26.5958 49.2438 26.595C52.2503 26.595 55.0323 24.1674 55.0391 20.792C55.0459 17.3852 52.263 14.9746 49.2727 14.9687C46.1821 14.9627 43.4137 17.5382 43.4502 20.8005Z" fill="#DB353A"/>
<path d="M81.095 67.4655C81.0296 67.4434 81.01 67.4579 80.9896 67.4919C80.5026 68.3181 79.7384 68.7669 78.8349 68.9437C77.236 69.2607 75.7468 68.9539 74.431 67.9747C73.3464 67.1672 72.7378 66.0528 72.561 64.7251C72.365 63.3823 72.5758 62.0115 73.1662 60.7896C74.0273 59.0046 75.4553 57.9294 77.3805 57.5129C78.1607 57.3334 78.9664 57.2932 79.7605 57.3939C81.7419 57.665 83.09 58.736 83.8218 60.5848C84.0779 61.2102 84.2107 61.8793 84.2128 62.5551C84.1984 64.5449 84.2834 66.5322 84.3182 68.5212C84.3347 69.3064 84.2008 70.0874 83.9238 70.8222C83.2863 72.5086 82.1125 73.6578 80.4048 74.2273C79.0293 74.6913 77.5458 74.7299 76.148 74.3378C75.6317 74.2024 75.1441 73.9746 74.709 73.6654C73.9737 73.1367 73.5598 72.444 73.604 71.5115C73.6193 71.1834 73.604 70.8536 73.6082 70.5247C73.6082 70.4601 73.6227 70.3921 73.689 70.3708C73.7203 70.3641 73.7528 70.3664 73.7829 70.3774C73.813 70.3883 73.8393 70.4076 73.859 70.4329C74.1562 70.7128 74.4969 70.9424 74.8679 71.1129C75.3795 71.3504 75.9212 71.5171 76.4778 71.6084C77.0454 71.7037 77.6218 71.7356 78.1965 71.7036C78.667 71.6884 79.1313 71.5924 79.5693 71.4197C80.4057 71.0797 80.9055 70.4567 81.0806 69.5803C81.1745 69.1334 81.1968 68.6743 81.1469 68.2203C81.1197 67.9679 81.112 67.7086 81.095 67.4655ZM81.0347 63.2155C81.0347 62.4454 80.9497 61.966 80.738 61.4968C80.3198 60.5559 79.5183 60.1215 78.5161 60.1725C77.514 60.2235 76.7311 60.7216 76.2415 61.6082C75.972 62.0784 75.8107 62.6027 75.7693 63.143C75.7278 63.6834 75.8072 64.2262 76.0018 64.7319C76.4073 65.8369 77.4468 66.6087 78.9403 66.2976C79.8753 66.1021 80.4703 65.4935 80.8043 64.6172C80.9676 64.1693 81.0457 63.6947 81.0347 63.2181V63.2155Z" fill="#686767"/>
<path d="M11.9594 58.3272C11.8421 58.317 11.7894 58.2294 11.724 58.1674C10.8621 57.3718 9.8276 56.9774 8.6784 56.8363C7.9938 56.7523 7.3014 56.7537 6.61715 56.8405C6.14836 56.8849 5.69111 57.0118 5.2665 57.2154C4.57035 57.5724 4.23205 58.1385 4.255 58.9256C4.25731 59.1062 4.2987 59.2843 4.37632 59.4474C4.45393 59.6106 4.56594 59.755 4.70465 59.8708C4.92073 60.0526 5.1632 60.2005 5.42375 60.3094C6.01506 60.5592 6.62789 60.7547 7.25465 60.8933C7.78675 61.0208 8.32395 61.1313 8.8518 61.2767C9.56557 61.4657 10.2392 61.7825 10.84 62.2117C11.7036 62.839 12.285 63.666 12.4125 64.7302C12.6989 67.0847 11.7614 69.3449 9.1714 70.2918C8.0052 70.7168 6.7914 70.8188 5.5606 70.7219C4.95047 70.6876 4.34677 70.5791 3.76285 70.3989C3.35936 70.2733 2.9754 70.0919 2.62215 69.86C1.8121 69.3092 1.3905 68.545 1.3701 67.565C1.36075 67.1264 1.3701 66.6878 1.3701 66.2492C1.3701 66.1514 1.45 66.1098 1.52565 66.1642C1.62595 66.239 1.7203 66.3223 1.8189 66.3988C3.3166 67.5616 5.00895 68.0138 6.88745 67.7945C7.29367 67.7574 7.69245 67.6621 8.0715 67.5114C8.4897 67.3346 8.8314 67.0694 9.02265 66.6478C9.253 66.1378 9.2581 65.6134 9.1306 65.0847C9.066 64.8178 8.8756 64.6214 8.6597 64.4574C8.41744 64.2836 8.15189 64.1448 7.8709 64.0451C7.15078 63.7842 6.41202 63.5779 5.6609 63.428C5.0929 63.3148 4.53406 63.1596 3.98895 62.9639C3.38321 62.7473 2.81892 62.4287 2.3204 62.0221C1.3446 61.201 0.931503 60.1368 1.0318 58.895C1.2137 56.7096 2.42835 55.268 4.39525 54.4138C5.08807 54.1166 5.83049 53.9519 6.584 53.9284C7.4935 53.8936 8.40045 53.9097 9.2921 54.1265C9.7818 54.236 10.2517 54.4204 10.6853 54.673C11.1375 54.9302 11.5072 55.3108 11.7512 55.7704C11.8901 56.0174 11.9718 56.2925 11.99 56.5753C12.0045 57.1227 12.0087 57.671 12.013 58.2192C12.013 58.2532 11.9815 58.2923 11.9594 58.3272Z" fill="#686767"/>
<path d="M28.2004 65.4171C27.6215 65.4171 27.0418 65.4171 26.4621 65.4171C26.2853 65.4171 26.2386 65.4783 26.276 65.6491C26.3683 66.0798 26.565 66.4811 26.8489 66.8179C27.364 67.4307 28.0338 67.7758 28.8039 67.9484C29.4397 68.0912 30.0789 68.0665 30.7215 68.013C31.2057 67.974 31.684 67.8799 32.1469 67.7325C32.7019 67.5609 33.218 67.2822 33.6659 66.9122C33.7628 66.8272 33.8588 66.8731 33.8588 66.993C33.8588 67.4469 33.886 67.8999 33.8112 68.353C33.7645 68.6715 33.6518 68.9768 33.4804 69.2493C33.3091 69.5218 33.0827 69.7556 32.8159 69.9357C32.3606 70.2448 31.8449 70.4537 31.3029 70.5485C30.3466 70.7355 29.3844 70.8146 28.4078 70.6862C26.0728 70.3811 23.8586 68.6964 23.1658 66.1141C22.951 65.3112 22.8773 64.4771 22.9482 63.6491C22.9959 62.9144 23.1361 62.1887 23.3656 61.4892C23.8305 60.1445 24.6168 59.0421 25.8306 58.272C26.6389 57.762 27.5263 57.4891 28.4758 57.382C29.4586 57.2568 30.4571 57.3992 31.3658 57.7943C32.8839 58.4641 33.8563 59.6039 34.2141 61.2359C34.3486 61.8015 34.368 62.3883 34.2711 62.9614C34.1461 63.6414 33.8112 64.1837 33.2273 64.5645C32.8005 64.8291 32.3307 65.017 31.8392 65.1196C31.0901 65.2875 30.3262 65.3809 29.5587 65.3984C29.1048 65.412 28.6509 65.3984 28.1987 65.3984L28.2004 65.4171ZM27.8196 63.1578C28.4537 63.151 29.1413 63.1578 29.8247 63.06C30.1507 63.0224 30.47 62.9409 30.7742 62.8178C30.9439 62.7526 31.0891 62.6363 31.1898 62.4849C31.2905 62.3335 31.3416 62.1546 31.336 61.9729C31.3462 61.2461 31.0572 60.6061 30.316 60.2729C29.6536 59.9749 28.9087 59.9149 28.2072 60.1029C27.3614 60.3222 26.8081 60.8917 26.4647 61.6788C26.2989 62.057 26.2513 62.4608 26.2156 62.8688C26.1935 63.1144 26.2199 63.1501 26.4545 63.1527C26.8914 63.1612 27.3291 63.1578 27.8196 63.1578Z" fill="#686767"/>
<path d="M70.5261 66.2458C70.5261 67.4358 70.5261 68.6258 70.5261 69.8158C70.5261 69.9101 70.5261 70.0045 70.5261 70.098C70.5185 70.4524 70.5125 70.4601 70.1513 70.4635C69.7756 70.4635 69.399 70.4771 69.0293 70.3895C68.2201 70.1983 67.6497 69.7436 67.4083 68.9267C67.3361 68.6827 67.3454 68.4303 67.3454 68.1795C67.3454 66.5968 67.3454 65.0144 67.3454 63.4323C67.3512 62.946 67.2981 62.4608 67.1873 61.9873C67.1247 61.7282 67.0257 61.4792 66.8932 61.2478C66.6615 60.8327 66.2874 60.5154 65.8401 60.3544C65.294 60.1452 64.6965 60.1104 64.1299 60.255C63.638 60.3768 63.2107 60.6806 62.9339 61.105C62.6902 61.4717 62.5346 61.8897 62.4792 62.3264C62.432 62.6678 62.4081 63.012 62.4078 63.3566C62.4117 65.5508 62.4117 67.7443 62.4078 69.9373C62.4078 70.5119 62.4452 70.4635 61.8689 70.4635C61.5559 70.4754 61.2426 70.4549 60.9339 70.4023C59.9657 70.2051 59.3571 69.5523 59.2534 68.5782C59.2366 68.4067 59.2286 68.2345 59.2296 68.0622C59.2296 66.3849 59.2296 64.7084 59.2296 63.0328C59.2296 62.3528 59.2934 61.6864 59.5059 61.0395C60.0567 59.3642 61.1557 58.2184 62.8396 57.6718C64.1052 57.2613 65.3896 57.2027 66.6799 57.5733C68.7054 58.1572 69.9099 59.5155 70.374 61.5538C70.4819 62.0772 70.5326 62.6107 70.5253 63.145C70.5304 64.1769 70.5261 65.2113 70.5261 66.2458Z" fill="#676767"/>
<path d="M14.6097 62.006C14.6097 60.7046 14.6097 59.4042 14.6097 58.1037C14.6041 57.8531 14.6178 57.6024 14.6505 57.354C14.8129 56.3093 15.43 55.5639 16.2655 54.9791C16.6752 54.6935 17.1512 54.6994 17.6255 54.7377C17.6653 54.7401 17.7026 54.7581 17.7292 54.7879C17.7558 54.8177 17.7695 54.8567 17.7675 54.8966C17.7734 55.0063 17.7734 55.1159 17.7734 55.2256C17.7734 55.852 17.7734 56.4793 17.7734 57.1058C17.7734 57.2154 17.7734 57.3251 17.7734 57.4347C17.7703 57.4582 17.7725 57.4821 17.7798 57.5047C17.7871 57.5273 17.7993 57.5479 17.8156 57.5652C17.8319 57.5824 17.8518 57.5958 17.8739 57.6044C17.896 57.613 17.9197 57.6166 17.9434 57.6149C18.0692 57.6149 18.1942 57.62 18.3191 57.62H21.6103C21.7047 57.62 21.7982 57.62 21.8925 57.62C22.1977 57.6268 22.2045 57.6319 22.2096 57.9421C22.2096 58.209 22.2096 58.4751 22.2096 58.7412C22.2036 59.6473 21.6554 60.2856 20.7578 60.4157C20.5247 60.4459 20.2898 60.4603 20.0548 60.459C19.4751 60.465 18.8954 60.459 18.3157 60.459C18.2061 60.459 18.0964 60.459 17.9868 60.459C17.8346 60.4675 17.7853 60.5125 17.776 60.6511C17.7692 60.7446 17.7709 60.839 17.7709 60.9333C17.7709 62.4214 17.7709 63.91 17.7709 65.3992C17.7587 65.7597 17.7968 66.1202 17.8839 66.4702C18.1032 67.2352 18.5733 67.6602 19.3944 67.735C20.2724 67.8098 21.1488 67.7639 21.9707 67.3763C22.145 67.2913 22.2045 67.3313 22.207 67.514C22.207 67.854 22.2198 68.2042 22.207 68.5476C22.1671 69.3755 21.7684 69.9654 21.0068 70.3063C20.7209 70.4362 20.4157 70.5183 20.1033 70.5494C19.2244 70.6344 18.3497 70.6004 17.4972 70.3403C16.0743 69.9076 15.1809 68.9607 14.8018 67.5276C14.6674 67.0115 14.6011 66.48 14.6046 65.9466C14.6046 64.6308 14.6046 63.3147 14.6046 61.9984L14.6097 62.006Z" fill="#686868"/>
<path d="M44.8859 60.3681C44.8859 58.1751 44.8859 55.9826 44.8859 53.7908C44.8859 53.3403 44.8714 53.3581 45.3245 53.3598C45.5599 53.3598 45.7945 53.3598 46.0291 53.3649C46.2958 53.372 46.5594 53.4243 46.8086 53.5196C47.4503 53.7508 47.8345 54.2107 47.9986 54.866C48.0591 55.1414 48.086 55.4231 48.0785 55.705C48.0785 59.1186 48.0785 62.5322 48.0785 65.9458C48.0785 66.1651 48.0785 66.3852 48.0929 66.6028C48.1465 67.2624 48.4899 67.6747 49.1223 67.8438C49.3947 67.917 49.6757 67.9536 49.9578 67.9526C50.2715 67.9526 50.5843 67.9526 50.8979 67.9577C51.0025 67.9577 51.0841 67.9985 51.0875 68.1158C51.0994 68.5408 51.1172 68.9658 51.0025 69.3755C50.9455 69.6129 50.8293 69.8319 50.6647 70.0122C50.5002 70.1925 50.2927 70.3282 50.0615 70.4066C49.8427 70.4879 49.614 70.5396 49.3815 70.5604C48.6779 70.6249 47.9684 70.5513 47.2931 70.3437C46.0053 69.9357 45.2726 69.0381 44.9981 67.7359C44.9211 67.3357 44.8864 66.9286 44.8944 66.5212C44.8893 64.4705 44.8864 62.4194 44.8859 60.3681Z" fill="#686868"/>
<path d="M39.3991 66.375C39.3991 67.5984 39.3991 68.821 39.3991 70.0428C39.3991 70.4678 39.394 70.4678 38.9903 70.4678C38.5865 70.4678 38.1751 70.4763 37.7739 70.3828C37.0523 70.2213 36.5125 69.8422 36.283 69.1078C36.2097 68.8676 36.1733 68.6177 36.1751 68.3666C36.1751 66.392 36.1657 64.4175 36.181 62.4429C36.174 61.6091 36.348 60.7838 36.691 60.0238C37.3362 58.6383 38.4216 57.8393 39.921 57.5903C40.5393 57.4755 41.1737 57.4781 41.791 57.5979C42.0837 57.6546 42.3642 57.7622 42.6198 57.9158C42.9069 58.0809 43.1459 58.3182 43.3131 58.6042C43.4802 58.8902 43.5697 59.2149 43.5726 59.5461C43.5845 59.8589 43.5786 60.1725 43.5726 60.4862C43.5726 60.714 43.5114 60.7497 43.2794 60.6766C43.1748 60.6443 43.0728 60.6027 42.9683 60.5695C42.3687 60.3793 41.7346 60.3236 41.111 60.4063C40.3953 60.5015 39.9015 60.8874 39.6363 61.5581C39.5167 61.8486 39.4471 62.1572 39.4306 62.471C39.4153 62.8305 39.4025 63.1909 39.4017 63.5513C39.3966 64.4923 39.3991 65.4324 39.3991 66.375Z" fill="#686868"/>
<path d="M52.3208 62.6537C52.3208 61.211 52.3208 59.7691 52.3208 58.3281C52.3208 57.9107 52.3208 57.9099 52.7263 57.9031C53.1021 57.8872 53.4786 57.9097 53.85 57.9702C54.6915 58.1402 55.21 58.6383 55.4131 59.4654C55.4834 59.7719 55.5162 60.0859 55.5109 60.4004C55.5069 62.2811 55.5069 64.1619 55.5109 66.0427C55.5109 66.2458 55.5058 66.4507 55.5253 66.653C55.5857 67.2692 55.8602 67.735 56.6074 67.8872C56.9472 67.9431 57.2917 67.9653 57.6359 67.9535C58.0549 67.9535 58.0532 67.9492 58.0507 68.3666C58.0629 68.7111 58.0375 69.056 57.975 69.3951C57.8407 69.9901 57.4931 70.3615 56.8938 70.5001C56.6958 70.5464 56.4936 70.5726 56.2903 70.5783C55.7886 70.5945 55.2871 70.5372 54.802 70.4083C53.612 70.0819 52.8606 69.3101 52.5189 68.1354C52.3813 67.6523 52.3143 67.1518 52.32 66.6496C52.32 65.3176 52.32 63.9857 52.32 62.6546L52.3208 62.6537Z" fill="#686868"/>
<path d="M52.0386 54.8456C52.0397 54.3557 52.2347 53.8863 52.581 53.5399C52.9273 53.1934 53.3967 52.9982 53.8865 52.9968C54.9167 52.9968 55.8007 53.8647 55.7684 54.8745C55.7618 55.366 55.563 55.8354 55.2146 56.1822C54.8662 56.529 54.3959 56.7256 53.9044 56.73C53.6573 56.7318 53.4123 56.6841 53.184 56.5897C52.9556 56.4954 52.7484 56.3564 52.5745 56.1808C52.4007 56.0052 52.2637 55.7966 52.1717 55.5673C52.0797 55.338 52.0344 55.0926 52.0386 54.8456Z" fill="#686868"/>
<path d="M51.9749 74.8818C52.0667 74.7968 52.1449 74.7237 52.2299 74.6608C52.773 74.2554 53.6417 74.4738 53.7599 75.238C53.7828 75.3452 53.7979 75.454 53.8049 75.5635C53.81 76.0174 53.8049 76.4722 53.8049 76.9235C53.8049 77.0179 53.8049 77.1233 53.6808 77.1428C53.6261 77.1516 53.57 77.1437 53.5199 77.1202C53.4697 77.0967 53.4277 77.0587 53.3995 77.0111C53.3546 76.9276 53.3359 76.8325 53.3459 76.7382C53.3459 76.394 53.3459 76.0489 53.3459 75.7038C53.3512 75.531 53.3205 75.3591 53.2558 75.1989C53.1615 74.9804 52.9957 74.8895 52.7229 74.9022C52.4679 74.9141 52.2877 75.034 52.2341 75.2626C52.1985 75.4303 52.1806 75.6012 52.1806 75.7726C52.1729 76.1492 52.1806 76.5249 52.1806 76.9014C52.1806 76.9932 52.1908 77.0995 52.0794 77.1403C52.0103 77.1568 51.9375 77.1464 51.8757 77.1112C51.814 77.076 51.768 77.0186 51.7471 76.9507C51.7258 76.8435 51.7155 76.7344 51.7165 76.6252C51.7122 76.343 51.7165 76.0608 51.7122 75.7752C51.7109 75.6188 51.6933 75.4629 51.6595 75.3102C51.6335 75.1861 51.5631 75.0757 51.4616 74.9997C51.36 74.9236 51.2343 74.8872 51.1079 74.8971C50.8418 74.9022 50.6897 75.0255 50.5979 75.3C50.5531 75.4661 50.5351 75.6382 50.5443 75.81C50.5443 76.2019 50.5443 76.5937 50.5375 76.9856C50.5379 77.0126 50.5312 77.0392 50.5181 77.0629C50.505 77.0866 50.486 77.1064 50.4629 77.1205C50.4399 77.1345 50.4135 77.1424 50.3865 77.1431C50.3595 77.1439 50.3327 77.1377 50.3089 77.125C50.1321 77.0604 50.0845 76.9184 50.0836 76.7527C50.0836 76.3447 50.0743 75.9375 50.0896 75.5304C50.0981 75.374 50.1341 75.2204 50.1958 75.0765C50.302 74.8286 50.5005 74.6318 50.7493 74.5279C50.9982 74.4239 51.2777 74.421 51.5286 74.5197C51.7105 74.6005 51.8321 74.745 51.9749 74.8818Z" fill="#706E6E"/>
<path d="M61.9972 75.4012C62.0202 75.4862 62.0975 75.51 62.157 75.5533C62.667 75.9205 62.5047 76.6354 62.1137 76.9363C62.0276 77.004 61.9304 77.056 61.8264 77.0901C61.4192 77.2102 60.9873 77.2181 60.576 77.1131C60.3074 77.0502 60.1587 76.847 60.1264 76.5699C60.1188 76.492 60.116 76.4136 60.1179 76.3353C60.1179 75.646 60.1179 74.9566 60.1179 74.2673C60.1179 73.8967 60.1221 73.8933 60.4995 73.8202C60.8699 73.7498 61.2496 73.7427 61.6224 73.7989C62.0788 73.8652 62.4452 74.1857 62.3993 74.7458C62.3923 74.9197 62.319 75.0842 62.1944 75.2057C62.1315 75.2694 62.0295 75.3 61.9972 75.4012ZM60.5752 76.0812C60.5752 76.1594 60.5752 76.2367 60.5752 76.3149C60.5734 76.3461 60.5734 76.3773 60.5752 76.4084C60.5956 76.6014 60.6704 76.711 60.8446 76.7425C61.1198 76.8048 61.407 76.7898 61.6742 76.6991C61.9292 76.6014 62.0304 76.4084 62.0049 76.0973C61.9836 75.8423 61.8714 75.6995 61.6105 75.6494C61.4267 75.6162 61.2404 75.5992 61.0537 75.5984C60.5531 75.5924 60.5726 75.5754 60.5752 76.0829V76.0812ZM61.1005 75.2312C61.2713 75.2227 61.4416 75.2049 61.6105 75.1776C61.8247 75.1326 61.9394 74.9651 61.9505 74.7331C61.959 74.4874 61.8655 74.3327 61.6632 74.2503C61.4723 74.1837 61.2696 74.1579 61.0682 74.1746C60.6041 74.1891 60.5743 74.218 60.5752 74.6846C60.5701 75.2558 60.5301 75.215 61.1005 75.2295V75.2312Z" fill="#737070"/>
<path d="M29.8953 75.5499C29.8825 75.7689 29.8419 75.9854 29.7746 76.1942C29.5391 76.8444 29.0232 77.2142 28.35 77.2006C28.0346 77.1994 27.7283 77.0945 27.4783 76.9023C27.2282 76.71 27.0483 76.4409 26.9662 76.1364C26.8266 75.6844 26.838 75.1993 26.9985 74.7543C27.239 74.07 27.7635 73.7292 28.5191 73.764C29.1507 73.7929 29.6479 74.2052 29.8205 74.8563C29.8818 75.0821 29.9071 75.3162 29.8953 75.5499ZM27.3249 75.4326C27.318 75.636 27.3468 75.8391 27.4099 76.0327C27.5433 76.5129 27.9139 76.7824 28.4146 76.7807C28.8821 76.7807 29.234 76.5053 29.3708 76.0361C29.4729 75.6748 29.4729 75.2923 29.3708 74.9311C29.2416 74.4398 28.8974 74.1754 28.3814 74.1661C27.8944 74.1661 27.545 74.4126 27.4039 74.8801C27.3433 75.0577 27.3165 75.2451 27.3249 75.4326Z" fill="#706E6E"/>
<path d="M35.3625 76.5589C35.4432 76.8309 35.3268 76.9779 35.1287 77.0808C34.47 77.4208 33.6191 77.1046 33.3752 76.4093C33.2889 76.1805 33.2574 75.9348 33.2831 75.6918C33.3088 75.4487 33.391 75.215 33.5231 75.0093C33.6734 74.7574 33.9167 74.5747 34.2005 74.5004C34.4843 74.4262 34.7859 74.4664 35.0403 74.6124C35.1995 74.6996 35.3282 74.8336 35.4089 74.9962C35.4896 75.1588 35.5185 75.3423 35.4917 75.5219C35.4848 75.6082 35.4545 75.6911 35.404 75.7615C35.3535 75.8319 35.2848 75.8871 35.2052 75.9214C35.0324 75.998 34.8451 76.0363 34.6561 76.0336C34.4062 76.0336 34.1555 76.0336 33.9047 76.0438C33.8855 76.045 33.8669 76.0506 33.8503 76.0601C33.8336 76.0697 33.8194 76.083 33.8087 76.0989C33.798 76.1149 33.7912 76.1331 33.7886 76.1521C33.7861 76.1711 33.788 76.1905 33.7942 76.2087C33.8792 76.5342 34.1487 76.7476 34.5167 76.7765C34.7564 76.7952 34.9188 76.7544 35.3625 76.5589ZM34.3892 75.663C34.464 75.6579 34.6527 75.6553 34.8363 75.6273C34.997 75.6026 35.0641 75.4794 35.0429 75.3162C35.0368 75.2295 35.005 75.1467 34.9515 75.0782C34.8981 75.0098 34.8254 74.9588 34.7428 74.932C34.368 74.8062 33.9166 74.9235 33.784 75.4139C33.7398 75.5771 33.7883 75.6553 33.9498 75.6621C34.0586 75.6672 34.1665 75.663 34.3892 75.663Z" fill="#737070"/>
<path d="M56.5105 76.5257C56.5496 76.8929 56.3881 77.0535 56.1475 77.1258C55.2576 77.3901 54.5767 76.9447 54.4263 76.1636C54.3457 75.7749 54.4178 75.3701 54.6277 75.0331C54.9286 74.5418 55.5049 74.3352 56.0115 74.5384C56.168 74.5934 56.3068 74.6894 56.4135 74.8163C56.5203 74.9432 56.591 75.0965 56.6184 75.26C56.6694 75.538 56.5904 75.8831 56.1781 75.9749C56.0565 76.003 55.9329 76.0215 55.8084 76.0301C55.6205 76.0403 55.4318 76.0301 55.2448 76.0395C55.1403 76.0395 55.0026 75.9944 54.9439 76.1024C54.8683 76.2435 54.9609 76.3727 55.051 76.4823C55.261 76.7373 55.5415 76.8028 55.8543 76.7705C56.0881 76.7371 56.3119 76.6536 56.5105 76.5257ZM54.8955 75.6391C55.2342 75.6819 55.5771 75.6802 55.9155 75.634C56.1586 75.6034 56.2436 75.4096 56.1331 75.1852C56.1033 75.1217 56.0605 75.0651 56.0075 75.0191C55.9545 74.9732 55.8925 74.9388 55.8254 74.9183C55.3315 74.7611 54.9125 75.0773 54.8997 75.64L54.8955 75.6391Z" fill="#737070"/>
<path d="M63.1371 75.1487C63.0733 74.9625 63.1532 74.8223 63.2884 74.7008C63.6411 74.3846 64.3679 74.3761 64.7334 74.6838C64.8143 74.7466 64.881 74.8258 64.9294 74.9162C64.9777 75.0065 65.0065 75.106 65.0139 75.2082C65.0317 75.6332 65.0385 76.0531 65.0139 76.4739C65.0083 76.6164 64.9589 76.7539 64.8726 76.8674C64.7862 76.981 64.667 77.0653 64.5311 77.1088C64.2077 77.2388 63.8462 77.2363 63.5247 77.102C63.2102 76.9711 63.0087 76.7484 63.0147 76.3897C63.0105 76.2316 63.0566 76.0763 63.1465 75.9461C63.2363 75.8159 63.3652 75.7177 63.5145 75.6655C63.6454 75.6152 63.7817 75.5804 63.9208 75.5618C64.0593 75.5406 64.2013 75.5431 64.3458 75.5329C64.5336 75.5193 64.5957 75.4386 64.5583 75.2643C64.5451 75.1702 64.4999 75.0835 64.4302 75.0189C64.3605 74.9543 64.2706 74.9158 64.1758 74.9098C63.9116 74.8624 63.6391 74.9033 63.4006 75.0263C63.3156 75.0697 63.2569 75.1555 63.1371 75.1487ZM64.2293 75.929C63.9225 75.929 63.7882 75.9579 63.6488 76.0531C63.6038 76.0835 63.566 76.1236 63.5383 76.1703C63.5106 76.217 63.4935 76.2693 63.4883 76.3233C63.4831 76.3774 63.4899 76.432 63.5082 76.4831C63.5266 76.5343 63.556 76.5807 63.5944 76.6192C63.7992 76.8011 64.0406 76.8181 64.2922 76.7382C64.5268 76.6634 64.5727 76.4713 64.5761 76.2571C64.5761 76.2112 64.5761 76.1645 64.5761 76.1177C64.5676 75.9775 64.526 75.9383 64.3704 75.9298C64.3228 75.9273 64.2761 75.929 64.2293 75.929Z" fill="#737070"/>
<path d="M68.9834 75.5167C69.1534 75.498 69.1916 75.4045 69.2537 75.3391C69.4466 75.1351 69.637 74.9268 69.8291 74.722C69.9089 74.6283 70.0157 74.5617 70.1349 74.5312C70.2541 74.5008 70.3798 74.5081 70.4947 74.552C70.4947 74.6608 70.4097 74.6931 70.3604 74.7458C70.1317 74.9812 69.8954 75.2099 69.6719 75.4496C69.3846 75.7573 69.3846 75.7046 69.6608 76.0582C69.9107 76.3786 70.1589 76.7008 70.5066 76.9269C70.572 76.9694 70.5448 77.0875 70.4692 77.119C70.3914 77.1575 70.3038 77.1715 70.2179 77.1592C70.132 77.1469 70.0519 77.1089 69.9881 77.0501C69.8617 76.9338 69.743 76.8095 69.6328 76.6778C69.4696 76.4883 69.3149 76.2911 69.1568 76.0973C69.1447 76.078 69.1263 76.0635 69.1048 76.0563C69.0833 76.049 69.0599 76.0494 69.0386 76.0573C68.9774 76.0786 68.9876 76.1321 68.9868 76.1746C68.9808 76.456 68.9817 76.7373 68.9732 77.0187C68.9711 77.0419 68.9635 77.0642 68.9509 77.0837C68.9383 77.1033 68.9211 77.1194 68.9008 77.1308C68.8806 77.1422 68.8578 77.1485 68.8346 77.1491C68.8113 77.1497 68.7883 77.1446 68.7675 77.1343C68.7218 77.1227 68.6801 77.099 68.6469 77.0656C68.6136 77.0322 68.5901 76.9905 68.5788 76.9447C68.5599 76.853 68.5499 76.7596 68.549 76.6659C68.549 75.744 68.549 74.8212 68.549 73.8975C68.549 73.8669 68.549 73.8354 68.549 73.804C68.5541 73.7079 68.5601 73.6085 68.6867 73.6008C68.7416 73.5934 68.7974 73.6049 68.8449 73.6335C68.8923 73.6621 68.9286 73.7061 68.9477 73.7581C68.974 73.8477 68.9855 73.941 68.9817 74.0343C68.9817 74.3786 68.9817 74.7228 68.9817 75.0671L68.9834 75.5167Z" fill="#706E6E"/>
<path d="M20.6252 75.8355C20.6307 76.0312 20.5978 76.2262 20.5283 76.4092C20.3668 76.8589 20.0659 77.1428 19.5703 77.1887C19.0748 77.2346 18.6115 77.0144 18.3965 76.575C18.2691 76.3303 18.2072 76.0568 18.2169 75.781C18.2266 75.5053 18.3075 75.2368 18.4517 75.0016C18.6744 74.614 19.0467 74.4483 19.4811 74.4661C19.6953 74.4661 19.9048 74.529 20.0836 74.647C20.2623 74.765 20.4025 74.933 20.4866 75.13C20.5882 75.3508 20.6357 75.5927 20.6252 75.8355ZM20.1619 75.8584C20.1764 75.6474 20.1304 75.4365 20.0293 75.2507C19.7871 74.8121 19.1283 74.7755 18.8495 75.1827C18.6056 75.5371 18.6294 76.1755 18.9022 76.5053C18.9809 76.6033 19.0843 76.6785 19.2017 76.7233C19.3191 76.7681 19.4463 76.7809 19.5703 76.7603C19.8432 76.7254 20.0115 76.5529 20.1007 76.2936C20.146 76.1532 20.1667 76.006 20.1619 75.8584Z" fill="#706E6E"/>
<path d="M49.4878 75.81C49.4915 76.0251 49.4528 76.2389 49.3739 76.439C49.2124 76.8708 48.9123 77.1385 48.4389 77.1836C47.9654 77.2286 47.577 77.0646 47.3075 76.6634C46.9803 76.1738 47.0168 75.3544 47.3789 74.8903C47.8804 74.2477 48.9412 74.3463 49.3203 75.0705C49.4319 75.3009 49.4892 75.5539 49.4878 75.81ZM49.0262 75.8686C49.0353 75.6416 48.9812 75.4165 48.8698 75.2184C48.6148 74.8095 47.9901 74.7832 47.7155 75.1708C47.4656 75.5235 47.4826 76.1627 47.7529 76.4942C48.07 76.8818 48.7559 76.8946 48.9557 76.3038C49.0047 76.1653 49.0286 76.019 49.0262 75.872V75.8686Z" fill="#706E6E"/>
<path d="M21.2287 75.3722C21.2287 75.1529 21.2287 74.9345 21.2287 74.7152C21.2287 74.6302 21.2465 74.5537 21.3366 74.5307C21.3747 74.5208 21.4146 74.5198 21.4532 74.5276C21.4917 74.5354 21.528 74.5519 21.5593 74.5758C21.5909 74.5989 21.6172 74.6284 21.6365 74.6624C21.6559 74.6964 21.6678 74.7341 21.6715 74.773C21.6826 74.8818 21.6885 74.9906 21.6894 75.1002C21.6894 75.3501 21.6843 75.6009 21.6936 75.8508C21.6949 76.0067 21.7149 76.162 21.7531 76.3132C21.7734 76.3933 21.8099 76.4684 21.8604 76.5338C21.9109 76.5992 21.9743 76.6535 22.0467 76.6934C22.1191 76.7332 22.1989 76.7578 22.2811 76.7655C22.3634 76.7732 22.4464 76.7639 22.5249 76.7382C22.6097 76.7189 22.6878 76.6772 22.7509 76.6174C22.814 76.5575 22.8598 76.4818 22.8836 76.3982C22.9306 76.2324 22.9524 76.0605 22.9482 75.8882C22.9482 75.4972 22.9482 75.1062 22.9482 74.7152C22.9482 74.637 22.9482 74.552 23.0494 74.5307C23.0873 74.5202 23.1273 74.5188 23.1658 74.5268C23.2044 74.5348 23.2406 74.5519 23.2712 74.5766C23.3172 74.6179 23.3522 74.6698 23.3732 74.7279C23.3973 74.8021 23.4096 74.8795 23.4098 74.9574C23.4098 75.3331 23.4098 75.708 23.4098 76.0837C23.4072 76.1461 23.4003 76.2083 23.3894 76.2698C23.2746 77.0161 22.5904 77.4088 21.8866 77.1283C21.7393 77.0724 21.608 76.9811 21.5043 76.8625C21.4005 76.744 21.3275 76.6017 21.2916 76.4483C21.2513 76.2811 21.2277 76.1102 21.221 75.9383C21.2091 75.7513 21.221 75.5635 21.221 75.3756L21.2287 75.3722Z" fill="#737070"/>
<path d="M39.5844 74.4712C39.4833 74.4712 39.428 74.3811 39.3498 74.3378C39.1908 74.2439 39.0119 74.1889 38.8276 74.1775C38.6434 74.166 38.459 74.1983 38.2896 74.2718C38.1202 74.3452 37.9706 74.4577 37.8531 74.6001C37.7355 74.7425 37.6533 74.9106 37.6133 75.0909C37.5342 75.4296 37.5717 75.785 37.7195 76.0998C37.9575 76.643 38.5551 76.8929 39.1331 76.7178C39.2657 76.6707 39.3917 76.6067 39.5079 76.5274C39.52 76.5211 39.5334 76.5178 39.547 76.5178C39.5606 76.5178 39.574 76.5211 39.5861 76.5274C39.5958 76.5391 39.6031 76.5527 39.6075 76.5673C39.6119 76.5819 39.6133 76.5972 39.6116 76.6124C39.6031 76.6986 39.5743 76.7815 39.5276 76.8545C39.4809 76.9275 39.4177 76.9884 39.343 77.0323C39.2375 77.1002 39.1197 77.1467 38.9962 77.1691C38.6945 77.2316 38.381 77.2008 38.0973 77.0809C37.8135 76.961 37.5729 76.7575 37.4076 76.4976C37.0149 75.8593 36.9987 75.1946 37.3617 74.535C37.6515 74.0088 38.2312 73.6629 39.0005 73.7776C39.1342 73.7913 39.2614 73.8423 39.3675 73.9248C39.4736 74.0073 39.5544 74.118 39.6006 74.2443C39.6177 74.2803 39.6253 74.3201 39.6225 74.3599C39.6196 74.3997 39.6065 74.438 39.5844 74.4712Z" fill="#737070"/>
<path d="M67.8733 76.241C67.8733 76.4756 67.8733 76.7102 67.8733 76.9448C67.8733 77.0391 67.8673 77.1386 67.7373 77.1488C67.6828 77.1595 67.6262 77.1514 67.577 77.1257C67.5277 77.1001 67.4886 77.0585 67.4661 77.0077C67.435 76.9195 67.42 76.8265 67.4219 76.7331C67.416 76.4203 67.4219 76.1075 67.4168 75.7981C67.4167 75.6417 67.4034 75.4856 67.3769 75.3315C67.3259 75.0765 67.1525 74.9388 66.8822 74.9065C66.566 74.8733 66.362 74.9651 66.2447 75.1921C66.1756 75.333 66.1428 75.4891 66.1495 75.646C66.1495 76.0217 66.1495 76.3974 66.1495 76.7731C66.1512 76.8668 66.1461 76.9606 66.1342 77.0536C66.1223 77.1224 66.0602 77.1454 65.9931 77.1471C65.9379 77.1502 65.8832 77.1353 65.8372 77.1046C65.7912 77.074 65.7564 77.0292 65.7381 76.9771C65.7114 76.9041 65.6982 76.8269 65.699 76.7493C65.6956 76.3583 65.6956 75.9673 65.699 75.5763C65.7051 75.3865 65.7581 75.2013 65.853 75.0369C65.948 74.8725 66.082 74.7341 66.2433 74.634C66.4046 74.5339 66.5881 74.4751 66.7775 74.4628C66.9669 74.4506 67.1565 74.4853 67.3293 74.5639C67.4725 74.6295 67.5955 74.7324 67.6853 74.862C67.775 74.9915 67.8282 75.1428 67.8393 75.3C67.8741 75.6094 67.8741 75.9239 67.8894 76.235L67.8733 76.241Z" fill="#706E6E"/>
<path d="M40.0944 75.413C40.0944 75.1631 40.0944 74.9132 40.0944 74.6633C40.0944 74.5596 40.1854 74.5078 40.2899 74.5282C40.3525 74.5377 40.41 74.5681 40.4532 74.6144C40.4964 74.6606 40.5227 74.7201 40.5279 74.7832C40.5412 74.9071 40.5469 75.0317 40.5449 75.1563C40.5509 75.4844 40.5407 75.8134 40.5619 76.1406C40.5798 76.4271 40.72 76.6447 41.0107 76.7356C41.0843 76.763 41.1629 76.7745 41.2413 76.7695C41.3197 76.7645 41.3962 76.7431 41.4658 76.7066C41.5354 76.6702 41.5965 76.6195 41.6452 76.5578C41.6939 76.4962 41.7291 76.425 41.7485 76.3489C41.7809 76.2122 41.7955 76.0719 41.7919 75.9315C41.7978 75.5414 41.7919 75.1504 41.797 74.7594C41.797 74.6693 41.7842 74.563 41.9075 74.5333C41.9686 74.519 42.0329 74.5266 42.089 74.5549C42.1451 74.5832 42.1894 74.6303 42.2143 74.688C42.2347 74.73 42.2469 74.7756 42.25 74.8223C42.25 75.2915 42.2747 75.7573 42.2424 76.2282C42.199 76.8419 41.8012 77.1887 41.1909 77.2014C40.6036 77.2133 40.1709 76.8529 40.1063 76.2562C40.0882 75.9755 40.0862 75.694 40.1004 75.413H40.0944Z" fill="#737070"/>
<path d="M32.6637 76.1891C32.6637 76.4713 32.6688 76.7526 32.6637 77.034C32.6637 77.13 32.5787 77.1581 32.4937 77.1479C32.3433 77.13 32.2549 77.0578 32.2328 76.9226C32.2201 76.8297 32.2147 76.7359 32.2166 76.6421C32.2166 76.3608 32.2166 76.0786 32.2166 75.7964C32.2193 75.6869 32.2165 75.5774 32.2081 75.4683C32.158 74.9914 31.7024 74.7466 31.2731 74.9659C31.1955 75.0047 31.1288 75.0621 31.079 75.133C31.0291 75.2039 30.9977 75.2861 30.9875 75.3722C30.9692 75.5131 30.9612 75.6552 30.9637 75.7972C30.9637 76.1729 30.9637 76.5486 30.9637 76.9243C30.9637 77.017 30.9637 77.1207 30.8456 77.1479C30.7839 77.1613 30.7195 77.1526 30.6637 77.1232C30.6078 77.0938 30.5642 77.0457 30.5404 76.9872C30.5203 76.9283 30.5095 76.8667 30.5081 76.8045C30.5081 76.3795 30.4928 75.9545 30.5081 75.5363C30.5532 74.5358 31.4763 74.3046 32.0866 74.5486C32.464 74.699 32.6272 75.0144 32.6612 75.3986C32.6841 75.6621 32.6654 75.9298 32.6654 76.1959L32.6637 76.1891Z" fill="#747373"/>
<path d="M42.9215 76.5232C43.1013 76.6217 43.2926 76.6977 43.491 76.7492C43.6748 76.7923 43.8672 76.7792 44.0435 76.7118C44.1032 76.6919 44.1551 76.6538 44.1922 76.6029C44.2292 76.552 44.2494 76.4909 44.2501 76.428C44.2609 76.3653 44.2499 76.3009 44.219 76.2453C44.188 76.1898 44.139 76.1466 44.0801 76.1228C43.9211 76.0607 43.7554 76.0148 43.5922 75.963C43.4555 75.9307 43.3214 75.8884 43.191 75.8363C42.8901 75.6901 42.7864 75.4114 42.8918 75.0884C42.9288 74.9683 42.9938 74.8588 43.0813 74.7687C43.3924 74.4517 44.001 74.3599 44.3895 74.5784C44.4694 74.6267 44.5405 74.6885 44.5994 74.7611C44.6844 74.8597 44.6895 75.0246 44.6275 75.0603C44.5425 75.1104 44.4813 75.0416 44.4158 75.011C44.2006 74.9135 43.9619 74.8799 43.7282 74.9141C43.618 74.9258 43.5143 74.9715 43.4315 75.045C43.3984 75.0715 43.3724 75.1058 43.3559 75.1448C43.3394 75.1838 43.3329 75.2264 43.3369 75.2685C43.341 75.3107 43.3555 75.3512 43.3791 75.3864C43.4027 75.4216 43.4348 75.4503 43.4723 75.47C43.5719 75.5139 43.6748 75.55 43.78 75.578C43.9577 75.6358 44.1413 75.68 44.3138 75.748C44.8842 75.98 44.7881 76.6897 44.4711 76.9549C44.154 77.2201 43.497 77.2796 43.1425 77.0518C43.0894 77.0189 43.0423 76.9773 43.0031 76.9286C42.965 76.8782 42.9381 76.8202 42.9241 76.7586C42.9162 76.6803 42.9153 76.6016 42.9215 76.5232Z" fill="#737070"/>
<path d="M17.8992 73.9978C17.8755 74.1343 17.8247 74.2647 17.7496 74.3812C17.5472 74.7683 17.313 75.1379 17.0492 75.4862C16.9118 75.6567 16.8441 75.8729 16.8597 76.0914C16.8716 76.3727 16.8597 76.6541 16.8597 76.9363C16.8597 77.0306 16.8503 77.1318 16.7245 77.1445C16.6622 77.1554 16.5981 77.1444 16.5429 77.1134C16.4878 77.0824 16.445 77.0334 16.4219 76.9745C16.4037 76.8988 16.3949 76.8212 16.3956 76.7433C16.3956 76.5087 16.3854 76.2741 16.3956 76.0395C16.4031 75.8522 16.3454 75.668 16.2324 75.5185C15.9258 75.0837 15.6649 74.6186 15.4538 74.1304C15.4189 74.0607 15.3924 73.987 15.3747 73.9111C15.3716 73.8959 15.372 73.8801 15.3759 73.865C15.3798 73.85 15.387 73.836 15.3971 73.8241C15.4071 73.8122 15.4198 73.8028 15.434 73.7965C15.4482 73.7903 15.4637 73.7873 15.4793 73.7879C15.5572 73.775 15.6373 73.7873 15.7079 73.8229C15.7785 73.8585 15.8359 73.9156 15.872 73.9859C15.957 74.1364 16.0182 74.297 16.1023 74.4466C16.2468 74.7059 16.3981 74.9617 16.5537 75.2116C16.6191 75.3179 16.6965 75.3128 16.7713 75.2057C17 74.8693 17.2023 74.5158 17.3765 74.1483C17.4208 74.0486 17.4702 73.9513 17.5244 73.8567C17.5847 73.7624 17.6833 73.7717 17.7794 73.8023C17.8186 73.8163 17.852 73.8434 17.8738 73.8789C17.8956 73.9145 17.9045 73.9564 17.8992 73.9978Z" fill="#747373"/>
<path d="M45.7903 74.019C45.8931 74.1669 45.7342 74.4015 45.9178 74.4882C46.0478 74.5503 46.2238 74.5137 46.3793 74.5205C46.4261 74.5205 46.4728 74.5205 46.5196 74.5205C46.6148 74.5205 46.7202 74.5205 46.7236 74.6531C46.7312 74.7091 46.7182 74.7659 46.6869 74.8128C46.6556 74.8598 46.6081 74.8937 46.5536 74.9081C46.4471 74.9311 46.3392 74.9464 46.2306 74.954C46.1532 74.9617 46.0742 74.954 45.996 74.9642C45.9178 74.9744 45.8447 75.0161 45.8438 75.1062C45.8438 75.5312 45.8285 75.9511 45.8498 76.3718C45.8617 76.6268 46.0291 76.7594 46.2858 76.7679C46.3635 76.7649 46.441 76.7572 46.5179 76.745C46.6513 76.7331 46.7142 76.813 46.6802 76.9371C46.6667 76.9903 46.6395 77.0391 46.6013 77.0786C46.5632 77.1181 46.5153 77.147 46.4626 77.1623C45.9628 77.3323 45.4962 77.0671 45.395 76.5537C45.3807 76.4769 45.3736 76.399 45.3738 76.3208C45.3738 75.7581 45.3738 75.1954 45.3738 74.6319C45.362 74.4586 45.4137 74.2871 45.5191 74.1491C45.5888 74.0641 45.667 73.9825 45.7903 74.019Z" fill="#737070"/>
<path d="M57.2517 76.1271C57.2517 75.9239 57.2423 75.7208 57.2517 75.5185C57.2577 75.3145 57.3106 75.1147 57.4064 74.9345C57.4979 74.7686 57.6444 74.6398 57.8206 74.5703C57.9969 74.5008 58.1918 74.4949 58.372 74.5537C58.4478 74.5759 58.5133 74.6241 58.557 74.6899C58.6007 74.7557 58.6198 74.8348 58.6108 74.9133C58.6108 74.9745 58.5836 75.0357 58.4952 75.017C58.4048 74.993 58.3128 74.976 58.2198 74.966C57.9453 74.9498 57.8059 75.051 57.7532 75.3153C57.7263 75.4688 57.7129 75.6244 57.7132 75.7803C57.7081 76.1713 57.7132 76.5614 57.7132 76.9524C57.7132 77.0306 57.7064 77.1122 57.6189 77.1462C57.5658 77.1599 57.5098 77.1579 57.4578 77.1406C57.4058 77.1233 57.3599 77.0913 57.3256 77.0485C57.2728 76.9703 57.2455 76.8776 57.2474 76.7833C57.2474 76.564 57.2474 76.3455 57.2474 76.1271H57.2517Z" fill="#747373"/>
<path d="M24.1127 76.1194C24.1127 75.9163 24.1127 75.7131 24.1127 75.5108C24.1135 75.2904 24.1766 75.0747 24.2946 74.8886C24.3863 74.7412 24.5235 74.6278 24.6855 74.5655C24.8475 74.5032 25.0254 74.4955 25.1922 74.5435C25.2462 74.5538 25.297 74.577 25.3401 74.6112C25.3831 74.6454 25.4173 74.6896 25.4396 74.7399C25.4596 74.7736 25.4718 74.8115 25.4754 74.8506C25.4789 74.8897 25.4736 74.9291 25.46 74.966C25.4115 75.0612 25.3282 75.0093 25.2568 74.9932C25.2113 74.981 25.165 74.9722 25.1183 74.9668C24.7825 74.9413 24.6244 75.0663 24.587 75.408C24.5675 75.5941 24.5751 75.7828 24.5734 75.9698C24.5734 76.3098 24.5734 76.6566 24.5649 77C24.5649 77.1216 24.4689 77.1777 24.3295 77.1411C24.2674 77.1282 24.2119 77.0939 24.1726 77.0441C24.1333 76.9944 24.1127 76.9325 24.1144 76.8691C24.1068 76.6192 24.1144 76.3693 24.1144 76.1194H24.1127Z" fill="#747373"/>
<path d="M43.4502 20.8005C43.4137 17.5382 46.1821 14.9627 49.2727 14.9687C52.263 14.9746 55.0459 17.3852 55.0391 20.792C55.0323 24.1674 52.2503 26.595 49.2438 26.595C46.0988 26.595 43.4154 24.0016 43.4502 20.8005Z" fill="#FFFEFE"/>
<path d="M27.8196 63.1578C27.3291 63.1578 26.8914 63.1578 26.4536 63.1578C26.219 63.1578 26.1927 63.1195 26.2148 62.8739C26.2505 62.4684 26.2998 62.0647 26.4638 61.6839C26.8038 60.8968 27.3606 60.3239 28.2063 60.108C28.9078 59.92 29.6528 59.98 30.3152 60.278C31.0572 60.6078 31.3462 61.2478 31.3352 61.978C31.3407 62.1597 31.2896 62.3386 31.1889 62.49C31.0883 62.6414 30.943 62.7577 30.7733 62.8229C30.4692 62.9442 30.1501 63.024 29.8247 63.06C29.1413 63.1603 28.4537 63.151 27.8196 63.1578Z" fill="#FCFCFC"/>
<path d="M60.5752 76.0829C60.5752 75.5729 60.5531 75.5924 61.0571 75.6001C61.2438 75.6009 61.4301 75.6179 61.6139 75.6511C61.8748 75.7012 61.987 75.8423 62.0083 76.099C62.0338 76.4101 61.9309 76.6031 61.6776 76.7008C61.4104 76.7915 61.1232 76.8065 60.848 76.7442C60.678 76.7127 60.599 76.6031 60.5786 76.4101C60.5768 76.379 60.5768 76.3478 60.5786 76.3166C60.5743 76.235 60.5752 76.1611 60.5752 76.0829Z" fill="#F7F8F8"/>
<path d="M61.1005 75.2295C60.5301 75.2159 60.5701 75.2558 60.5701 74.6863C60.5701 74.2163 60.599 74.1874 61.0631 74.1763C61.2645 74.1596 61.4672 74.1854 61.6581 74.252C61.8638 74.337 61.9539 74.4891 61.9454 74.7348C61.936 74.9668 61.8213 75.1343 61.6054 75.1793C61.4381 75.2052 61.2695 75.222 61.1005 75.2295Z" fill="#F7F8F8"/>
<path d="M27.3249 75.4326C27.3184 75.2447 27.3472 75.0573 27.4099 74.8801C27.551 74.4126 27.9003 74.1618 28.3874 74.1661C28.9033 74.1712 29.2476 74.4355 29.3768 74.9311C29.4788 75.2923 29.4788 75.6748 29.3768 76.0361C29.2399 76.5053 28.888 76.7781 28.4205 76.7807C27.9199 76.7807 27.5493 76.5129 27.4158 76.0327C27.3507 75.8395 27.3199 75.6364 27.3249 75.4326Z" fill="#F7F8F8"/>
<path d="M34.3892 75.663C34.1682 75.663 34.0586 75.6672 33.9498 75.663C33.7883 75.6562 33.7398 75.578 33.784 75.4148C33.9166 74.9243 34.368 74.807 34.7428 74.9328C34.8254 74.9597 34.8981 75.0106 34.9515 75.0791C35.005 75.1475 35.0368 75.2304 35.0429 75.317C35.0641 75.4802 34.997 75.6035 34.8363 75.6281C34.6527 75.6553 34.464 75.6579 34.3892 75.663Z" fill="#F7F8F8"/>
<path d="M54.8997 75.64C54.9125 75.0781 55.3247 74.7619 55.8271 74.9192C55.8942 74.9397 55.9562 74.974 56.0092 75.02C56.0622 75.066 56.105 75.1225 56.1348 75.1861C56.2453 75.4105 56.1603 75.6043 55.9172 75.6349C55.5797 75.6808 55.2376 75.6825 54.8997 75.64Z" fill="#F7F8F8"/>
<path d="M64.2293 75.929C64.2761 75.929 64.3228 75.929 64.3687 75.929C64.5243 75.9375 64.5659 75.9766 64.5744 76.1169C64.5744 76.1636 64.5744 76.2104 64.5744 76.2563C64.5744 76.4705 64.5251 76.6626 64.2905 76.7374C64.0355 76.8173 63.7975 76.8003 63.5927 76.6184C63.5543 76.5799 63.5249 76.5334 63.5065 76.4823C63.4882 76.4312 63.4814 76.3766 63.4866 76.3225C63.4918 76.2684 63.5089 76.2162 63.5366 76.1694C63.5643 76.1227 63.6021 76.0827 63.6471 76.0523C63.7882 75.9579 63.9225 75.929 64.2293 75.929Z" fill="#F7F8F8"/>
<path d="M20.1619 75.8585C20.1671 76.0071 20.1464 76.1555 20.1007 76.297C20.0115 76.552 19.8457 76.7288 19.5703 76.7637C19.4463 76.7843 19.3191 76.7716 19.2017 76.7267C19.0843 76.6819 18.9809 76.6067 18.9022 76.5087C18.6294 76.1789 18.6056 75.5405 18.8495 75.1861C19.1283 74.7789 19.7845 74.8155 20.0293 75.2541C20.1298 75.4389 20.1758 75.6485 20.1619 75.8585Z" fill="#F7F8F8"/>
<path d="M49.0262 75.872C49.029 76.0202 49.0051 76.1676 48.9556 76.3072C48.7559 76.898 48.07 76.8852 47.7529 76.4976C47.4826 76.1661 47.4656 75.5269 47.7155 75.1742C47.9901 74.7866 48.6131 74.8129 48.8698 75.2218C48.9812 75.4199 49.0353 75.645 49.0262 75.872Z" fill="#F7F8F8"/>
</svg>
