<svg width="56" height="56" viewBox="0 0 56 56" fill="none" xmlns="http://www.w3.org/2000/svg">
<rect x="4" y="4" width="48" height="48" rx="24" fill="#08783D"/>
<path d="M31.0499 21C32.0267 21.1906 32.9243 21.6683 33.628 22.3719C34.3317 23.0756 34.8094 23.9733 34.9999 24.95M31.0499 17C33.0792 17.2254 34.9715 18.1342 36.4162 19.577C37.8608 21.0198 38.7719 22.911 38.9999 24.94M37.9999 32.92V35.92C38.0011 36.1985 37.944 36.4742 37.8324 36.7293C37.7209 36.9845 37.5572 37.2136 37.352 37.4019C37.1468 37.5901 36.9045 37.7335 36.6407 37.8227C36.3769 37.9119 36.0973 37.9451 35.8199 37.92C32.7428 37.5856 29.7869 36.5341 27.1899 34.85C24.7738 33.3147 22.7253 31.2662 21.1899 28.85C19.4999 26.2412 18.4482 23.271 18.1199 20.18C18.0949 19.9035 18.1278 19.6248 18.2164 19.3616C18.3051 19.0985 18.4475 18.8567 18.6347 18.6516C18.8219 18.4466 19.0497 18.2827 19.3037 18.1705C19.5577 18.0583 19.8323 18.0003 20.1099 18H23.1099C23.5952 17.9952 24.0657 18.1671 24.4337 18.4835C24.8017 18.8 25.042 19.2394 25.1099 19.72C25.2366 20.6801 25.4714 21.6227 25.8099 22.53C25.9445 22.8879 25.9736 23.2769 25.8938 23.6509C25.8141 24.0248 25.6288 24.3681 25.3599 24.64L24.0899 25.91C25.5135 28.4135 27.5864 30.4864 30.0899 31.91L31.3599 30.64C31.6318 30.3711 31.9751 30.1858 32.3491 30.1061C32.723 30.0263 33.112 30.0555 33.4699 30.19C34.3772 30.5286 35.3199 30.7634 36.2799 30.89C36.7657 30.9585 37.2093 31.2032 37.5265 31.5775C37.8436 31.9518 38.0121 32.4296 37.9999 32.92Z" stroke="white" stroke-width="2" stroke-linecap="round" stroke-linejoin="round"/>
<rect x="4" y="4" width="48" height="48" rx="24" stroke="#EBF5F0" stroke-width="8"/>
</svg>
