<svg width="350" height="250" viewBox="0 0 350 250" fill="none" xmlns="http://www.w3.org/2000/svg">
<rect width="350" height="250" fill="#EBF5F0"/>
<g clip-path="url(#clip0_1895_41486)">
<path d="M101.417 132.073C100.638 132.073 100 131.443 100 130.655V51.4175C100 50.63 100.63 50 101.417 50C102.205 50 102.835 50.63 102.835 51.4175V130.663C102.835 131.443 102.205 132.08 101.417 132.08V132.073Z" fill="#08783D"/>
<path d="M248.583 200H101.417C100.638 200 100 199.37 100 198.582V147.643C100 146.863 100.63 146.225 101.417 146.225C102.205 146.225 102.835 146.855 102.835 147.643V197.172H248.583C249.363 197.172 250 197.802 250 198.59C250 199.377 249.37 200.007 248.583 200.007V200Z" fill="#08783D"/>
<path d="M248.582 200H225.94C225.16 200 224.522 199.37 224.522 198.583V68.3975C224.522 67.6175 225.152 66.98 225.94 66.98H248.582C249.362 66.98 250 67.61 250 68.3975V198.583C250 199.363 249.37 200 248.582 200ZM227.357 197.173H247.172V69.815H227.357V197.173Z" fill="#08783D"/>
<path d="M225.94 200H203.297C202.517 200 201.88 199.37 201.88 198.583V113.683C201.88 112.903 202.51 112.265 203.297 112.265H225.94C226.72 112.265 227.357 112.895 227.357 113.683V198.59C227.357 199.37 226.727 200.008 225.94 200.008V200ZM204.715 197.173H224.53V115.093H204.715V197.165V197.173Z" fill="#08783D"/>
<path d="M203.305 200H180.663C179.883 200 179.245 199.37 179.245 198.582V130.662C179.245 129.882 179.875 129.245 180.663 129.245H203.305C204.085 129.245 204.723 129.875 204.723 130.662V198.59C204.723 199.37 204.093 200.007 203.305 200.007V200ZM182.08 197.172H201.895V132.072H182.08V197.165V197.172Z" fill="#08783D"/>
<path d="M180.663 200H158.02C157.24 200 156.603 199.37 156.603 198.582V144.815C156.603 144.035 157.233 143.397 158.02 143.397H180.663C181.443 143.397 182.08 144.027 182.08 144.815V198.59C182.08 199.37 181.45 200.007 180.663 200.007V200ZM159.438 197.172H179.253V146.232H159.438V197.172V197.172Z" fill="#08783D"/>
<path d="M158.02 200H135.377C134.597 200 133.96 199.37 133.96 198.583V156.132C133.96 155.352 134.59 154.715 135.377 154.715H158.02C158.8 154.715 159.437 155.345 159.437 156.132V198.583C159.437 199.363 158.807 200 158.02 200ZM136.795 197.172H156.61V157.55H136.795V197.172V197.172Z" fill="#08783D"/>
<path d="M107.072 183.02H101.417C100.637 183.02 100 182.39 100 181.603C100 180.815 100.63 180.185 101.417 180.185H107.08C107.86 180.185 108.497 180.815 108.497 181.603C108.497 182.39 107.867 183.02 107.08 183.02H107.072Z" fill="#08783D"/>
<path d="M107.072 166.04H101.417C100.637 166.04 100 165.41 100 164.623C100 163.835 100.63 163.205 101.417 163.205H107.08C107.86 163.205 108.497 163.835 108.497 164.623C108.497 165.41 107.867 166.04 107.08 166.04H107.072Z" fill="#08783D"/>
<path d="M107.072 81.1325H101.417C100.637 81.1325 100 80.5025 100 79.715C100 78.9275 100.63 78.2975 101.417 78.2975H107.08C107.86 78.2975 108.497 78.9275 108.497 79.715C108.497 80.5025 107.867 81.1325 107.08 81.1325H107.072Z" fill="#08783D"/>
<path d="M107.072 64.1525H101.417C100.637 64.1525 100 63.5225 100 62.735C100 61.9475 100.63 61.3175 101.417 61.3175H107.08C107.86 61.3175 108.497 61.9475 108.497 62.735C108.497 63.5225 107.867 64.1525 107.08 64.1525H107.072Z" fill="#08783D"/>
<path d="M107.072 115.093H101.417C100.637 115.093 100 114.463 100 113.675C100 112.888 100.63 112.258 101.417 112.258H107.08C107.86 112.258 108.497 112.888 108.497 113.675C108.497 114.463 107.867 115.093 107.08 115.093H107.072Z" fill="#08783D"/>
<path d="M107.072 98.1125H101.417C100.637 98.1125 100 97.4825 100 96.695C100 95.9075 100.63 95.2775 101.417 95.2775H107.08C107.86 95.2775 108.497 95.9075 108.497 96.695C108.497 97.4825 107.867 98.1125 107.08 98.1125H107.072Z" fill="#08783D"/>
<path d="M101.418 140.562C100.69 140.562 100.075 140.007 100.008 139.28C99.9401 138.552 100.435 137.892 101.148 137.757C131.785 131.87 156.723 113.015 177.333 80.12L168.235 74.72C167.8 74.465 167.538 73.9925 167.545 73.49C167.545 72.9875 167.83 72.5225 168.265 72.2675L207.648 50.18C208.09 49.94 208.63 49.94 209.065 50.2025C209.5 50.4575 209.763 50.93 209.755 51.4325L209.208 96.5825C209.208 97.085 208.923 97.55 208.488 97.7975C208.045 98.045 207.505 98.0375 207.07 97.7825L197.763 92.2625C175.458 122.907 140.418 140.495 101.418 140.562ZM171.798 73.5425L180.025 78.4325C180.348 78.6275 180.588 78.9425 180.678 79.31C180.768 79.6775 180.708 80.0675 180.505 80.39C162.445 109.655 141.063 128.27 115.443 136.925C148.248 133.152 177.16 116.345 196.218 89.555C196.645 88.955 197.455 88.775 198.093 89.1575L206.403 94.0925L206.89 53.8475L171.79 73.5425H171.798Z" fill="#08783D"/>
</g>
<defs>
<clipPath id="clip0_1895_41486">
<rect width="150" height="150" fill="white" transform="translate(100 50)"/>
</clipPath>
</defs>
</svg>
