<svg width="80" height="120" viewBox="0 0 80 120" fill="none" xmlns="http://www.w3.org/2000/svg">
<g clip-path="url(#clip0_2407_126590)">
<path d="M15.6697 81.5501L12.9609 78.9593L16.0334 76.0207L16.6843 65.0991C16.6939 64.8702 16.7609 64.6414 16.8566 64.4308L28.936 39.5666C29.1658 39.1455 30.8887 36.1336 33.9037 35.9597C35.8372 35.8498 37.608 36.8843 39.1873 39.0631C42.0205 42.9722 40.9676 49.4629 39.7425 53.8846L67.8832 26.9697C69.2328 25.6698 71.0227 24.9465 72.9179 24.9099C74.8322 24.9099 76.6221 25.5691 77.9621 26.8507C79.3022 28.1324 80.02 29.8443 79.9913 31.6752C79.9626 33.4879 79.1969 35.1907 77.8377 36.4906L75.1289 33.8998C75.7798 33.2773 76.1435 32.4717 76.1531 31.6112C76.1722 30.7781 75.8468 30.0091 75.2438 29.4323C74.6503 28.8648 73.8559 28.581 72.9657 28.5626C72.0756 28.581 71.2237 28.9288 70.5728 29.5422L40.1158 58.6725C39.8382 58.938 39.484 59.1211 39.0916 59.1852L36.7274 59.5788C36.0478 59.6978 35.3491 59.4507 34.9183 58.9288C34.478 58.4162 34.3632 57.7204 34.6216 57.0979C35.9234 53.9212 38.7279 44.858 36.0287 41.1321C35.1863 39.9694 34.4972 39.5666 34.1335 39.6032C33.5113 39.6398 32.6594 40.6286 32.3627 41.1778L20.4747 65.6484L19.8047 76.9178C19.776 77.3664 19.5845 77.7875 19.2495 78.108L15.6601 81.541L15.6697 81.5501Z" fill="#08783D"/>
<path d="M75.1502 33.888L49.377 58.5386L52.0842 61.1279L77.8575 36.4774L75.1502 33.888Z" fill="#08783D"/>
<path d="M52.3768 60.8514L49.668 58.2606L57.756 50.5248C60.5701 47.8333 65.0879 47.7784 67.835 50.4058C70.5821 53.0332 70.5246 57.3543 67.7106 60.0457L65.0018 57.455C66.3227 56.1916 66.3801 54.1867 65.1262 52.9875C63.8723 51.7882 61.7857 51.8431 60.4648 53.1065L52.3768 60.8422V60.8514Z" fill="#08783D"/>
<path d="M65.0092 57.4538L55.9805 66.0892L58.6877 68.6786L67.7165 60.0431L65.0092 57.4538Z" fill="#08783D"/>
<path d="M71.7026 70.0976L68.9938 67.5068C70.3147 66.2435 70.3721 64.2386 69.1182 63.0393C67.8643 61.8401 65.7681 61.895 64.4568 63.1583L61.748 60.5676C64.5621 57.8761 69.0799 57.8211 71.827 60.4485C74.5741 63.076 74.5167 67.397 71.7026 70.0885V70.0976Z" fill="#08783D"/>
<path d="M68.9983 67.5139L61.6074 74.5828L64.3147 77.1721L71.7056 70.1032L68.9983 67.5139Z" fill="#08783D"/>
<path d="M75.8272 80.0213L73.1184 77.4305C73.7693 76.808 74.133 76.0024 74.1426 75.1419C74.1617 74.3088 73.8363 73.5398 73.2333 72.963C71.9794 71.7638 69.8832 71.8187 68.5623 73.0821L65.8535 70.4913C68.6676 67.7998 73.1854 67.7449 75.9325 70.3723C77.2725 71.6539 77.9904 73.3658 77.9617 75.1968C77.933 77.0094 77.1672 78.7122 75.8176 80.0122L75.8272 80.0213Z" fill="#08783D"/>
<path d="M41.4451 107.128L38.7363 104.538L42.0673 101.352C42.2874 101.141 42.5458 100.986 42.8426 100.903L51.2465 98.3491L73.1178 77.4305L75.8265 80.0213L53.6298 101.251C53.4097 101.462 53.1513 101.617 52.8545 101.7L44.4506 104.254L41.4451 107.128V107.128Z" fill="#08783D"/>
<path d="M38.0282 120L35.3195 117.409L42.8906 110.168L10.28 78.9776L2.70878 86.219L0 83.6282L8.92079 75.096C9.63867 74.4094 10.9117 74.4094 11.6296 75.096L46.949 108.877C47.6956 109.591 47.6956 110.754 46.949 111.468L38.0282 120Z" fill="#08783D"/>
<path d="M28.2502 101.341L25.543 103.931L34.186 112.197L36.8932 109.608L28.2502 101.341Z" fill="#08783D"/>
<path d="M23.7757 101.489C23.5172 101.489 23.2779 101.443 23.0386 101.352C22.8089 101.26 22.5983 101.123 22.4165 100.949C22.0623 100.61 21.8613 100.143 21.8613 99.6581C21.8613 99.5391 21.8613 99.4201 21.8996 99.3011C21.9188 99.1821 21.957 99.0722 22.0049 98.9532C22.0528 98.8434 22.1102 98.7427 22.1868 98.642C22.2538 98.5413 22.3303 98.4497 22.4165 98.3582C22.5122 98.2758 22.6079 98.2025 22.7132 98.1385C22.8185 98.0652 22.9238 98.0103 23.0386 97.9645C23.1631 97.9188 23.2779 97.8821 23.4024 97.8638C24.0245 97.7448 24.685 97.9371 25.1253 98.3582C25.221 98.4497 25.2976 98.5413 25.3646 98.642C25.4316 98.7427 25.4986 98.8434 25.5464 98.9532C25.5943 99.0722 25.623 99.1821 25.6517 99.3011C25.6804 99.4201 25.69 99.5391 25.69 99.6581C25.69 99.9053 25.6421 100.134 25.5464 100.363C25.4507 100.583 25.3071 100.784 25.1253 100.949C25.0391 101.041 24.9434 101.114 24.8381 101.178C24.7328 101.251 24.6275 101.306 24.5127 101.352C24.3978 101.398 24.2734 101.425 24.149 101.452C24.0245 101.471 23.9001 101.489 23.7757 101.489V101.489Z" fill="#08783D"/>
<path d="M41.3922 -0.00737446L37.6016 0.507324L39.9896 16.5956L43.7802 16.0809L41.3922 -0.00737446Z" fill="#08783D"/>
<path d="M61.0588 8.59429L50.8555 21.5872L53.9168 23.7863L64.1201 10.7935L61.0588 8.59429Z" fill="#08783D"/>
<path d="M21.212 14.0077L18.9121 16.9353L32.495 26.6964L34.7948 23.7689L21.212 14.0077Z" fill="#08783D"/>
</g>
<defs>
<clipPath id="clip0_2407_126590">
<rect width="80" height="120" fill="white"/>
</clipPath>
</defs>
</svg>
