<svg width="120" height="120" viewBox="0 0 120 120" fill="none" xmlns="http://www.w3.org/2000/svg">
<g clip-path="url(#clip0_2407_126594)">
<path d="M17.8948 69.8397C8.21684 44.2277 10.3306 21.0208 10.4239 20.0468C10.5172 19.1225 11.2632 18.3771 12.2269 18.2578C12.5273 18.2181 42.7216 14.4811 60.5439 2.72363C61.2485 2.25651 62.1811 2.25651 62.8961 2.72363C66.6885 5.21825 71.3306 7.55384 76.7083 9.65091L75.1437 13.3382C70.025 11.3405 65.5176 9.1341 61.7148 6.75875C45.3328 16.9956 21.0966 21.0307 14.4339 21.9749C14.1438 27.5803 13.8226 47.428 21.7701 68.4881L17.874 69.8397H17.8948Z" fill="#2E90FA"/>
<path d="M61.7257 120.001C61.3734 120.001 61.0107 119.911 60.6999 119.742C52.4415 115.21 45.0328 109.595 38.6914 103.065L41.7274 100.352C47.5197 106.315 54.2445 111.483 61.736 115.717C92.3552 98.4137 103.349 69.6411 107.173 48.4319L111.255 49.1077C107.235 71.3903 95.5673 101.723 62.7722 119.732C62.451 119.911 62.0987 119.991 61.7464 119.991L61.7257 120.001Z" fill="#2E90FA"/>
<path d="M81.7644 95.7604L78.6973 93.0769C84.1268 87.3721 88.655 80.6933 92.1572 73.2194L95.9393 74.8493C92.2505 82.7009 87.4841 89.7276 81.7644 95.7504V95.7604Z" fill="#2E90FA"/>
<path d="M72.5228 104.019L69.9531 100.898C71.8701 99.4472 73.7248 97.8967 75.476 96.2767L78.3565 99.1391C76.5121 100.849 74.5434 102.498 72.5228 104.029V104.019Z" fill="#2E90FA"/>
<path d="M18.6196 39.4275C18.1015 31.9039 18.5575 27.0439 18.5782 26.8351C18.6714 25.9108 19.4175 25.1654 20.3811 25.0462C20.5158 25.0263 34.0276 23.3665 47.0213 18.6655L48.4823 22.3826C37.6232 26.3183 26.7226 28.157 22.5986 28.7633C22.5053 30.7212 22.4224 34.3985 22.7436 39.1691L18.6093 39.4275H18.6196Z" fill="#2E90FA"/>
<path d="M3.29505 110.221L0 107.816L42.7113 54.0373C43.4056 53.1627 44.7008 52.9937 45.6126 53.6596L57.1557 62.0976L87.3085 24.1317L79.1123 18.1387C78.5217 17.7014 78.2109 17.0057 78.3145 16.2901C78.4181 15.5745 78.9051 14.9782 79.589 14.7098L117.151 0.14961C117.824 -0.108797 118.601 -0.0193485 119.181 0.408016C119.762 0.835381 120.073 1.52115 119.979 2.21686L115.306 40.8188C115.223 41.5245 114.747 42.1407 114.063 42.419C113.379 42.6972 112.591 42.6078 112.001 42.1705L103.805 36.1774L62.3469 88.3756C62.0154 88.793 61.518 89.0713 60.9792 89.1408C60.43 89.2104 59.8808 89.0713 59.4456 88.7532L47.9026 80.3153L29.1167 103.969L25.8216 101.564L45.8717 76.3298C46.2033 75.9124 46.7006 75.6341 47.2394 75.5646C47.7783 75.495 48.3378 75.6341 48.773 75.9522L60.316 84.3901L101.774 32.192C102.105 31.7746 102.603 31.4963 103.141 31.4267C103.68 31.3572 104.24 31.4963 104.675 31.8143L111.628 36.893L115.482 5.08915L84.5419 17.1051L91.4947 22.1837C92.4065 22.8496 92.5827 24.092 91.8884 24.9666L59.228 66.093C58.8965 66.5104 58.3991 66.7887 57.8603 66.8582C57.3111 66.9278 56.7619 66.7887 56.3267 66.4706L44.7837 58.0327L3.29505 110.221Z" fill="#2E90FA"/>
</g>
<defs>
<clipPath id="clip0_2407_126594">
<rect width="120" height="120" fill="white"/>
</clipPath>
</defs>
</svg>
