<svg width="81" height="86" viewBox="0 0 81 86" fill="none" xmlns="http://www.w3.org/2000/svg">
<g clip-path="url(#clip0_1131_71580)">
<path fill-rule="evenodd" clip-rule="evenodd" d="M8.31403 23.9241L8.45429 23.363L8.59455 22.6617L14.766 0.5L80.4078 0.640264L7.89325 59.6914L40.9947 19.7162H16.1686L14.766 19.8564C11.8205 19.9967 9.15559 21.8201 8.31403 23.9241Z" fill="#808285"/>
<path fill-rule="evenodd" clip-rule="evenodd" d="M76.9015 41.0363C76.9015 40.7558 74.7976 53.5198 71.2911 66.7046L2.7038 67.1254L76.7612 7.23267L43.5195 47.4884H68.4859L69.8885 47.3482C72.8339 47.2079 75.9197 43.1403 76.9015 41.0363Z" fill="#ED1C24"/>
<path fill-rule="evenodd" clip-rule="evenodd" d="M11.821 85.5H0.179382L8.17422 74.5594H2.84433L3.26511 71.4736H14.3457L6.35084 82.4142H12.2418L11.821 85.5ZM14.0652 85.5L15.8885 71.4736H23.8834L23.4626 74.5594H18.9743L18.6937 76.9439H22.9016L22.621 80.0297H18.273L17.9924 82.4142H22.4808L22.06 85.5H14.0652ZM24.4444 85.5L26.2678 71.4736H29.7743L33.8419 78.7673L34.1224 79.6089L34.6834 81.1518C34.6917 80.2618 34.7385 79.3727 34.8237 78.4868L35.6652 71.4736H39.1717L37.3484 85.5H33.9821L29.9146 78.3465L29.4938 77.3647L28.9327 75.8218C28.9255 76.7584 28.8787 77.6943 28.7925 78.627L27.9509 85.5H24.4444ZM40.2938 85.5L42.1172 71.4736H45.764L43.9406 85.5H40.2938ZM48.7094 85.5L50.112 74.8399H47.1666L47.5874 71.4736H57.1251L56.7043 74.8399H53.7588L52.3562 85.5H48.7094ZM56.9848 85.5L58.8082 71.4736H62.455L61.7537 76.9439H66.5225L67.2238 71.4736H70.8706L69.0472 85.5H65.4004L66.1017 79.7491H61.3329L60.6316 85.5H56.9848Z" fill="#808285"/>
</g>
<defs>
<clipPath id="clip0_1131_71580">
<rect width="80.2289" height="85" fill="white" transform="translate(0.179382 0.5)"/>
</clipPath>
</defs>
</svg>
